Panamera-Normal.ufo
<glyph name="exclam" format="1">
  <advance width="310"/>
  <unicode hex="0021"/>
  <outline>
    <contour>
      <point x="168" y="214" type="line"/>
      <point x="189" y="608" type="line"/>
      <point x="189" y="731" type="line"/>
      <point x="121" y="731" type="line"/>
      <point x="121" y="608" type="line"/>
      <point x="142" y="214" type="line"/>
    </contour>
    <contour>
      <point x="121" y="0" type="line"/>
      <point x="189" y="0" type="line"/>
      <point x="189" y="68" type="line"/>
      <point x="121" y="68" type="line"/>
    </contour>
  </outline>
</glyph>
<glyph name="quotedbl" format="1">
  <advance width="644"/>
  <unicode hex="0022"/>
  <outline>
    <contour>
      <point x="191" y="502" type="line"/>
      <point x="239" y="502" type="line"/>
      <point x="248" y="726" type="line"/>
      <point x="182" y="726" type="line"/>
    </contour>
    <contour>
      <point x="405" y="502" type="line"/>
      <point x="453" y="502" type="line"/>
      <point x="462" y="726" type="line"/>
      <point x="396" y="726" type="line"/>
    </contour>
  </outline>
</glyph>
<glyph name="numbersign" format="1">
  <advance width="823"/>
  <unicode hex="0023"/>
  <outline>
    <contour>
      <point x="656" y="504" type="line"/>
      <point x="810" y="504" type="line"/>
      <point x="810" y="540" type="line"/>
      <point x="668" y="540" type="line"/>
      <point x="740" y="756" type="line"/>
      <point x="699" y="756" type="line"/>
      <point x="627" y="540" type="line"/>
      <point x="321" y="540" type="line"/>
      <point x="393" y="756" type="line"/>
      <point x="351" y="756" type="line"/>
      <point x="279" y="540" type="line"/>
      <point x="99" y="540" type="line"/>
      <point x="99" y="504" type="line"/>
      <point x="267" y="504" type="line"/>
      <point x="175" y="227" type="line"/>
      <point x="31" y="227" type="line"/>
      <point x="31" y="190" type="line"/>
      <point x="162" y="190" type="line"/>
      <point x="97" y="-6" type="line"/>
      <point x="138" y="-6" type="line"/>
      <point x="204" y="190" type="line"/>
      <point x="510" y="190" type="line"/>
      <point x="444" y="-6" type="line"/>
      <point x="485" y="-6" type="line"/>
      <point x="551" y="190" type="line"/>
      <point x="730" y="190" type="line"/>
      <point x="730" y="227" type="line"/>
      <point x="563" y="227" type="line"/>
    </contour>
    <contour>
      <point x="615" y="504" type="line"/>
      <point x="522" y="227" type="line"/>
      <point x="216" y="227" type="line"/>
      <point x="309" y="504" type="line"/>
    </contour>
  </outline>
</glyph>
<glyph name="dollar" format="1">
  <advance width="572"/>
  <unicode hex="0024"/>
  <outline>
    <contour>
      <point x="547" y="292"/>
      <point x="456" y="332"/>
      <point x="371" y="360" type="curve"/>
      <point x="371" y="672" type="line"/>
      <point x="412" y="658"/>
      <point x="442" y="631"/>
      <point x="455" y="593" type="curve"/>
      <point x="497" y="604" type="line"/>
      <point x="477" y="654"/>
      <point x="430" y="686"/>
      <point x="371" y="700" type="curve"/>
      <point x="371" y="804" type="line"/>
      <point x="336" y="804" type="line"/>
      <point x="336" y="706" type="line"/>
      <point x="323" y="707"/>
      <point x="310" y="708"/>
      <point x="297" y="708" type="curve" smooth="yes"/>
      <point x="287" y="708"/>
      <point x="277" y="708"/>
      <point x="268" y="707" type="curve"/>
      <point x="268" y="804" type="line"/>
      <point x="236" y="804" type="line"/>
      <point x="236" y="703" type="line"/>
      <point x="134" y="686"/>
      <point x="85" y="622"/>
      <point x="85" y="544" type="curve" smooth="yes"/>
      <point x="85" y="464"/>
      <point x="134" y="417"/>
      <point x="236" y="377" type="curve"/>
      <point x="236" y="26" type="line"/>
      <point x="144" y="43"/>
      <point x="93" y="99"/>
      <point x="67" y="172" type="curve"/>
      <point x="28" y="152" type="line"/>
      <point x="64" y="72"/>
      <point x="128" y="14"/>
      <point x="236" y="-2" type="curve"/>
      <point x="236" y="-101" type="line"/>
      <point x="268" y="-101" type="line"/>
      <point x="268" y="-6" type="line"/>
      <point x="279" y="-7"/>
      <point x="290" y="-7"/>
      <point x="302" y="-7" type="curve" smooth="yes"/>
      <point x="314" y="-7"/>
      <point x="325" y="-7"/>
      <point x="336" y="-6" type="curve"/>
      <point x="336" y="-101" type="line"/>
      <point x="371" y="-101" type="line"/>
      <point x="371" y="-2" type="line"/>
      <point x="494" y="19"/>
      <point x="547" y="98"/>
      <point x="547" y="190" type="curve" smooth="yes"/>
    </contour>
    <contour>
      <point x="311" y="683"/>
      <point x="323" y="682"/>
      <point x="336" y="680" type="curve"/>
      <point x="336" y="371" type="line"/>
      <point x="324" y="375"/>
      <point x="312" y="378"/>
      <point x="301" y="382" type="curve" smooth="yes"/>
      <point x="289" y="386"/>
      <point x="278" y="390"/>
      <point x="268" y="394" type="curve"/>
      <point x="268" y="682" type="line"/>
      <point x="277" y="683"/>
      <point x="287" y="683"/>
      <point x="297" y="683" type="curve" smooth="yes"/>
    </contour>
    <contour>
      <point x="129" y="608"/>
      <point x="162" y="659"/>
      <point x="236" y="677" type="curve"/>
      <point x="236" y="406" type="line"/>
      <point x="148" y="445"/>
      <point x="129" y="484"/>
      <point x="129" y="544" type="curve" smooth="yes"/>
    </contour>
    <contour>
      <point x="290" y="20"/>
      <point x="279" y="20"/>
      <point x="268" y="21" type="curve"/>
      <point x="268" y="366" type="line"/>
      <point x="275" y="363"/>
      <point x="283" y="361"/>
      <point x="291" y="358" type="curve" smooth="yes"/>
      <point x="306" y="353"/>
      <point x="321" y="348"/>
      <point x="336" y="344" type="curve"/>
      <point x="336" y="22" type="line"/>
      <point x="325" y="21"/>
      <point x="314" y="20"/>
      <point x="302" y="20" type="curve" smooth="yes"/>
    </contour>
    <contour>
      <point x="371" y="332" type="line"/>
      <point x="442" y="305"/>
      <point x="501" y="270"/>
      <point x="501" y="190" type="curve" smooth="yes"/>
      <point x="501" y="113"/>
      <point x="460" y="48"/>
      <point x="371" y="27" type="curve"/>
    </contour>
  </outline>
</glyph>
<glyph name="ampersand" format="1">
  <advance width="890"/>
  <unicode hex="0026"/>
  <outline>
    <contour>
      <point x="807" y="159" type="line"/>
      <point x="893" y="54"/>
      <point x="845" y="-7"/>
      <point x="748" y="-7" type="curve" smooth="yes"/>
      <point x="703" y="-7"/>
      <point x="644" y="24"/>
      <point x="582" y="72" type="curve"/>
      <point x="645" y="145"/>
      <point x="690" y="252"/>
      <point x="696" y="404" type="curve"/>
      <point x="641" y="404" type="line"/>
      <point x="637" y="260"/>
      <point x="609" y="158"/>
      <point x="561" y="89" type="curve"/>
      <point x="465" y="170"/>
      <point x="364" y="288"/>
      <point x="296" y="397" type="curve"/>
      <point x="427" y="437"/>
      <point x="564" y="473"/>
      <point x="564" y="605" type="curve" smooth="yes"/>
      <point x="564" y="687"/>
      <point x="490" y="756"/>
      <point x="377" y="756" type="curve" smooth="yes"/>
      <point x="266" y="756"/>
      <point x="171" y="697"/>
      <point x="171" y="599" type="curve" smooth="yes"/>
      <point x="171" y="552"/>
      <point x="198" y="484"/>
      <point x="241" y="410" type="curve"/>
      <point x="123" y="370"/>
      <point x="12" y="321"/>
      <point x="12" y="202" type="curve" smooth="yes"/>
      <point x="12" y="67"/>
      <point x="135" y="-49"/>
      <point x="314" y="-49" type="curve" smooth="yes"/>
      <point x="395" y="-49"/>
      <point x="482" y="-22"/>
      <point x="553" y="43" type="curve"/>
      <point x="623" y="-13"/>
      <point x="692" y="-49"/>
      <point x="748" y="-49" type="curve" smooth="yes"/>
      <point x="867" y="-49"/>
      <point x="924" y="47"/>
      <point x="833" y="177" type="curve"/>
    </contour>
    <contour>
      <point x="215" y="691"/>
      <point x="292" y="734"/>
      <point x="377" y="734" type="curve" smooth="yes"/>
      <point x="467" y="734"/>
      <point x="519" y="674"/>
      <point x="519" y="605" type="curve" smooth="yes"/>
      <point x="519" y="501"/>
      <point x="402" y="463"/>
      <point x="280" y="423" type="curve"/>
      <point x="240" y="492"/>
      <point x="215" y="555"/>
      <point x="215" y="599" type="curve" smooth="yes"/>
    </contour>
    <contour>
      <point x="167" y="-27"/>
      <point x="57" y="71"/>
      <point x="57" y="202" type="curve" smooth="yes"/>
      <point x="57" y="308"/>
      <point x="150" y="351"/>
      <point x="256" y="385" type="curve"/>
      <point x="326" y="270"/>
      <point x="431" y="144"/>
      <point x="535" y="57" type="curve"/>
      <point x="479" y="-2"/>
      <point x="404" y="-27"/>
      <point x="314" y="-27" type="curve" smooth="yes"/>
    </contour>
  </outline>
</glyph>
<glyph name="parenleft" format="1">
  <advance width="373"/>
  <unicode hex="0028"/>
  <outline>
    <contour>
      <point x="264" y="781" type="line"/>
      <point x="195" y="687"/>
      <point x="108" y="536"/>
      <point x="105" y="312" type="curve" smooth="yes"/>
      <point x="108" y="98"/>
      <point x="197" y="-57"/>
      <point x="265" y="-159" type="curve"/>
      <point x="290" y="-159" type="line"/>
      <point x="229" y="-51"/>
      <point x="168" y="105"/>
      <point x="165" y="309" type="curve"/>
      <point x="168" y="519"/>
      <point x="227" y="677"/>
      <point x="288" y="781" type="curve"/>
    </contour>
  </outline>
</glyph>
<glyph name="parenright" format="1">
  <advance width="373"/>
  <unicode hex="0029"/>
  <outline>
    <contour>
      <point x="85" y="781" type="line"/>
      <point x="146" y="677"/>
      <point x="205" y="519"/>
      <point x="208" y="309" type="curve" smooth="yes"/>
      <point x="205" y="105"/>
      <point x="144" y="-51"/>
      <point x="83" y="-159" type="curve"/>
      <point x="108" y="-159" type="line"/>
      <point x="176" y="-57"/>
      <point x="265" y="98"/>
      <point x="268" y="312" type="curve"/>
      <point x="265" y="536"/>
      <point x="178" y="687"/>
      <point x="109" y="781" type="curve"/>
    </contour>
  </outline>
</glyph>
<glyph name="asterisk" format="1">
  <advance width="600"/>
  <unicode hex="002A"/>
  <outline>
    <contour>
      <point x="347" y="559" type="line"/>
      <point x="417" y="582" type="line"/>
      <point x="406" y="617" type="line"/>
      <point x="336" y="594" type="line"/>
      <point x="379" y="654" type="line"/>
      <point x="350" y="674" type="line"/>
      <point x="308" y="616" type="line"/>
      <point x="308" y="689" type="line"/>
      <point x="270" y="689" type="line"/>
      <point x="270" y="616" type="line"/>
      <point x="227" y="674" type="line"/>
      <point x="198" y="654" type="line"/>
      <point x="243" y="593" type="line"/>
      <point x="172" y="616" type="line"/>
      <point x="162" y="583" type="line"/>
      <point x="231" y="561" type="line"/>
      <point x="161" y="538" type="line"/>
      <point x="172" y="503" type="line"/>
      <point x="242" y="526" type="line"/>
      <point x="199" y="466" type="line"/>
      <point x="228" y="446" type="line"/>
      <point x="270" y="504" type="line"/>
      <point x="270" y="431" type="line"/>
      <point x="308" y="431" type="line"/>
      <point x="308" y="504" type="line"/>
      <point x="351" y="446" type="line"/>
      <point x="380" y="466" type="line"/>
      <point x="335" y="527" type="line"/>
      <point x="406" y="504" type="line"/>
      <point x="416" y="537" type="line"/>
    </contour>
  </outline>
</glyph>
<glyph name="comma" format="1">
  <advance width="380"/>
  <unicode hex="002C"/>
  <outline>
    <contour>
      <point x="189" y="68" type="line"/>
      <point x="121" y="68" type="line"/>
      <point x="121" y="0" type="line"/>
      <point x="169" y="0" type="line"/>
      <point x="169" y="-9" type="line" smooth="yes"/>
      <point x="169" y="-33"/>
      <point x="168" y="-66"/>
      <point x="129" y="-100" type="curve"/>
      <point x="129" y="-131" type="line"/>
      <point x="175" y="-94"/>
      <point x="189" y="-46"/>
      <point x="189" y="-9" type="curve" smooth="yes"/>
    </contour>
  </outline>
</glyph>
<glyph name="slash" format="1">
  <advance width="413"/>
  <unicode hex="002F"/>
  <outline>
    <contour>
      <point x="97" y="-127" type="line"/>
      <point x="351" y="732" type="line"/>
      <point x="316" y="732" type="line"/>
      <point x="62" y="-127" type="line"/>
    </contour>
  </outline>
</glyph>
<glyph name="zero" format="1">
  <advance width="652"/>
  <unicode hex="0030"/>
  <outline>
    <contour>
      <point x="512" y="-13"/>
      <point x="616" y="129"/>
      <point x="616" y="348" type="curve" smooth="yes"/>
      <point x="616" y="567"/>
      <point x="512" y="709"/>
      <point x="325" y="709" type="curve" smooth="yes"/>
      <point x="139" y="709"/>
      <point x="36" y="567"/>
      <point x="36" y="348" type="curve" smooth="yes"/>
      <point x="36" y="129"/>
      <point x="139" y="-13"/>
      <point x="325" y="-13" type="curve" smooth="yes"/>
    </contour>
    <contour>
      <point x="173" y="14"/>
      <point x="81" y="141"/>
      <point x="81" y="348" type="curve" smooth="yes"/>
      <point x="81" y="555"/>
      <point x="173" y="682"/>
      <point x="325" y="682" type="curve" smooth="yes"/>
      <point x="476" y="682"/>
      <point x="571" y="555"/>
      <point x="571" y="348" type="curve" smooth="yes"/>
      <point x="571" y="141"/>
      <point x="476" y="14"/>
      <point x="325" y="14" type="curve" smooth="yes"/>
    </contour>
  </outline>
</glyph>
<glyph name="one" format="1">
  <advance width="377"/>
  <unicode hex="0031"/>
  <outline>
    <contour>
      <point x="282" y="700" type="line"/>
      <point x="234" y="700" type="line"/>
      <point x="215" y="645"/>
      <point x="153" y="637"/>
      <point x="75" y="639" type="curve"/>
      <point x="75" y="620" type="line"/>
      <point x="240" y="620" type="line"/>
      <point x="240" y="0" type="line"/>
      <point x="282" y="0" type="line"/>
    </contour>
  </outline>
</glyph>
<glyph name="two" format="1">
  <advance width="537"/>
  <unicode hex="0032"/>
  <outline>
    <contour>
      <point x="114" y="592" type="line"/>
      <point x="128" y="645"/>
      <point x="176" y="689"/>
      <point x="268" y="689" type="curve" smooth="yes"/>
      <point x="370" y="689"/>
      <point x="443" y="621"/>
      <point x="441" y="515" type="curve" smooth="yes"/>
      <point x="437" y="330"/>
      <point x="189" y="244"/>
      <point x="43" y="34" type="curve"/>
      <point x="43" y="0" type="line"/>
      <point x="494" y="0" type="line"/>
      <point x="494" y="40" type="line"/>
      <point x="84" y="40" type="line"/>
      <point x="234" y="244"/>
      <point x="485" y="317"/>
      <point x="483" y="528" type="curve" smooth="yes"/>
      <point x="482" y="648"/>
      <point x="406" y="713"/>
      <point x="268" y="713" type="curve" smooth="yes"/>
      <point x="155" y="713"/>
      <point x="81" y="660"/>
      <point x="67" y="587" type="curve"/>
    </contour>
  </outline>
</glyph>
<glyph name="four" format="1">
  <advance width="577"/>
  <unicode hex="0034"/>
  <outline>
    <contour>
      <point x="547" y="242" type="line"/>
      <point x="547" y="273" type="line"/>
      <point x="422" y="273" type="line"/>
      <point x="422" y="700" type="line"/>
      <point x="383" y="700" type="line"/>
      <point x="34" y="268" type="line"/>
      <point x="34" y="243" type="line"/>
      <point x="380" y="242" type="line"/>
      <point x="380" y="0" type="line"/>
      <point x="422" y="0" type="line"/>
      <point x="422" y="242" type="line"/>
    </contour>
    <contour>
      <point x="380" y="273" type="line"/>
      <point x="80" y="273" type="line"/>
      <point x="380" y="652" type="line"/>
    </contour>
  </outline>
</glyph>
<glyph name="five" format="1">
  <advance width="600"/>
  <unicode hex="0035"/>
  <outline>
    <contour>
      <point x="242" y="425"/>
      <point x="197" y="407"/>
      <point x="160" y="381" type="curve"/>
      <point x="160" y="670" type="line"/>
      <point x="499" y="670" type="line"/>
      <point x="499" y="700" type="line"/>
      <point x="118" y="700" type="line"/>
      <point x="118" y="346" type="line"/>
      <point x="160" y="346" type="line"/>
      <point x="191" y="373"/>
      <point x="225" y="402"/>
      <point x="308" y="402" type="curve" smooth="yes"/>
      <point x="406" y="402"/>
      <point x="499" y="341"/>
      <point x="499" y="207" type="curve" smooth="yes"/>
      <point x="499" y="88"/>
      <point x="404" y="13"/>
      <point x="304" y="13" type="curve" smooth="yes"/>
      <point x="215" y="13"/>
      <point x="134" y="67"/>
      <point x="117" y="163" type="curve"/>
      <point x="76" y="163" type="line"/>
      <point x="95" y="53"/>
      <point x="194" y="-10"/>
      <point x="304" y="-10" type="curve" smooth="yes"/>
      <point x="425" y="-10"/>
      <point x="540" y="73"/>
      <point x="540" y="207" type="curve" smooth="yes"/>
      <point x="540" y="351"/>
      <point x="431" y="425"/>
      <point x="308" y="425" type="curve" smooth="yes"/>
    </contour>
  </outline>
</glyph>
<glyph name="six" format="1">
  <advance width="547"/>
  <unicode hex="0036"/>
  <outline>
    <contour>
      <point x="232" y="415"/>
      <point x="194" y="407"/>
      <point x="161" y="391" type="curve"/>
      <point x="352" y="700" type="line"/>
      <point x="312" y="700" type="line"/>
      <point x="79" y="325" type="line"/>
      <point x="55" y="293"/>
      <point x="41" y="251"/>
      <point x="41" y="203" type="curve" smooth="yes"/>
      <point x="41" y="69"/>
      <point x="151" y="-10"/>
      <point x="273" y="-10" type="curve" smooth="yes"/>
      <point x="395" y="-10"/>
      <point x="504" y="68"/>
      <point x="504" y="202" type="curve" smooth="yes"/>
      <point x="504" y="336"/>
      <point x="394" y="415"/>
      <point x="272" y="415" type="curve" smooth="yes"/>
    </contour>
    <contour>
      <point x="172" y="14"/>
      <point x="83" y="82"/>
      <point x="83" y="202" type="curve" smooth="yes"/>
      <point x="83" y="322"/>
      <point x="173" y="391"/>
      <point x="273" y="391" type="curve" smooth="yes"/>
      <point x="373" y="391"/>
      <point x="462" y="323"/>
      <point x="462" y="203" type="curve" smooth="yes"/>
      <point x="462" y="83"/>
      <point x="372" y="14"/>
      <point x="272" y="14" type="curve" smooth="yes"/>
    </contour>
  </outline>
</glyph>
<glyph name="eight" format="1">
  <advance width="527"/>
  <unicode hex="0038"/>
  <outline>
    <contour>
      <point x="398" y="417"/>
      <point x="451" y="467"/>
      <point x="451" y="544" type="curve" smooth="yes"/>
      <point x="451" y="648"/>
      <point x="354" y="705"/>
      <point x="263" y="705" type="curve" smooth="yes"/>
      <point x="172" y="705"/>
      <point x="76" y="649"/>
      <point x="76" y="545" type="curve" smooth="yes"/>
      <point x="76" y="468"/>
      <point x="129" y="418"/>
      <point x="193" y="396" type="curve"/>
      <point x="102" y="373"/>
      <point x="32" y="305"/>
      <point x="32" y="203" type="curve" smooth="yes"/>
      <point x="32" y="75"/>
      <point x="142" y="-0"/>
      <point x="264" y="-0" type="curve" smooth="yes"/>
      <point x="387" y="-0"/>
      <point x="495" y="74"/>
      <point x="495" y="202" type="curve" smooth="yes"/>
      <point x="495" y="304"/>
      <point x="425" y="372"/>
      <point x="334" y="396" type="curve"/>
    </contour>
    <contour>
      <point x="119" y="644"/>
      <point x="201" y="685"/>
      <point x="264" y="685" type="curve" smooth="yes"/>
      <point x="327" y="685"/>
      <point x="408" y="646"/>
      <point x="408" y="545" type="curve" smooth="yes"/>
      <point x="408" y="462"/>
      <point x="342" y="405"/>
      <point x="263" y="405" type="curve" smooth="yes"/>
      <point x="184" y="405"/>
      <point x="119" y="462"/>
      <point x="119" y="544" type="curve" smooth="yes"/>
    </contour>
    <contour>
      <point x="164" y="20"/>
      <point x="74" y="85"/>
      <point x="74" y="202" type="curve" smooth="yes"/>
      <point x="74" y="318"/>
      <point x="164" y="385"/>
      <point x="264" y="385" type="curve" smooth="yes"/>
      <point x="364" y="385"/>
      <point x="453" y="319"/>
      <point x="453" y="203" type="curve" smooth="yes"/>
      <point x="453" y="86"/>
      <point x="362" y="20"/>
      <point x="263" y="20" type="curve" smooth="yes"/>
    </contour>
  </outline>
</glyph>
<glyph name="nine" format="1">
  <advance width="600"/>
  <unicode hex="0039"/>
  <outline>
    <contour>
      <point x="519" y="415" type="line"/>
      <point x="519" y="415" type="line"/>
      <point x="534" y="442"/>
      <point x="542" y="473"/>
      <point x="542" y="509" type="curve" smooth="yes"/>
      <point x="542" y="636"/>
      <point x="432" y="712"/>
      <point x="310" y="712" type="curve" smooth="yes"/>
      <point x="188" y="712"/>
      <point x="79" y="637"/>
      <point x="79" y="510" type="curve" smooth="yes"/>
      <point x="79" y="382"/>
      <point x="189" y="307"/>
      <point x="311" y="307" type="curve" smooth="yes"/>
      <point x="348" y="307"/>
      <point x="383" y="314"/>
      <point x="415" y="326" type="curve"/>
      <point x="213" y="0" type="line"/>
      <point x="227" y="0" type="line"/>
      <point x="220" y="-12" type="line"/>
      <point x="252" y="0" type="line"/>
      <point x="268" y="0" type="line"/>
      <point x="273" y="8" type="line"/>
      <point x="273" y="8" type="line"/>
      <point x="493" y="363" type="line"/>
      <point x="488" y="363" type="line"/>
      <point x="514" y="406" type="line" smooth="yes"/>
      <point x="515" y="408"/>
      <point x="516" y="409"/>
      <point x="517" y="411" type="curve" smooth="yes"/>
    </contour>
    <contour>
      <point x="211" y="327"/>
      <point x="121" y="392"/>
      <point x="121" y="509" type="curve" smooth="yes"/>
      <point x="121" y="625"/>
      <point x="211" y="692"/>
      <point x="311" y="692" type="curve" smooth="yes"/>
      <point x="411" y="692"/>
      <point x="500" y="626"/>
      <point x="500" y="510" type="curve" smooth="yes"/>
      <point x="500" y="459"/>
      <point x="483" y="418"/>
      <point x="455" y="387" type="curve"/>
      <point x="452" y="386" type="line"/>
      <point x="449" y="381" type="line"/>
      <point x="413" y="346"/>
      <point x="363" y="327"/>
      <point x="310" y="327" type="curve" smooth="yes"/>
    </contour>
  </outline>
</glyph>
<glyph name="colon" format="1">
  <advance width="270"/>
  <unicode hex="003A"/>
  <outline>
    <contour>
      <point x="101" y="398" type="line"/>
      <point x="169" y="398" type="line"/>
      <point x="169" y="466" type="line"/>
      <point x="101" y="466" type="line"/>
    </contour>
    <contour>
      <point x="101" y="-1" type="line"/>
      <point x="169" y="-1" type="line"/>
      <point x="169" y="68" type="line"/>
      <point x="101" y="68" type="line"/>
    </contour>
  </outline>
</glyph>
<glyph name="semicolon" format="1">
  <advance width="385"/>
  <unicode hex="003B"/>
  <outline>
    <contour>
      <point x="194" y="454" type="line"/>
      <point x="126" y="454" type="line"/>
      <point x="126" y="386" type="line"/>
      <point x="194" y="386" type="line"/>
    </contour>
    <contour>
      <point x="126" y="70" type="line"/>
      <point x="126" y="2" type="line"/>
      <point x="174" y="2" type="line"/>
      <point x="174" y="-7" type="line" smooth="yes"/>
      <point x="174" y="-31"/>
      <point x="173" y="-64"/>
      <point x="134" y="-98" type="curve"/>
      <point x="134" y="-129" type="line"/>
      <point x="180" y="-92"/>
      <point x="194" y="-44"/>
      <point x="194" y="-7" type="curve" smooth="yes"/>
      <point x="194" y="70" type="line"/>
    </contour>
  </outline>
</glyph>
<glyph name="less" format="1">
  <advance width="600"/>
  <unicode hex="003C"/>
  <outline>
    <contour>
      <point x="542" y="498" type="line"/>
      <point x="542" y="546" type="line"/>
      <point x="46" y="288" type="line"/>
      <point x="41" y="288" type="line"/>
      <point x="43" y="287" type="line"/>
      <point x="42" y="286" type="line"/>
      <point x="45" y="286" type="line"/>
      <point x="542" y="28" type="line"/>
      <point x="542" y="76" type="line"/>
      <point x="124" y="287" type="line"/>
    </contour>
  </outline>
</glyph>
<glyph name="greater" format="1">
  <advance width="600"/>
  <unicode hex="003E"/>
  <outline>
    <contour>
      <point x="560" y="286" type="line"/>
      <point x="559" y="287" type="line"/>
      <point x="561" y="288" type="line"/>
      <point x="556" y="288" type="line"/>
      <point x="60" y="546" type="line"/>
      <point x="60" y="498" type="line"/>
      <point x="478" y="287" type="line"/>
      <point x="60" y="76" type="line"/>
      <point x="60" y="28" type="line"/>
      <point x="557" y="286" type="line"/>
    </contour>
  </outline>
</glyph>
<glyph name="question" format="1">
  <advance width="501"/>
  <unicode hex="003F"/>
  <outline>
    <contour>
      <point x="359" y="699"/>
      <point x="419" y="649"/>
      <point x="419" y="578" type="curve" smooth="yes"/>
      <point x="419" y="503"/>
      <point x="345" y="485"/>
      <point x="269" y="454" type="curve" smooth="yes"/>
      <point x="214" y="431"/>
      <point x="145" y="401"/>
      <point x="145" y="327" type="curve" smooth="yes"/>
      <point x="145" y="251"/>
      <point x="207" y="214"/>
      <point x="275" y="214" type="curve" smooth="yes"/>
      <point x="324" y="214"/>
      <point x="359" y="232"/>
      <point x="384" y="276" type="curve"/>
      <point x="365" y="282" type="line"/>
      <point x="347" y="250"/>
      <point x="312" y="233"/>
      <point x="280" y="233" type="curve" smooth="yes"/>
      <point x="224" y="233"/>
      <point x="186" y="274"/>
      <point x="186" y="327" type="curve" smooth="yes"/>
      <point x="186" y="389"/>
      <point x="235" y="421"/>
      <point x="272" y="438" type="curve" smooth="yes"/>
      <point x="340" y="470"/>
      <point x="457" y="491"/>
      <point x="457" y="580" type="curve" smooth="yes"/>
      <point x="457" y="652"/>
      <point x="398" y="721"/>
      <point x="275" y="721" type="curve" smooth="yes"/>
      <point x="193" y="721"/>
      <point x="114" y="681"/>
      <point x="82" y="616" type="curve"/>
      <point x="108" y="597" type="line"/>
      <point x="136" y="654"/>
      <point x="192" y="699"/>
      <point x="275" y="699" type="curve" smooth="yes"/>
    </contour>
    <contour>
      <point x="241" y="0" type="line"/>
      <point x="309" y="0" type="line"/>
      <point x="309" y="68" type="line"/>
      <point x="241" y="68" type="line"/>
    </contour>
  </outline>
</glyph>
<glyph name="at" format="1">
  <advance width="968"/>
  <unicode hex="0040"/>
  <outline>
    <contour>
      <point x="203" y="709"/>
      <point x="19" y="497"/>
      <point x="19" y="233" type="curve" smooth="yes"/>
      <point x="19" y="-28"/>
      <point x="204" y="-238"/>
      <point x="484" y="-238" type="curve" smooth="yes"/>
      <point x="593" y="-238"/>
      <point x="685" y="-214"/>
      <point x="758" y="-165" type="curve"/>
      <point x="725" y="-134" type="line"/>
      <point x="659" y="-178"/>
      <point x="574" y="-197"/>
      <point x="484" y="-197" type="curve" smooth="yes"/>
      <point x="238" y="-197"/>
      <point x="67" y="-13"/>
      <point x="67" y="233" type="curve" smooth="yes"/>
      <point x="67" y="481"/>
      <point x="239" y="669"/>
      <point x="484" y="669" type="curve" smooth="yes"/>
      <point x="730" y="669"/>
      <point x="901" y="481"/>
      <point x="901" y="233" type="curve" smooth="yes"/>
      <point x="901" y="81"/>
      <point x="843" y="33"/>
      <point x="781" y="33" type="curve" smooth="yes"/>
      <point x="720" y="33"/>
      <point x="685" y="75"/>
      <point x="685" y="123" type="curve" smooth="yes"/>
      <point x="685" y="312" type="line" smooth="yes"/>
      <point x="685" y="396"/>
      <point x="668" y="501"/>
      <point x="492" y="501" type="curve" smooth="yes"/>
      <point x="393" y="501"/>
      <point x="314" y="448"/>
      <point x="303" y="388" type="curve"/>
      <point x="363" y="387" type="line"/>
      <point x="375" y="430"/>
      <point x="411" y="479"/>
      <point x="492" y="479" type="curve" smooth="yes"/>
      <point x="602" y="479"/>
      <point x="634" y="411"/>
      <point x="641" y="344" type="curve"/>
      <point x="630" y="294"/>
      <point x="551" y="280"/>
      <point x="463" y="271" type="curve" smooth="yes"/>
      <point x="306" y="252"/>
      <point x="259" y="184"/>
      <point x="259" y="119" type="curve" smooth="yes"/>
      <point x="259" y="38"/>
      <point x="335" y="-16"/>
      <point x="453" y="-16" type="curve" smooth="yes"/>
      <point x="548" y="-16"/>
      <point x="614" y="40"/>
      <point x="644" y="107" type="curve"/>
      <point x="651" y="47"/>
      <point x="696" y="-0"/>
      <point x="774" y="-0" type="curve" smooth="yes"/>
      <point x="891" y="-0"/>
      <point x="949" y="93"/>
      <point x="949" y="233" type="curve" smooth="yes"/>
      <point x="949" y="497"/>
      <point x="765" y="709"/>
      <point x="484" y="709" type="curve" smooth="yes"/>
    </contour>
    <contour>
      <point x="339" y="3"/>
      <point x="308" y="74"/>
      <point x="308" y="123" type="curve" smooth="yes"/>
      <point x="308" y="200"/>
      <point x="379" y="245"/>
      <point x="460" y="252" type="curve" smooth="yes"/>
      <point x="544" y="261"/>
      <point x="609" y="278"/>
      <point x="643" y="311" type="curve"/>
      <point x="643" y="310"/>
      <point x="643" y="310"/>
      <point x="643" y="309" type="curve" smooth="yes"/>
      <point x="643" y="144" type="line"/>
      <point x="620" y="47"/>
      <point x="526" y="3"/>
      <point x="453" y="3" type="curve" smooth="yes"/>
    </contour>
  </outline>
</glyph>
<glyph name="A" format="1">
  <advance width="678"/>
  <unicode hex="0041"/>
  <outline>
    <contour>
      <point x="523" y="219" type="line"/>
      <point x="611" y="0" type="line"/>
      <point x="658" y="0" type="line"/>
      <point x="374" y="700" type="line"/>
      <point x="304" y="700" type="line"/>
      <point x="20" y="0" type="line"/>
      <point x="67" y="0" type="line"/>
      <point x="155" y="219" type="line"/>
    </contour>
    <contour>
      <point x="512" y="246" type="line"/>
      <point x="166" y="246" type="line"/>
      <point x="339" y="675" type="line"/>
    </contour>
  </outline>
</glyph>
<glyph name="B" format="1">
  <advance width="573"/>
  <unicode hex="0042"/>
  <outline>
    <contour>
      <point x="351" y="429"/>
      <point x="398" y="470"/>
      <point x="398" y="553" type="curve" smooth="yes"/>
      <point x="398" y="665"/>
      <point x="313" y="700"/>
      <point x="204" y="700" type="curve" smooth="yes"/>
      <point x="30" y="700" type="line"/>
      <point x="30" y="-0" type="line"/>
      <point x="267" y="-0" type="line" smooth="yes"/>
      <point x="421" y="-0"/>
      <point x="526" y="66"/>
      <point x="526" y="208" type="curve" smooth="yes"/>
      <point x="526" y="342"/>
      <point x="438" y="408"/>
      <point x="284" y="412" type="curve"/>
    </contour>
    <contour>
      <point x="73" y="669" type="line"/>
      <point x="204" y="669" type="line" smooth="yes"/>
      <point x="300" y="669"/>
      <point x="356" y="618"/>
      <point x="356" y="542" type="curve" smooth="yes"/>
      <point x="356" y="467"/>
      <point x="302" y="412"/>
      <point x="200" y="412" type="curve" smooth="yes"/>
      <point x="73" y="412" type="line"/>
    </contour>
    <contour>
      <point x="73" y="31" type="line"/>
      <point x="73" y="391" type="line"/>
      <point x="262" y="391" type="line" smooth="yes"/>
      <point x="386" y="391"/>
      <point x="482" y="335"/>
      <point x="482" y="208" type="curve" smooth="yes"/>
      <point x="482" y="85"/>
      <point x="390" y="31"/>
      <point x="257" y="31" type="curve" smooth="yes"/>
    </contour>
  </outline>
</glyph>
<glyph name="D" format="1">
  <advance width="638"/>
  <unicode hex="0044"/>
  <outline>
    <contour>
      <point x="58" y="700" type="line"/>
      <point x="58" y="0" type="line"/>
      <point x="237" y="0" type="line" smooth="yes"/>
      <point x="446" y="0"/>
      <point x="603" y="104"/>
      <point x="603" y="351" type="curve" smooth="yes"/>
      <point x="603" y="602"/>
      <point x="425" y="700"/>
      <point x="219" y="700" type="curve" smooth="yes"/>
    </contour>
    <contour>
      <point x="100" y="41" type="line"/>
      <point x="100" y="658" type="line"/>
      <point x="219" y="659" type="line" smooth="yes"/>
      <point x="403" y="659"/>
      <point x="555" y="585"/>
      <point x="555" y="351" type="curve" smooth="yes"/>
      <point x="555" y="125"/>
      <point x="427" y="41"/>
      <point x="237" y="41" type="curve" smooth="yes"/>
    </contour>
  </outline>
</glyph>
<glyph name="E" format="1">
  <advance width="633"/>
  <unicode hex="0045"/>
  <outline>
    <contour>
      <point x="586" y="30" type="line"/>
      <point x="101" y="30" type="line"/>
      <point x="101" y="338" type="line"/>
      <point x="564" y="338" type="line"/>
      <point x="564" y="370" type="line"/>
      <point x="101" y="370" type="line"/>
      <point x="101" y="669" type="line"/>
      <point x="575" y="669" type="line"/>
      <point x="575" y="700" type="line"/>
      <point x="59" y="700" type="line"/>
      <point x="59" y="0" type="line"/>
      <point x="586" y="0" type="line"/>
    </contour>
  </outline>
</glyph>
<glyph name="F" format="1">
  <advance width="610"/>
  <unicode hex="0046"/>
  <outline>
    <contour>
      <point x="101" y="669" type="line"/>
      <point x="575" y="669" type="line"/>
      <point x="575" y="700" type="line"/>
      <point x="59" y="700" type="line"/>
      <point x="59" y="0" type="line"/>
      <point x="101" y="0" type="line"/>
      <point x="101" y="338" type="line"/>
      <point x="564" y="338" type="line"/>
      <point x="564" y="370" type="line"/>
      <point x="101" y="370" type="line"/>
    </contour>
  </outline>
</glyph>
<glyph name="H" format="1">
  <advance width="701"/>
  <unicode hex="0048"/>
  <outline>
    <contour>
      <point x="645" y="700" type="line"/>
      <point x="603" y="700" type="line"/>
      <point x="603" y="390" type="line"/>
      <point x="98" y="390" type="line"/>
      <point x="98" y="700" type="line"/>
      <point x="56" y="700" type="line"/>
      <point x="56" y="0" type="line"/>
      <point x="98" y="0" type="line"/>
      <point x="98" y="348" type="line"/>
      <point x="603" y="348" type="line"/>
      <point x="603" y="0" type="line"/>
      <point x="645" y="0" type="line"/>
    </contour>
  </outline>
</glyph>
<glyph name="J" format="1">
  <advance width="551"/>
  <unicode hex="004A"/>
  <outline>
    <contour>
      <point x="487" y="700" type="line"/>
      <point x="444" y="700" type="line"/>
      <point x="444" y="195" type="line" smooth="yes"/>
      <point x="444" y="75"/>
      <point x="348" y="15"/>
      <point x="250" y="15" type="curve" smooth="yes"/>
      <point x="157" y="15"/>
      <point x="110" y="56"/>
      <point x="85" y="99" type="curve"/>
      <point x="50" y="76" type="line"/>
      <point x="84" y="24"/>
      <point x="146" y="-12"/>
      <point x="250" y="-12" type="curve" smooth="yes"/>
      <point x="376" y="-12"/>
      <point x="488" y="59"/>
      <point x="488" y="195" type="curve"/>
    </contour>
  </outline>
</glyph>
<glyph name="K" format="1">
  <advance width="600"/>
  <unicode hex="004B"/>
  <outline>
    <contour>
      <point x="248" y="409" type="line"/>
      <point x="515" y="0" type="line"/>
      <point x="565" y="0" type="line"/>
      <point x="278" y="441" type="line"/>
      <point x="514" y="700" type="line"/>
      <point x="468" y="700" type="line"/>
      <point x="112" y="311" type="line"/>
      <point x="112" y="700" type="line"/>
      <point x="69" y="700" type="line"/>
      <point x="69" y="0" type="line"/>
      <point x="112" y="0" type="line"/>
      <point x="112" y="259" type="line"/>
    </contour>
  </outline>
</glyph>
<glyph name="M" format="1">
  <advance width="866"/>
  <unicode hex="004D"/>
  <outline>
    <contour>
      <point x="773" y="700" type="line"/>
      <point x="716" y="700" type="line"/>
      <point x="433" y="42" type="line"/>
      <point x="148" y="700" type="line"/>
      <point x="92" y="700" type="line"/>
      <point x="92" y="0" type="line"/>
      <point x="134" y="0" type="line"/>
      <point x="134" y="617" type="line"/>
      <point x="407" y="0" type="line"/>
      <point x="459" y="0" type="line"/>
      <point x="731" y="617" type="line"/>
      <point x="731" y="0" type="line"/>
      <point x="773" y="0" type="line"/>
    </contour>
  </outline>
</glyph>
<glyph name="N" format="1">
  <advance width="635"/>
  <unicode hex="004E"/>
  <outline>
    <contour>
      <point x="561" y="700" type="line"/>
      <point x="518" y="700" type="line"/>
      <point x="518" y="70" type="line"/>
      <point x="118" y="700" type="line"/>
      <point x="117" y="700" type="line"/>
      <point x="117" y="700" type="line"/>
      <point x="74" y="700" type="line"/>
      <point x="74" y="0" type="line"/>
      <point x="117" y="0" type="line"/>
      <point x="117" y="624" type="line"/>
      <point x="516" y="0" type="line"/>
      <point x="561" y="0" type="line"/>
    </contour>
  </outline>
</glyph>
<glyph name="P" format="1">
  <advance width="501"/>
  <unicode hex="0050"/>
  <outline>
    <contour>
      <point x="66" y="700" type="line"/>
      <point x="66" y="0" type="line"/>
      <point x="108" y="0" type="line"/>
      <point x="108" y="340" type="line"/>
      <point x="247" y="340" type="line" smooth="yes"/>
      <point x="357" y="340"/>
      <point x="455" y="383"/>
      <point x="455" y="520" type="curve" smooth="yes"/>
      <point x="455" y="655"/>
      <point x="351" y="700"/>
      <point x="253" y="700" type="curve" smooth="yes"/>
    </contour>
    <contour>
      <point x="108" y="368" type="line"/>
      <point x="108" y="669" type="line"/>
      <point x="250" y="669" type="line" smooth="yes"/>
      <point x="343" y="669"/>
      <point x="413" y="621"/>
      <point x="413" y="520" type="curve" smooth="yes"/>
      <point x="413" y="420"/>
      <point x="346" y="368"/>
      <point x="247" y="368" type="curve" smooth="yes"/>
    </contour>
  </outline>
</glyph>
<glyph name="Q" format="1">
  <advance width="772"/>
  <unicode hex="0051"/>
  <outline>
    <contour>
      <point x="665" y="0" type="line"/>
      <point x="714" y="0" type="line"/>
      <point x="610" y="95" type="line"/>
      <point x="671" y="159"/>
      <point x="706" y="248"/>
      <point x="706" y="348" type="curve" smooth="yes"/>
      <point x="706" y="546"/>
      <point x="568" y="705"/>
      <point x="369" y="705" type="curve" smooth="yes"/>
      <point x="169" y="705"/>
      <point x="31" y="546"/>
      <point x="31" y="348" type="curve" smooth="yes"/>
      <point x="31" y="152"/>
      <point x="170" y="-5"/>
      <point x="369" y="-5" type="curve" smooth="yes"/>
      <point x="455" y="-5"/>
      <point x="530" y="24"/>
      <point x="587" y="73" type="curve"/>
    </contour>
    <contour>
      <point x="196" y="26"/>
      <point x="73" y="164"/>
      <point x="73" y="348" type="curve" smooth="yes"/>
      <point x="73" y="533"/>
      <point x="197" y="674"/>
      <point x="369" y="674" type="curve" smooth="yes"/>
      <point x="542" y="674"/>
      <point x="664" y="533"/>
      <point x="664" y="348" type="curve" smooth="yes"/>
      <point x="664" y="257"/>
      <point x="634" y="178"/>
      <point x="583" y="120" type="curve"/>
      <point x="429" y="262" type="line"/>
      <point x="384" y="262" type="line"/>
      <point x="560" y="98" type="line"/>
      <point x="510" y="52"/>
      <point x="444" y="26"/>
      <point x="369" y="26" type="curve" smooth="yes"/>
    </contour>
  </outline>
</glyph>
<glyph name="R" format="1">
  <advance width="573"/>
  <unicode hex="0052"/>
  <outline>
    <contour>
      <point x="513" y="0" type="line"/>
      <point x="563" y="0" type="line"/>
      <point x="304" y="395" type="line"/>
      <point x="382" y="409"/>
      <point x="438" y="452"/>
      <point x="438" y="553" type="curve" smooth="yes"/>
      <point x="438" y="665"/>
      <point x="353" y="700"/>
      <point x="244" y="700" type="curve" smooth="yes"/>
      <point x="59" y="700" type="line"/>
      <point x="59" y="0" type="line"/>
      <point x="102" y="0" type="line"/>
      <point x="102" y="389" type="line"/>
      <point x="236" y="390" type="line" smooth="yes"/>
      <point x="243" y="390"/>
      <point x="249" y="390"/>
      <point x="255" y="390" type="curve"/>
    </contour>
    <contour>
      <point x="102" y="412" type="line"/>
      <point x="102" y="669" type="line"/>
      <point x="148" y="669"/>
      <point x="212" y="669"/>
      <point x="244" y="669" type="curve" smooth="yes"/>
      <point x="340" y="669"/>
      <point x="396" y="620"/>
      <point x="396" y="542" type="curve" smooth="yes"/>
      <point x="396" y="465"/>
      <point x="342" y="412"/>
      <point x="240" y="412" type="curve" smooth="yes"/>
    </contour>
  </outline>
</glyph>
<glyph name="T" format="1">
  <advance width="675"/>
  <unicode hex="0054"/>
  <outline>
    <contour>
      <point x="651" y="670" type="line"/>
      <point x="651" y="700" type="line"/>
      <point x="24" y="700" type="line"/>
      <point x="24" y="670" type="line"/>
      <point x="317" y="670" type="line"/>
      <point x="317" y="0" type="line"/>
      <point x="359" y="0" type="line"/>
      <point x="359" y="670" type="line"/>
    </contour>
  </outline>
</glyph>
<glyph name="V" format="1">
  <advance width="629"/>
  <unicode hex="0056"/>
  <outline>
    <contour>
      <point x="585" y="700" type="line"/>
      <point x="547" y="700" type="line"/>
      <point x="314" y="20" type="line"/>
      <point x="82" y="700" type="line"/>
      <point x="44" y="700" type="line"/>
      <point x="283" y="0" type="line"/>
      <point x="345" y="0" type="line"/>
    </contour>
  </outline>
</glyph>
<glyph name="W" format="1">
  <advance width="802"/>
  <unicode hex="0057"/>
  <outline>
    <contour>
      <point x="763" y="700" type="line"/>
      <point x="723" y="700" type="line"/>
      <point x="582" y="43" type="line"/>
      <point x="421" y="689" type="line"/>
      <point x="377" y="689" type="line"/>
      <point x="215" y="44" type="line"/>
      <point x="79" y="700" type="line"/>
      <point x="39" y="700" type="line"/>
      <point x="195" y="0" type="line"/>
      <point x="243" y="0" type="line"/>
      <point x="399" y="649" type="line"/>
      <point x="555" y="0" type="line"/>
      <point x="603" y="0" type="line"/>
    </contour>
  </outline>
</glyph>
<glyph name="X" format="1">
  <advance width="753"/>
  <unicode hex="0058"/>
  <outline>
    <contour>
      <point x="643" y="0" type="line"/>
      <point x="696" y="0" type="line"/>
      <point x="411" y="370" type="line"/>
      <point x="671" y="700" type="line"/>
      <point x="617" y="700" type="line"/>
      <point x="384" y="405" type="line"/>
      <point x="157" y="700" type="line"/>
      <point x="106" y="700" type="line"/>
      <point x="354" y="377" type="line"/>
      <point x="57" y="0" type="line"/>
      <point x="111" y="0" type="line"/>
      <point x="381" y="341" type="line"/>
    </contour>
  </outline>
</glyph>
<glyph name="Y" format="1">
  <advance width="585"/>
  <unicode hex="0059"/>
  <outline>
    <contour>
      <point x="313" y="313" type="line"/>
      <point x="519" y="700" type="line"/>
      <point x="473" y="700" type="line"/>
      <point x="292" y="337" type="line"/>
      <point x="112" y="700" type="line"/>
      <point x="66" y="700" type="line"/>
      <point x="271" y="313" type="line"/>
      <point x="271" y="0" type="line"/>
      <point x="313" y="0" type="line"/>
    </contour>
  </outline>
</glyph>
<glyph name="Z" format="1">
  <advance width="555"/>
  <unicode hex="005A"/>
  <outline>
    <contour>
      <point x="556" y="670" type="line"/>
      <point x="556" y="700" type="line"/>
      <point x="45" y="700" type="line"/>
      <point x="45" y="670" type="line"/>
      <point x="511" y="670" type="line"/>
      <point x="9" y="30" type="line"/>
      <point x="9" y="0" type="line"/>
      <point x="531" y="0" type="line"/>
      <point x="531" y="30" type="line"/>
      <point x="54" y="30" type="line"/>
      <point x="555" y="669" type="line"/>
      <point x="553" y="670" type="line"/>
    </contour>
  </outline>
</glyph>
<glyph name="backslash" format="1">
  <advance width="600"/>
  <unicode hex="005C"/>
  <outline>
    <contour>
      <point x="184" y="732" type="line"/>
      <point x="149" y="732" type="line"/>
      <point x="403" y="-127" type="line"/>
      <point x="438" y="-127" type="line"/>
    </contour>
  </outline>
</glyph>
<glyph name="asciicircum" format="1">
  <advance width="600"/>
  <unicode hex="005E"/>
  <outline>
    <contour>
      <point x="466" y="254" type="line"/>
      <point x="487" y="254" type="line"/>
      <point x="304" y="592" type="line"/>
      <point x="121" y="254" type="line"/>
      <point x="142" y="254" type="line"/>
      <point x="304" y="541" type="line"/>
    </contour>
  </outline>
</glyph>
<glyph name="grave" format="1">
  <advance width="600"/>
  <unicode hex="0060"/>
  <outline>
    <contour>
      <point x="342" y="602" type="line"/>
      <point x="222" y="715" type="line"/>
      <point x="199" y="676" type="line"/>
      <point x="325" y="597" type="line"/>
    </contour>
  </outline>
</glyph>
<glyph name="a" format="1">
  <advance width="521"/>
  <unicode hex="0061"/>
  <outline>
    <contour>
      <point x="172" y="512"/>
      <point x="88" y="456"/>
      <point x="77" y="393" type="curve"/>
      <point x="141" y="392" type="line"/>
      <point x="153" y="437"/>
      <point x="190" y="488"/>
      <point x="275" y="488" type="curve" smooth="yes"/>
      <point x="370" y="488"/>
      <point x="409" y="440"/>
      <point x="424" y="384" type="curve"/>
      <point x="441" y="307"/>
      <point x="353" y="277"/>
      <point x="255" y="265" type="curve" smooth="yes"/>
      <point x="96" y="246"/>
      <point x="40" y="198"/>
      <point x="40" y="123" type="curve" smooth="yes"/>
      <point x="40" y="42"/>
      <point x="115" y="-14"/>
      <point x="234" y="-14" type="curve" smooth="yes"/>
      <point x="333" y="-14"/>
      <point x="406" y="49"/>
      <point x="433" y="128" type="curve"/>
      <point x="433" y="-0" type="line"/>
      <point x="477" y="-0" type="line"/>
      <point x="477" y="310" type="line" smooth="yes"/>
      <point x="477" y="399"/>
      <point x="459" y="512"/>
      <point x="275" y="512" type="curve" smooth="yes"/>
    </contour>
    <contour>
      <point x="119" y="2"/>
      <point x="90" y="78"/>
      <point x="90" y="129" type="curve" smooth="yes"/>
      <point x="90" y="194"/>
      <point x="137" y="233"/>
      <point x="252" y="248" type="curve" smooth="yes"/>
      <point x="335" y="259"/>
      <point x="401" y="281"/>
      <point x="433" y="320" type="curve"/>
      <point x="433" y="316"/>
      <point x="433" y="313"/>
      <point x="433" y="310" type="curve" smooth="yes"/>
      <point x="433" y="199" type="line" smooth="yes"/>
      <point x="433" y="107"/>
      <point x="361" y="2"/>
      <point x="234" y="2" type="curve" smooth="yes"/>
    </contour>
  </outline>
</glyph>
<glyph name="b" format="1">
  <advance width="573"/>
  <unicode hex="0062"/>
  <outline>
    <contour>
      <point x="173" y="513"/>
      <point x="103" y="425"/>
      <point x="78" y="332" type="curve"/>
      <point x="85" y="398" type="line"/>
      <point x="85" y="732" type="line"/>
      <point x="40" y="732" type="line"/>
      <point x="41" y="0" type="line"/>
      <point x="85" y="0" type="line"/>
      <point x="85" y="118" type="line"/>
      <point x="78" y="170" type="line"/>
      <point x="103" y="76"/>
      <point x="173" y="-12"/>
      <point x="294" y="-12" type="curve" smooth="yes"/>
      <point x="446" y="-12"/>
      <point x="543" y="100"/>
      <point x="543" y="252" type="curve" smooth="yes"/>
      <point x="543" y="403"/>
      <point x="446" y="513"/>
      <point x="294" y="513" type="curve" smooth="yes"/>
    </contour>
    <contour>
      <point x="173" y="18"/>
      <point x="72" y="107"/>
      <point x="72" y="252" type="curve" smooth="yes"/>
      <point x="72" y="394"/>
      <point x="173" y="484"/>
      <point x="294" y="484" type="curve" smooth="yes"/>
      <point x="417" y="484"/>
      <point x="498" y="379"/>
      <point x="498" y="252" type="curve" smooth="yes"/>
      <point x="498" y="123"/>
      <point x="416" y="18"/>
      <point x="294" y="18" type="curve" smooth="yes"/>
    </contour>
  </outline>
</glyph>
<glyph name="c" format="1">
  <advance width="549"/>
  <unicode hex="0063"/>
  <outline>
    <contour>
      <point x="514" y="408" type="line"/>
      <point x="477" y="471"/>
      <point x="404" y="513"/>
      <point x="298" y="513" type="curve" smooth="yes"/>
      <point x="136" y="513"/>
      <point x="20" y="420"/>
      <point x="20" y="244" type="curve" smooth="yes"/>
      <point x="20" y="72"/>
      <point x="145" y="-14"/>
      <point x="290" y="-14" type="curve" smooth="yes"/>
      <point x="403" y="-14"/>
      <point x="480" y="31"/>
      <point x="519" y="112" type="curve"/>
      <point x="479" y="128" type="line"/>
      <point x="449" y="68"/>
      <point x="395" y="0"/>
      <point x="290" y="0" type="curve" smooth="yes"/>
      <point x="177" y="0"/>
      <point x="73" y="91"/>
      <point x="73" y="244" type="curve" smooth="yes"/>
      <point x="73" y="392"/>
      <point x="157" y="500"/>
      <point x="298" y="500" type="curve" smooth="yes"/>
      <point x="380" y="500"/>
      <point x="438" y="450"/>
      <point x="476" y="387" type="curve"/>
    </contour>
  </outline>
</glyph>
<glyph name="d" format="1">
  <advance width="563"/>
  <unicode hex="0064"/>
  <outline>
    <contour>
      <point x="526" y="732" type="line"/>
      <point x="481" y="732" type="line"/>
      <point x="481" y="398" type="line"/>
      <point x="487" y="324" type="line"/>
      <point x="464" y="421"/>
      <point x="394" y="513"/>
      <point x="269" y="513" type="curve" smooth="yes"/>
      <point x="117" y="513"/>
      <point x="20" y="403"/>
      <point x="20" y="252" type="curve" smooth="yes"/>
      <point x="20" y="100"/>
      <point x="117" y="-12"/>
      <point x="269" y="-12" type="curve" smooth="yes"/>
      <point x="394" y="-12"/>
      <point x="464" y="81"/>
      <point x="487" y="179" type="curve"/>
      <point x="481" y="118" type="line"/>
      <point x="481" y="0" type="line"/>
      <point x="525" y="0" type="line"/>
    </contour>
    <contour>
      <point x="147" y="18"/>
      <point x="65" y="123"/>
      <point x="65" y="252" type="curve" smooth="yes"/>
      <point x="65" y="379"/>
      <point x="146" y="484"/>
      <point x="269" y="484" type="curve" smooth="yes"/>
      <point x="390" y="484"/>
      <point x="491" y="394"/>
      <point x="491" y="252" type="curve" smooth="yes"/>
      <point x="491" y="107"/>
      <point x="390" y="18"/>
      <point x="269" y="18" type="curve" smooth="yes"/>
    </contour>
  </outline>
</glyph>
<glyph name="e" format="1">
  <advance width="557"/>
  <unicode hex="0065"/>
  <outline>
    <contour>
      <point x="178" y="4"/>
      <point x="75" y="89"/>
      <point x="73" y="251" type="curve"/>
      <point x="514" y="251" type="line"/>
      <point x="534" y="408"/>
      <point x="443" y="513"/>
      <point x="283" y="513" type="curve" smooth="yes"/>
      <point x="140" y="513"/>
      <point x="20" y="420"/>
      <point x="20" y="256" type="curve" smooth="yes"/>
      <point x="20" y="72"/>
      <point x="146" y="-14"/>
      <point x="290" y="-14" type="curve" smooth="yes"/>
      <point x="393" y="-14"/>
      <point x="467" y="19"/>
      <point x="515" y="78" type="curve"/>
      <point x="474" y="97" type="line"/>
      <point x="440" y="48"/>
      <point x="392" y="4"/>
      <point x="290" y="4" type="curve" smooth="yes"/>
    </contour>
    <contour>
      <point x="437" y="498"/>
      <point x="492" y="370"/>
      <point x="460" y="273" type="curve"/>
      <point x="73" y="273" type="line"/>
      <point x="80" y="400"/>
      <point x="158" y="498"/>
      <point x="283" y="498" type="curve" smooth="yes"/>
    </contour>
  </outline>
</glyph>
<glyph name="g" format="1">
  <advance width="563"/>
  <unicode hex="0067"/>
  <outline>
    <contour>
      <point x="525" y="500" type="line"/>
      <point x="481" y="500" type="line"/>
      <point x="481" y="382" type="line"/>
      <point x="487" y="321" type="line"/>
      <point x="464" y="419"/>
      <point x="394" y="512"/>
      <point x="269" y="512" type="curve" smooth="yes"/>
      <point x="117" y="512"/>
      <point x="20" y="400"/>
      <point x="20" y="248" type="curve" smooth="yes"/>
      <point x="20" y="97"/>
      <point x="117" y="-14"/>
      <point x="269" y="-14" type="curve" smooth="yes"/>
      <point x="393" y="-14"/>
      <point x="464" y="78"/>
      <point x="487" y="175" type="curve"/>
      <point x="481" y="102" type="line"/>
      <point x="481" y="-1" type="line" smooth="yes"/>
      <point x="481" y="-153"/>
      <point x="389" y="-230"/>
      <point x="275" y="-230" type="curve" smooth="yes"/>
      <point x="167" y="-230"/>
      <point x="119" y="-177"/>
      <point x="94" y="-128" type="curve"/>
      <point x="50" y="-138" type="line"/>
      <point x="81" y="-207"/>
      <point x="147" y="-259"/>
      <point x="275" y="-259" type="curve" smooth="yes"/>
      <point x="418" y="-259"/>
      <point x="526" y="-175"/>
      <point x="526" y="-1" type="curve"/>
    </contour>
    <contour>
      <point x="146" y="16"/>
      <point x="65" y="121"/>
      <point x="65" y="248" type="curve" smooth="yes"/>
      <point x="65" y="377"/>
      <point x="147" y="481"/>
      <point x="269" y="481" type="curve" smooth="yes"/>
      <point x="390" y="481"/>
      <point x="491" y="393"/>
      <point x="491" y="248" type="curve" smooth="yes"/>
      <point x="491" y="105"/>
      <point x="390" y="16"/>
      <point x="269" y="16" type="curve" smooth="yes"/>
    </contour>
  </outline>
</glyph>
<glyph name="h" format="1">
  <advance width="551"/>
  <unicode hex="0068"/>
  <outline>
    <contour>
      <point x="211" y="508"/>
      <point x="123" y="435"/>
      <point x="96" y="342" type="curve"/>
      <point x="96" y="700" type="line"/>
      <point x="52" y="700" type="line"/>
      <point x="52" y="0" type="line"/>
      <point x="96" y="0" type="line"/>
      <point x="96" y="285" type="line"/>
      <point x="116" y="422"/>
      <point x="213" y="482"/>
      <point x="300" y="482" type="curve" smooth="yes"/>
      <point x="425" y="482"/>
      <point x="470" y="397"/>
      <point x="470" y="303" type="curve" smooth="yes"/>
      <point x="470" y="0" type="line"/>
      <point x="514" y="0" type="line"/>
      <point x="514" y="303" type="line" smooth="yes"/>
      <point x="514" y="409"/>
      <point x="475" y="508"/>
      <point x="313" y="508" type="curve" smooth="yes"/>
    </contour>
  </outline>
</glyph>
<glyph name="i" format="1">
  <advance width="250"/>
  <unicode hex="0069"/>
  <outline>
    <contour>
      <point x="102" y="656" type="line"/>
      <point x="146" y="656" type="line"/>
      <point x="146" y="700" type="line"/>
      <point x="102" y="700" type="line"/>
    </contour>
    <contour>
      <point x="102" y="0" type="line"/>
      <point x="146" y="0" type="line"/>
      <point x="146" y="500" type="line"/>
      <point x="102" y="500" type="line"/>
    </contour>
  </outline>
</glyph>
<glyph name="j" format="1">
  <advance width="248"/>
  <unicode hex="006A"/>
  <outline>
    <contour>
      <point x="166" y="656" type="line"/>
      <point x="166" y="700" type="line"/>
      <point x="122" y="700" type="line"/>
      <point x="122" y="656" type="line"/>
    </contour>
    <contour>
      <point x="122" y="500" type="line"/>
      <point x="122" y="367"/>
      <point x="122" y="-39"/>
      <point x="122" y="-114" type="curve" smooth="yes"/>
      <point x="122" y="-181"/>
      <point x="96" y="-281"/>
      <point x="-17" y="-281" type="curve" smooth="yes"/>
      <point x="-69" y="-281"/>
      <point x="-110" y="-254"/>
      <point x="-136" y="-225" type="curve"/>
      <point x="-167" y="-247" type="line"/>
      <point x="-138" y="-276"/>
      <point x="-94" y="-302"/>
      <point x="-17" y="-302" type="curve" smooth="yes"/>
      <point x="142" y="-302"/>
      <point x="166" y="-179"/>
      <point x="166" y="-114" type="curve" smooth="yes"/>
      <point x="166" y="-39"/>
      <point x="166" y="367"/>
      <point x="166" y="500" type="curve"/>
    </contour>
  </outline>
</glyph>
<glyph name="k" format="1">
  <advance width="511"/>
  <unicode hex="006B"/>
  <outline>
    <contour>
      <point x="220" y="316" type="line"/>
      <point x="429" y="0" type="line"/>
      <point x="481" y="0" type="line"/>
      <point x="251" y="348" type="line"/>
      <point x="398" y="500" type="line"/>
      <point x="353" y="500" type="line"/>
      <point x="89" y="219" type="line"/>
      <point x="89" y="700" type="line"/>
      <point x="45" y="700" type="line"/>
      <point x="45" y="0" type="line"/>
      <point x="89" y="0" type="line"/>
      <point x="89" y="180" type="line"/>
    </contour>
  </outline>
</glyph>
<glyph name="l" format="1">
  <advance width="248"/>
  <unicode hex="006C"/>
  <outline>
    <contour>
      <point x="102" y="0" type="line"/>
      <point x="146" y="0" type="line"/>
      <point x="146" y="700" type="line"/>
      <point x="102" y="700" type="line"/>
    </contour>
  </outline>
</glyph>
<glyph name="m" format="1">
  <advance width="921"/>
  <unicode hex="006D"/>
  <outline>
    <contour>
      <point x="597" y="512"/>
      <point x="504" y="433"/>
      <point x="479" y="335" type="curve"/>
      <point x="471" y="428"/>
      <point x="424" y="512"/>
      <point x="281" y="512" type="curve" smooth="yes"/>
      <point x="186" y="512"/>
      <point x="94" y="445"/>
      <point x="60" y="358" type="curve"/>
      <point x="60" y="500" type="line"/>
      <point x="16" y="500" type="line"/>
      <point x="16" y="-0" type="line"/>
      <point x="60" y="-0" type="line"/>
      <point x="60" y="285" type="line"/>
      <point x="80" y="422"/>
      <point x="183" y="483"/>
      <point x="268" y="483" type="curve" smooth="yes"/>
      <point x="393" y="483"/>
      <point x="436" y="397"/>
      <point x="436" y="304" type="curve" smooth="yes"/>
      <point x="436" y="0" type="line"/>
      <point x="480" y="0" type="line"/>
      <point x="480" y="285" type="line"/>
      <point x="500" y="422"/>
      <point x="605" y="483"/>
      <point x="692" y="483" type="curve" smooth="yes"/>
      <point x="817" y="483"/>
      <point x="861" y="398"/>
      <point x="861" y="304" type="curve" smooth="yes"/>
      <point x="861" y="0" type="line"/>
      <point x="905" y="0" type="line"/>
      <point x="905" y="304" type="line" smooth="yes"/>
      <point x="905" y="409"/>
      <point x="866" y="512"/>
      <point x="704" y="512" type="curve" smooth="yes"/>
    </contour>
  </outline>
</glyph>
<glyph name="n" format="1">
  <advance width="560"/>
  <unicode hex="006E"/>
  <outline>
    <contour>
      <point x="217" y="508"/>
      <point x="117" y="436"/>
      <point x="87" y="343" type="curve"/>
      <point x="87" y="500" type="line"/>
      <point x="43" y="500" type="line"/>
      <point x="43" y="1" type="line"/>
      <point x="87" y="1" type="line"/>
      <point x="87" y="277" type="line"/>
      <point x="104" y="420"/>
      <point x="211" y="483"/>
      <point x="300" y="483" type="curve" smooth="yes"/>
      <point x="425" y="483"/>
      <point x="470" y="398"/>
      <point x="470" y="304" type="curve" smooth="yes"/>
      <point x="470" y="1" type="line"/>
      <point x="514" y="1" type="line"/>
      <point x="514" y="304" type="line" smooth="yes"/>
      <point x="514" y="409"/>
      <point x="475" y="508"/>
      <point x="313" y="508" type="curve" smooth="yes"/>
    </contour>
  </outline>
</glyph>
<glyph name="o" format="1">
  <advance width="534"/>
  <unicode hex="006F"/>
  <outline>
    <contour>
      <point x="414" y="-14"/>
      <point x="513" y="98"/>
      <point x="513" y="247" type="curve" smooth="yes"/>
      <point x="513" y="397"/>
      <point x="413" y="512"/>
      <point x="267" y="512" type="curve" smooth="yes"/>
      <point x="121" y="512"/>
      <point x="21" y="397"/>
      <point x="21" y="247" type="curve" smooth="yes"/>
      <point x="21" y="98"/>
      <point x="120" y="-14"/>
      <point x="267" y="-14" type="curve" smooth="yes"/>
    </contour>
    <contour>
      <point x="145" y="8"/>
      <point x="62" y="113"/>
      <point x="62" y="247" type="curve" smooth="yes"/>
      <point x="62" y="382"/>
      <point x="145" y="486"/>
      <point x="267" y="486" type="curve" smooth="yes"/>
      <point x="389" y="486"/>
      <point x="472" y="382"/>
      <point x="472" y="247" type="curve" smooth="yes"/>
      <point x="472" y="113"/>
      <point x="389" y="8"/>
      <point x="267" y="8" type="curve" smooth="yes"/>
    </contour>
  </outline>
</glyph>
<glyph name="p" format="1">
  <advance width="563"/>
  <unicode hex="0070"/>
  <outline>
    <contour>
      <point x="166" y="512"/>
      <point x="95" y="413"/>
      <point x="74" y="313" type="curve"/>
      <point x="81" y="382" type="line"/>
      <point x="81" y="500" type="line"/>
      <point x="37" y="500" type="line"/>
      <point x="36" y="-200" type="line"/>
      <point x="81" y="-200" type="line"/>
      <point x="81" y="102" type="line"/>
      <point x="74" y="183" type="line"/>
      <point x="96" y="84"/>
      <point x="167" y="-13"/>
      <point x="294" y="-13" type="curve" smooth="yes"/>
      <point x="446" y="-13"/>
      <point x="543" y="97"/>
      <point x="543" y="248" type="curve" smooth="yes"/>
      <point x="543" y="400"/>
      <point x="446" y="512"/>
      <point x="294" y="512" type="curve" smooth="yes"/>
    </contour>
    <contour>
      <point x="173" y="16"/>
      <point x="72" y="106"/>
      <point x="72" y="248" type="curve" smooth="yes"/>
      <point x="72" y="393"/>
      <point x="173" y="482"/>
      <point x="294" y="482" type="curve" smooth="yes"/>
      <point x="416" y="482"/>
      <point x="498" y="377"/>
      <point x="498" y="248" type="curve" smooth="yes"/>
      <point x="498" y="121"/>
      <point x="417" y="16"/>
      <point x="294" y="16" type="curve" smooth="yes"/>
    </contour>
  </outline>
</glyph>
<glyph name="q" format="1">
  <advance width="563"/>
  <unicode hex="0071"/>
  <outline>
    <contour>
      <point x="482" y="102" type="line"/>
      <point x="482" y="-232" type="line"/>
      <point x="527" y="-232" type="line"/>
      <point x="526" y="500" type="line"/>
      <point x="482" y="500" type="line"/>
      <point x="482" y="382" type="line"/>
      <point x="489" y="313" type="line"/>
      <point x="468" y="413"/>
      <point x="397" y="512"/>
      <point x="269" y="512" type="curve" smooth="yes"/>
      <point x="117" y="512"/>
      <point x="20" y="400"/>
      <point x="20" y="248" type="curve" smooth="yes"/>
      <point x="20" y="97"/>
      <point x="117" y="-13"/>
      <point x="269" y="-13" type="curve" smooth="yes"/>
      <point x="396" y="-13"/>
      <point x="467" y="84"/>
      <point x="489" y="183" type="curve"/>
    </contour>
    <contour>
      <point x="146" y="16"/>
      <point x="65" y="121"/>
      <point x="65" y="248" type="curve" smooth="yes"/>
      <point x="65" y="377"/>
      <point x="147" y="482"/>
      <point x="269" y="482" type="curve" smooth="yes"/>
      <point x="390" y="482"/>
      <point x="491" y="393"/>
      <point x="491" y="248" type="curve" smooth="yes"/>
      <point x="491" y="106"/>
      <point x="390" y="16"/>
      <point x="269" y="16" type="curve" smooth="yes"/>
    </contour>
  </outline>
</glyph>
<glyph name="r" format="1">
  <advance width="435"/>
  <unicode hex="0072"/>
  <outline>
    <contour>
      <point x="200" y="512"/>
      <point x="116" y="436"/>
      <point x="94" y="339" type="curve"/>
      <point x="94" y="500" type="line"/>
      <point x="50" y="500" type="line"/>
      <point x="50" y="0" type="line"/>
      <point x="94" y="0" type="line"/>
      <point x="94" y="276" type="line"/>
      <point x="107" y="418"/>
      <point x="189" y="483"/>
      <point x="271" y="483" type="curve" smooth="yes"/>
      <point x="336" y="483"/>
      <point x="368" y="445"/>
      <point x="380" y="393" type="curve"/>
      <point x="426" y="393" type="line"/>
      <point x="418" y="461"/>
      <point x="385" y="512"/>
      <point x="284" y="512" type="curve" smooth="yes"/>
    </contour>
  </outline>
</glyph>
<glyph name="s" format="1">
  <advance width="441"/>
  <unicode hex="0073"/>
  <outline>
    <contour>
      <point x="130" y="11"/>
      <point x="72" y="59"/>
      <point x="53" y="157" type="curve"/>
      <point x="17" y="130" type="line"/>
      <point x="46" y="43"/>
      <point x="107" y="-14"/>
      <point x="214" y="-14" type="curve" smooth="yes"/>
      <point x="342" y="-14"/>
      <point x="402" y="57"/>
      <point x="402" y="133" type="curve" smooth="yes"/>
      <point x="402" y="227"/>
      <point x="287" y="256"/>
      <point x="216" y="277" type="curve" smooth="yes"/>
      <point x="131" y="302"/>
      <point x="90" y="342"/>
      <point x="90" y="395" type="curve" smooth="yes"/>
      <point x="90" y="453"/>
      <point x="140" y="495"/>
      <point x="212" y="495" type="curve" smooth="yes"/>
      <point x="254" y="495"/>
      <point x="311" y="491"/>
      <point x="328" y="401" type="curve"/>
      <point x="376" y="413" type="line"/>
      <point x="349" y="490"/>
      <point x="274" y="513"/>
      <point x="212" y="513" type="curve" smooth="yes"/>
      <point x="122" y="513"/>
      <point x="56" y="465"/>
      <point x="56" y="395" type="curve" smooth="yes"/>
      <point x="56" y="320"/>
      <point x="117" y="281"/>
      <point x="205" y="255" type="curve" smooth="yes"/>
      <point x="290" y="229"/>
      <point x="364" y="209"/>
      <point x="364" y="135" type="curve" smooth="yes"/>
      <point x="364" y="60"/>
      <point x="301" y="11"/>
      <point x="214" y="11" type="curve" smooth="yes"/>
    </contour>
  </outline>
</glyph>
<glyph name="v" format="1">
  <advance width="497"/>
  <unicode hex="0076"/>
  <outline>
    <contour>
      <point x="489" y="500" type="line"/>
      <point x="449" y="500" type="line"/>
      <point x="250" y="28" type="line"/>
      <point x="51" y="500" type="line"/>
      <point x="11" y="500" type="line"/>
      <point x="222" y="0" type="line"/>
      <point x="278" y="0" type="line"/>
    </contour>
  </outline>
</glyph>
<glyph name="w" format="1">
  <advance width="649"/>
  <unicode hex="0077"/>
  <outline>
    <contour>
      <point x="657" y="500" type="line"/>
      <point x="617" y="500" type="line"/>
      <point x="492" y="30" type="line"/>
      <point x="367" y="500" type="line"/>
      <point x="321" y="500" type="line"/>
      <point x="196" y="30" type="line"/>
      <point x="71" y="500" type="line"/>
      <point x="31" y="500" type="line"/>
      <point x="174" y="0" type="line"/>
      <point x="217" y="0" type="line"/>
      <point x="344" y="472" type="line"/>
      <point x="471" y="0" type="line"/>
      <point x="514" y="0" type="line"/>
    </contour>
  </outline>
</glyph>
<glyph name="x" format="1">
  <advance width="600"/>
  <unicode hex="0078"/>
  <outline>
    <contour>
      <point x="335" y="242" type="line"/>
      <point x="538" y="500" type="line"/>
      <point x="481" y="500" type="line"/>
      <point x="307" y="279" type="line"/>
      <point x="136" y="500" type="line"/>
      <point x="82" y="500" type="line"/>
      <point x="275" y="249" type="line"/>
      <point x="80" y="0" type="line"/>
      <point x="137" y="0" type="line"/>
      <point x="302" y="211" type="line"/>
      <point x="303" y="212" type="line"/>
      <point x="466" y="0" type="line"/>
      <point x="522" y="0" type="line"/>
    </contour>
  </outline>
</glyph>
<glyph name="y" format="1">
  <advance width="532"/>
  <unicode hex="0079"/>
  <outline>
    <contour>
      <point x="495" y="500" type="line"/>
      <point x="452" y="500" type="line"/>
      <point x="292" y="108" type="line"/>
      <point x="100" y="500" type="line"/>
      <point x="47" y="500" type="line"/>
      <point x="271" y="56" type="line"/>
      <point x="166" y="-200" type="line"/>
      <point x="210" y="-200" type="line"/>
    </contour>
  </outline>
</glyph>
<glyph name="z" format="1">
  <advance width="489"/>
  <unicode hex="007A"/>
  <outline>
    <contour>
      <point x="483" y="465" type="line"/>
      <point x="483" y="500" type="line"/>
      <point x="43" y="500" type="line"/>
      <point x="43" y="465" type="line"/>
      <point x="422" y="465" type="line"/>
      <point x="3" y="35" type="line"/>
      <point x="3" y="0" type="line"/>
      <point x="466" y="0" type="line"/>
      <point x="466" y="35" type="line"/>
      <point x="49" y="35" type="line"/>
    </contour>
  </outline>
</glyph>
<glyph name="braceleft" format="1">
  <advance width="512"/>
  <unicode hex="007B"/>
  <outline>
    <contour>
      <point x="336" y="800" type="line"/>
      <point x="262" y="791"/>
      <point x="226" y="752"/>
      <point x="226" y="656" type="curve" smooth="yes"/>
      <point x="226" y="545"/>
      <point x="296" y="442"/>
      <point x="278" y="394" type="curve" smooth="yes"/>
      <point x="261" y="349"/>
      <point x="216" y="337"/>
      <point x="176" y="334" type="curve"/>
      <point x="176" y="303" type="line"/>
      <point x="215" y="302"/>
      <point x="263" y="286"/>
      <point x="279" y="245" type="curve" smooth="yes"/>
      <point x="298" y="192"/>
      <point x="226" y="88"/>
      <point x="226" y="-20" type="curve" smooth="yes"/>
      <point x="226" y="-115"/>
      <point x="262" y="-173"/>
      <point x="336" y="-162" type="curve"/>
      <point x="336" y="-137" type="line"/>
      <point x="287" y="-148"/>
      <point x="270" y="-97"/>
      <point x="270" y="-20" type="curve" smooth="yes"/>
      <point x="270" y="89"/>
      <point x="336" y="184"/>
      <point x="312" y="252" type="curve" smooth="yes"/>
      <point x="297" y="290"/>
      <point x="264" y="309"/>
      <point x="224" y="319" type="curve"/>
      <point x="265" y="328"/>
      <point x="297" y="348"/>
      <point x="312" y="386" type="curve" smooth="yes"/>
      <point x="335" y="450"/>
      <point x="270" y="547"/>
      <point x="270" y="656" type="curve" smooth="yes"/>
      <point x="270" y="735"/>
      <point x="289" y="766"/>
      <point x="336" y="775" type="curve"/>
    </contour>
  </outline>
</glyph>
<glyph name="bar" format="1">
  <advance width="314"/>
  <unicode hex="007C"/>
  <outline>
    <contour>
      <point x="133" y="-165" type="line"/>
      <point x="182" y="-165" type="line"/>
      <point x="182" y="828" type="line"/>
      <point x="133" y="828" type="line"/>
    </contour>
  </outline>
</glyph>
<glyph name="braceright" format="1">
  <advance width="512"/>
  <unicode hex="007D"/>
  <outline>
    <contour>
      <point x="232" y="442"/>
      <point x="302" y="545"/>
      <point x="302" y="656" type="curve" smooth="yes"/>
      <point x="302" y="752"/>
      <point x="266" y="791"/>
      <point x="192" y="800" type="curve"/>
      <point x="192" y="775" type="line"/>
      <point x="239" y="766"/>
      <point x="258" y="735"/>
      <point x="258" y="656" type="curve" smooth="yes"/>
      <point x="258" y="547"/>
      <point x="193" y="450"/>
      <point x="216" y="386" type="curve" smooth="yes"/>
      <point x="231" y="348"/>
      <point x="263" y="328"/>
      <point x="304" y="319" type="curve"/>
      <point x="263" y="309"/>
      <point x="231" y="290"/>
      <point x="216" y="252" type="curve" smooth="yes"/>
      <point x="192" y="184"/>
      <point x="258" y="89"/>
      <point x="258" y="-20" type="curve" smooth="yes"/>
      <point x="258" y="-97"/>
      <point x="241" y="-148"/>
      <point x="192" y="-137" type="curve"/>
      <point x="192" y="-162" type="line"/>
      <point x="266" y="-173"/>
      <point x="302" y="-115"/>
      <point x="302" y="-20" type="curve" smooth="yes"/>
      <point x="302" y="88"/>
      <point x="230" y="192"/>
      <point x="249" y="245" type="curve" smooth="yes"/>
      <point x="265" y="286"/>
      <point x="313" y="302"/>
      <point x="352" y="303" type="curve"/>
      <point x="352" y="334" type="line"/>
      <point x="312" y="337"/>
      <point x="267" y="349"/>
      <point x="250" y="394" type="curve" smooth="yes"/>
    </contour>
  </outline>
</glyph>
<glyph name="exclamdown" format="1">
  <advance width="310"/>
  <unicode hex="00A1"/>
  <outline>
    <contour>
      <point x="189" y="473" type="line"/>
      <point x="189" y="541" type="line"/>
      <point x="121" y="541" type="line"/>
      <point x="121" y="473" type="line"/>
    </contour>
    <contour>
      <point x="189" y="-190" type="line"/>
      <point x="189" y="-67" type="line"/>
      <point x="168" y="327" type="line"/>
      <point x="142" y="327" type="line"/>
      <point x="121" y="-67" type="line"/>
      <point x="121" y="-190" type="line"/>
    </contour>
  </outline>
</glyph>
<glyph name="cent" format="1">
  <advance width="549"/>
  <unicode hex="00A2"/>
  <outline>
    <contour>
      <point x="479" y="225" type="line"/>
      <point x="451" y="168"/>
      <point x="401" y="105"/>
      <point x="307" y="98" type="curve"/>
      <point x="307" y="597" type="line"/>
      <point x="384" y="593"/>
      <point x="439" y="545"/>
      <point x="476" y="484" type="curve"/>
      <point x="514" y="505" type="line"/>
      <point x="478" y="566"/>
      <point x="408" y="608"/>
      <point x="307" y="610" type="curve"/>
      <point x="307" y="699" type="line"/>
      <point x="267" y="699" type="line"/>
      <point x="267" y="609" type="line"/>
      <point x="121" y="598"/>
      <point x="20" y="506"/>
      <point x="20" y="341" type="curve" smooth="yes"/>
      <point x="20" y="178"/>
      <point x="132" y="92"/>
      <point x="267" y="84" type="curve"/>
      <point x="267" y="4" type="line"/>
      <point x="307" y="4" type="line"/>
      <point x="307" y="83" type="line"/>
      <point x="411" y="88"/>
      <point x="482" y="132"/>
      <point x="519" y="209" type="curve"/>
    </contour>
    <contour>
      <point x="73" y="478"/>
      <point x="145" y="580"/>
      <point x="267" y="595" type="curve"/>
      <point x="267" y="98" type="line"/>
      <point x="163" y="110"/>
      <point x="73" y="198"/>
      <point x="73" y="341" type="curve" smooth="yes"/>
    </contour>
  </outline>
</glyph>
<glyph name="sterling" format="1">
  <advance width="581"/>
  <unicode hex="00A3"/>
  <outline>
    <contour>
      <point x="538" y="41" type="line"/>
      <point x="124" y="41" type="line"/>
      <point x="204" y="72"/>
      <point x="235" y="153"/>
      <point x="235" y="224" type="curve" smooth="yes"/>
      <point x="235" y="354" type="line"/>
      <point x="359" y="354" type="line"/>
      <point x="359" y="388" type="line"/>
      <point x="235" y="388" type="line"/>
      <point x="235" y="544" type="line" smooth="yes"/>
      <point x="235" y="608"/>
      <point x="260" y="704"/>
      <point x="369" y="704" type="curve" smooth="yes"/>
      <point x="418" y="704"/>
      <point x="457" y="678"/>
      <point x="482" y="650" type="curve"/>
      <point x="512" y="671" type="line"/>
      <point x="484" y="699"/>
      <point x="442" y="724"/>
      <point x="369" y="724" type="curve" smooth="yes"/>
      <point x="217" y="724"/>
      <point x="193" y="606"/>
      <point x="193" y="544" type="curve" smooth="yes"/>
      <point x="193" y="388" type="line"/>
      <point x="103" y="388" type="line"/>
      <point x="103" y="354" type="line"/>
      <point x="193" y="354" type="line"/>
      <point x="193" y="224" type="line" smooth="yes"/>
      <point x="193" y="127"/>
      <point x="157" y="58"/>
      <point x="86" y="41" type="curve"/>
      <point x="86" y="-1" type="line"/>
      <point x="538" y="-1" type="line"/>
    </contour>
  </outline>
</glyph>
<glyph name="yen" format="1">
  <advance width="585"/>
  <unicode hex="00A5"/>
  <outline>
    <contour>
      <point x="332" y="349" type="line"/>
      <point x="519" y="700" type="line"/>
      <point x="473" y="700" type="line"/>
      <point x="298" y="349" type="line"/>
      <point x="286" y="349" type="line"/>
      <point x="112" y="700" type="line"/>
      <point x="66" y="700" type="line"/>
      <point x="252" y="349" type="line"/>
      <point x="110" y="349" type="line"/>
      <point x="110" y="324" type="line"/>
      <point x="265" y="324" type="line"/>
      <point x="271" y="313" type="line"/>
      <point x="271" y="190" type="line"/>
      <point x="110" y="190" type="line"/>
      <point x="110" y="165" type="line"/>
      <point x="271" y="165" type="line"/>
      <point x="271" y="-0" type="line"/>
      <point x="313" y="-0" type="line"/>
      <point x="313" y="165" type="line"/>
      <point x="486" y="165" type="line"/>
      <point x="486" y="190" type="line"/>
      <point x="313" y="190" type="line"/>
      <point x="313" y="313" type="line"/>
      <point x="319" y="324" type="line"/>
      <point x="486" y="324" type="line"/>
      <point x="486" y="349" type="line"/>
    </contour>
  </outline>
</glyph>
<glyph name="brokenbar" format="1">
  <advance width="314"/>
  <unicode hex="00A6"/>
  <outline>
    <contour>
      <point x="133" y="421" type="line"/>
      <point x="182" y="421" type="line"/>
      <point x="182" y="820" type="line"/>
      <point x="133" y="820" type="line"/>
    </contour>
    <contour>
      <point x="133" y="-152" type="line"/>
      <point x="182" y="-152" type="line"/>
      <point x="182" y="247" type="line"/>
      <point x="133" y="247" type="line"/>
    </contour>
  </outline>
</glyph>
<glyph name="section" format="1">
  <advance width="572"/>
  <unicode hex="00A7"/>
  <outline>
    <contour>
      <point x="536" y="116"/>
      <point x="546" y="153"/>
      <point x="546" y="192" type="curve" smooth="yes"/>
      <point x="546" y="319"/>
      <point x="398" y="358"/>
      <point x="303" y="387" type="curve" smooth="yes"/>
      <point x="186" y="422"/>
      <point x="129" y="474"/>
      <point x="129" y="546" type="curve" smooth="yes"/>
      <point x="129" y="625"/>
      <point x="200" y="685"/>
      <point x="296" y="685" type="curve" smooth="yes"/>
      <point x="375" y="685"/>
      <point x="434" y="653"/>
      <point x="455" y="595" type="curve"/>
      <point x="497" y="606" type="line"/>
      <point x="469" y="675"/>
      <point x="390" y="710"/>
      <point x="296" y="710" type="curve" smooth="yes"/>
      <point x="173" y="710"/>
      <point x="84" y="638"/>
      <point x="84" y="546" type="curve" smooth="yes"/>
      <point x="84" y="508"/>
      <point x="99" y="474"/>
      <point x="129" y="444" type="curve"/>
      <point x="103" y="417"/>
      <point x="90" y="383"/>
      <point x="90" y="346" type="curve" smooth="yes"/>
      <point x="90" y="265"/>
      <point x="158" y="201"/>
      <point x="295" y="160" type="curve" smooth="yes"/>
      <point x="387" y="132"/>
      <point x="506" y="101"/>
      <point x="506" y="-8" type="curve" smooth="yes"/>
      <point x="506" y="-103"/>
      <point x="444" y="-178"/>
      <point x="307" y="-178" type="curve" smooth="yes"/>
      <point x="172" y="-178"/>
      <point x="103" y="-115"/>
      <point x="72" y="-26" type="curve"/>
      <point x="33" y="-45" type="line"/>
      <point x="76" y="-141"/>
      <point x="158" y="-205"/>
      <point x="307" y="-205" type="curve" smooth="yes"/>
      <point x="479" y="-205"/>
      <point x="552" y="-115"/>
      <point x="552" y="-8" type="curve" smooth="yes"/>
      <point x="552" y="31"/>
      <point x="538" y="61"/>
      <point x="516" y="86" type="curve"/>
    </contour>
    <contour>
      <point x="191" y="222"/>
      <point x="134" y="274"/>
      <point x="134" y="346" type="curve" smooth="yes"/>
      <point x="134" y="374"/>
      <point x="142" y="399"/>
      <point x="157" y="420" type="curve"/>
      <point x="190" y="397"/>
      <point x="235" y="377"/>
      <point x="290" y="360" type="curve" smooth="yes"/>
      <point x="381" y="331"/>
      <point x="501" y="301"/>
      <point x="501" y="192" type="curve" smooth="yes"/>
      <point x="501" y="166"/>
      <point x="496" y="138"/>
      <point x="484" y="114" type="curve"/>
      <point x="433" y="151"/>
      <point x="362" y="171"/>
      <point x="308" y="187" type="curve" smooth="yes"/>
    </contour>
  </outline>
</glyph>
<glyph name="dieresis" format="1">
  <advance width="556"/>
  <unicode hex="00A8"/>
  <outline>
    <contour>
      <point x="133" y="615" type="line"/>
      <point x="175" y="615" type="line"/>
      <point x="175" y="657" type="line"/>
      <point x="133" y="657" type="line"/>
    </contour>
    <contour>
      <point x="381" y="615" type="line"/>
      <point x="423" y="615" type="line"/>
      <point x="423" y="657" type="line"/>
      <point x="381" y="657" type="line"/>
    </contour>
  </outline>
</glyph>
<glyph name="copyright" format="1">
  <advance width="808"/>
  <unicode hex="00A9"/>
  <outline>
    <contour>
      <point x="638" y="-9"/>
      <point x="791" y="164"/>
      <point x="791" y="383" type="curve" smooth="yes"/>
      <point x="791" y="603"/>
      <point x="638" y="779"/>
      <point x="404" y="779" type="curve" smooth="yes"/>
      <point x="170" y="779"/>
      <point x="17" y="603"/>
      <point x="17" y="383" type="curve" smooth="yes"/>
      <point x="17" y="164"/>
      <point x="171" y="-9"/>
      <point x="404" y="-9" type="curve" smooth="yes"/>
    </contour>
    <contour>
      <point x="186" y="1"/>
      <point x="41" y="165"/>
      <point x="41" y="383" type="curve" smooth="yes"/>
      <point x="41" y="603"/>
      <point x="187" y="769"/>
      <point x="404" y="769" type="curve" smooth="yes"/>
      <point x="623" y="769"/>
      <point x="767" y="603"/>
      <point x="767" y="383" type="curve" smooth="yes"/>
      <point x="767" y="165"/>
      <point x="622" y="1"/>
      <point x="404" y="1" type="curve" smooth="yes"/>
    </contour>
    <contour>
      <point x="577" y="509" type="line"/>
      <point x="549" y="557"/>
      <point x="494" y="588"/>
      <point x="415" y="588" type="curve" smooth="yes"/>
      <point x="293" y="588"/>
      <point x="206" y="518"/>
      <point x="206" y="386" type="curve" smooth="yes"/>
      <point x="206" y="257"/>
      <point x="300" y="192"/>
      <point x="409" y="192" type="curve" smooth="yes"/>
      <point x="494" y="192"/>
      <point x="551" y="226"/>
      <point x="581" y="287" type="curve"/>
      <point x="551" y="299" type="line"/>
      <point x="528" y="254"/>
      <point x="488" y="203"/>
      <point x="409" y="203" type="curve" smooth="yes"/>
      <point x="324" y="203"/>
      <point x="246" y="271"/>
      <point x="246" y="386" type="curve" smooth="yes"/>
      <point x="246" y="497"/>
      <point x="309" y="578"/>
      <point x="415" y="578" type="curve" smooth="yes"/>
      <point x="476" y="578"/>
      <point x="520" y="541"/>
      <point x="548" y="494" type="curve"/>
    </contour>
  </outline>
</glyph>
<glyph name="ordfeminine" format="1">
  <advance width="373"/>
  <unicode hex="00AA"/>
  <outline>
    <contour>
      <point x="125" y="734"/>
      <point x="67" y="696"/>
      <point x="59" y="652" type="curve"/>
      <point x="103" y="651" type="line"/>
      <point x="112" y="683"/>
      <point x="137" y="718"/>
      <point x="196" y="718" type="curve" smooth="yes"/>
      <point x="262" y="718"/>
      <point x="288" y="685"/>
      <point x="299" y="646" type="curve"/>
      <point x="310" y="593"/>
      <point x="249" y="572"/>
      <point x="182" y="564" type="curve" smooth="yes"/>
      <point x="72" y="551"/>
      <point x="34" y="518"/>
      <point x="34" y="466" type="curve" smooth="yes"/>
      <point x="34" y="410"/>
      <point x="85" y="371"/>
      <point x="167" y="371" type="curve" smooth="yes"/>
      <point x="236" y="371"/>
      <point x="286" y="415"/>
      <point x="305" y="469" type="curve"/>
      <point x="305" y="381" type="line"/>
      <point x="335" y="381" type="line"/>
      <point x="335" y="595" type="line" smooth="yes"/>
      <point x="335" y="656"/>
      <point x="323" y="734"/>
      <point x="196" y="734" type="curve" smooth="yes"/>
    </contour>
    <contour>
      <point x="88" y="382"/>
      <point x="68" y="435"/>
      <point x="68" y="470" type="curve" smooth="yes"/>
      <point x="68" y="515"/>
      <point x="101" y="542"/>
      <point x="180" y="552" type="curve" smooth="yes"/>
      <point x="237" y="559"/>
      <point x="283" y="575"/>
      <point x="305" y="602" type="curve"/>
      <point x="305" y="599"/>
      <point x="305" y="597"/>
      <point x="305" y="595" type="curve" smooth="yes"/>
      <point x="305" y="518" type="line" smooth="yes"/>
      <point x="305" y="455"/>
      <point x="255" y="382"/>
      <point x="167" y="382" type="curve" smooth="yes"/>
    </contour>
  </outline>
</glyph>
<glyph name="guillemotleft" format="1">
  <advance width="527"/>
  <unicode hex="00AB"/>
  <outline>
    <contour>
      <point x="229" y="446" type="line"/>
      <point x="219" y="452" type="line"/>
      <point x="57" y="268" type="line"/>
      <point x="55" y="268" type="line"/>
      <point x="56" y="267" type="line"/>
      <point x="55" y="266" type="line"/>
      <point x="57" y="266" type="line"/>
      <point x="219" y="81" type="line"/>
      <point x="229" y="88" type="line"/>
      <point x="128" y="267" type="line"/>
    </contour>
    <contour>
      <point x="345" y="267" type="line"/>
      <point x="438" y="429" type="line"/>
      <point x="428" y="435" type="line"/>
      <point x="281" y="268" type="line"/>
      <point x="279" y="268" type="line"/>
      <point x="280" y="267" type="line"/>
      <point x="279" y="266" type="line"/>
      <point x="281" y="266" type="line"/>
      <point x="428" y="98" type="line"/>
      <point x="438" y="104" type="line"/>
    </contour>
  </outline>
</glyph>
<glyph name="logicalnot" format="1">
  <advance width="667"/>
  <unicode hex="00AC"/>
  <outline>
    <contour>
      <point x="642" y="74" type="line"/>
      <point x="642" y="338" type="line"/>
      <point x="43" y="338" type="line"/>
      <point x="43" y="305" type="line"/>
      <point x="592" y="305" type="line"/>
      <point x="592" y="74" type="line"/>
    </contour>
  </outline>
</glyph>
<glyph name="registered" format="1">
  <advance width="808"/>
  <unicode hex="00AE"/>
  <outline>
    <contour>
      <point x="170" y="779"/>
      <point x="17" y="603"/>
      <point x="17" y="383" type="curve" smooth="yes"/>
      <point x="17" y="164"/>
      <point x="171" y="-9"/>
      <point x="404" y="-9" type="curve" smooth="yes"/>
      <point x="638" y="-9"/>
      <point x="791" y="164"/>
      <point x="791" y="383" type="curve" smooth="yes"/>
      <point x="791" y="603"/>
      <point x="638" y="779"/>
      <point x="404" y="779" type="curve" smooth="yes"/>
    </contour>
    <contour>
      <point x="186" y="1"/>
      <point x="41" y="165"/>
      <point x="41" y="383" type="curve" smooth="yes"/>
      <point x="41" y="603"/>
      <point x="187" y="769"/>
      <point x="404" y="769" type="curve" smooth="yes"/>
      <point x="623" y="769"/>
      <point x="767" y="603"/>
      <point x="767" y="383" type="curve" smooth="yes"/>
      <point x="767" y="165"/>
      <point x="622" y="1"/>
      <point x="404" y="1" type="curve" smooth="yes"/>
    </contour>
    <contour>
      <point x="518" y="571"/>
      <point x="470" y="591"/>
      <point x="409" y="591" type="curve" smooth="yes"/>
      <point x="304" y="591" type="line"/>
      <point x="304" y="196" type="line"/>
      <point x="329" y="196" type="line"/>
      <point x="329" y="415" type="line"/>
      <point x="404" y="416" type="line" smooth="yes"/>
      <point x="408" y="416"/>
      <point x="411" y="416"/>
      <point x="415" y="416" type="curve"/>
      <point x="560" y="196" type="line"/>
      <point x="589" y="196" type="line"/>
      <point x="442" y="419" type="line"/>
      <point x="486" y="427"/>
      <point x="518" y="451"/>
      <point x="518" y="508" type="curve" smooth="yes"/>
    </contour>
    <contour>
      <point x="329" y="428" type="line"/>
      <point x="329" y="573" type="line"/>
      <point x="354" y="573"/>
      <point x="391" y="573"/>
      <point x="409" y="573" type="curve" smooth="yes"/>
      <point x="463" y="573"/>
      <point x="494" y="546"/>
      <point x="494" y="502" type="curve" smooth="yes"/>
      <point x="494" y="458"/>
      <point x="464" y="428"/>
      <point x="406" y="428" type="curve" smooth="yes"/>
    </contour>
  </outline>
</glyph>
<glyph name="plusminus" format="1">
  <advance width="600"/>
  <unicode hex="00B1"/>
  <outline>
    <contour>
      <point x="533" y="439" type="line"/>
      <point x="317" y="439" type="line"/>
      <point x="317" y="654" type="line"/>
      <point x="283" y="654" type="line"/>
      <point x="283" y="439" type="line"/>
      <point x="66" y="439" type="line"/>
      <point x="66" y="406" type="line"/>
      <point x="283" y="406" type="line"/>
      <point x="283" y="191" type="line"/>
      <point x="317" y="191" type="line"/>
      <point x="317" y="406" type="line"/>
      <point x="533" y="406" type="line"/>
    </contour>
    <contour>
      <point x="66" y="36" type="line"/>
      <point x="66" y="3" type="line"/>
      <point x="533" y="3" type="line"/>
      <point x="533" y="36" type="line"/>
    </contour>
  </outline>
</glyph>
<glyph name="twosuperior" format="1">
  <advance width="473"/>
  <unicode hex="00B2"/>
  <outline>
    <contour>
      <point x="176" y="861"/>
      <point x="120" y="827"/>
      <point x="128" y="758" type="curve"/>
      <point x="169" y="762" type="line"/>
      <point x="153" y="818"/>
      <point x="193" y="849"/>
      <point x="256" y="849" type="curve" smooth="yes"/>
      <point x="330" y="849"/>
      <point x="352" y="793"/>
      <point x="351" y="737" type="curve" smooth="yes"/>
      <point x="348" y="578"/>
      <point x="138" y="492"/>
      <point x="110" y="450" type="curve"/>
      <point x="110" y="424" type="line"/>
      <point x="402" y="424" type="line"/>
      <point x="402" y="452" type="line"/>
      <point x="153" y="452" type="line"/>
      <point x="196" y="490"/>
      <point x="392" y="599"/>
      <point x="390" y="745" type="curve" smooth="yes"/>
      <point x="389" y="807"/>
      <point x="355" y="861"/>
      <point x="256" y="861" type="curve" smooth="yes"/>
    </contour>
  </outline>
</glyph>
<glyph name="acute" format="1">
  <advance width="600"/>
  <unicode hex="00B4"/>
  <outline>
    <contour>
      <point x="362" y="676" type="line"/>
      <point x="339" y="715" type="line"/>
      <point x="219" y="602" type="line"/>
      <point x="236" y="597" type="line"/>
    </contour>
  </outline>
</glyph>
<glyph name="cedilla" format="1">
  <advance width="600"/>
  <unicode hex="00B8"/>
  <outline>
    <contour>
      <point x="301" y="-33"/>
      <point x="287" y="-38"/>
      <point x="274" y="-45" type="curve"/>
      <point x="294" y="0" type="line"/>
      <point x="266" y="0" type="line"/>
      <point x="236" y="-67" type="line"/>
      <point x="264" y="-67" type="line"/>
      <point x="265" y="-66" type="line"/>
      <point x="276" y="-57"/>
      <point x="292" y="-50"/>
      <point x="311" y="-50" type="curve" smooth="yes"/>
      <point x="339" y="-50"/>
      <point x="358" y="-74"/>
      <point x="352" y="-103" type="curve" smooth="yes"/>
      <point x="344" y="-140"/>
      <point x="301" y="-161"/>
      <point x="266" y="-161" type="curve" smooth="yes"/>
      <point x="250" y="-161"/>
      <point x="226" y="-156"/>
      <point x="209" y="-150" type="curve"/>
      <point x="209" y="-178" type="line"/>
      <point x="221" y="-181"/>
      <point x="242" y="-185"/>
      <point x="260" y="-185" type="curve" smooth="yes"/>
      <point x="311" y="-185"/>
      <point x="369" y="-162"/>
      <point x="381" y="-106" type="curve" smooth="yes"/>
      <point x="389" y="-70"/>
      <point x="370" y="-33"/>
      <point x="314" y="-33" type="curve" smooth="yes"/>
    </contour>
  </outline>
</glyph>
<glyph name="onesuperior" format="1">
  <advance width="318"/>
  <unicode hex="00B9"/>
  <outline>
    <contour>
      <point x="220" y="847" type="line"/>
      <point x="177" y="847" type="line"/>
      <point x="166" y="808"/>
      <point x="131" y="779"/>
      <point x="78" y="777" type="curve"/>
      <point x="78" y="768" type="line"/>
      <point x="181" y="768" type="line"/>
      <point x="181" y="420" type="line"/>
      <point x="220" y="420" type="line"/>
    </contour>
  </outline>
</glyph>
<glyph name="ordmasculine" format="1">
  <advance width="380"/>
  <unicode hex="00BA"/>
  <outline>
    <contour>
      <point x="292" y="367"/>
      <point x="360" y="445"/>
      <point x="360" y="547" type="curve" smooth="yes"/>
      <point x="360" y="651"/>
      <point x="291" y="730"/>
      <point x="190" y="730" type="curve" smooth="yes"/>
      <point x="89" y="730"/>
      <point x="20" y="651"/>
      <point x="20" y="547" type="curve" smooth="yes"/>
      <point x="20" y="445"/>
      <point x="89" y="367"/>
      <point x="190" y="367" type="curve" smooth="yes"/>
    </contour>
    <contour>
      <point x="106" y="383"/>
      <point x="49" y="455"/>
      <point x="49" y="547" type="curve" smooth="yes"/>
      <point x="49" y="641"/>
      <point x="106" y="712"/>
      <point x="190" y="712" type="curve" smooth="yes"/>
      <point x="274" y="712"/>
      <point x="332" y="641"/>
      <point x="332" y="547" type="curve" smooth="yes"/>
      <point x="332" y="455"/>
      <point x="274" y="383"/>
      <point x="190" y="383" type="curve" smooth="yes"/>
    </contour>
  </outline>
</glyph>
<glyph name="guillemotright" format="1">
  <advance width="526"/>
  <unicode hex="00BB"/>
  <outline>
    <contour>
      <point x="471" y="266" type="line"/>
      <point x="470" y="267" type="line"/>
      <point x="471" y="268" type="line"/>
      <point x="469" y="268" type="line"/>
      <point x="307" y="452" type="line"/>
      <point x="297" y="446" type="line"/>
      <point x="398" y="267" type="line"/>
      <point x="297" y="88" type="line"/>
      <point x="307" y="81" type="line"/>
      <point x="469" y="266" type="line"/>
    </contour>
    <contour>
      <point x="247" y="268" type="line"/>
      <point x="245" y="268" type="line"/>
      <point x="98" y="435" type="line"/>
      <point x="88" y="429" type="line"/>
      <point x="181" y="267" type="line"/>
      <point x="88" y="104" type="line"/>
      <point x="98" y="98" type="line"/>
      <point x="245" y="266" type="line"/>
      <point x="247" y="266" type="line"/>
      <point x="246" y="267" type="line"/>
    </contour>
  </outline>
</glyph>
<glyph name="onequarter" format="1">
  <advance width="851"/>
  <unicode hex="00BC"/>
  <outline>
    <contour>
      <point x="181" y="768" type="line"/>
      <point x="181" y="420" type="line"/>
      <point x="220" y="420" type="line"/>
      <point x="220" y="847" type="line"/>
      <point x="177" y="847" type="line"/>
      <point x="166" y="808"/>
      <point x="131" y="779"/>
      <point x="78" y="777" type="curve"/>
      <point x="78" y="768" type="line"/>
    </contour>
    <contour>
      <point x="699" y="754" type="line"/>
      <point x="667" y="754" type="line"/>
      <point x="85" y="0" type="line"/>
      <point x="118" y="0" type="line"/>
    </contour>
    <contour>
      <point x="697" y="124" type="line"/>
      <point x="488" y="124" type="line"/>
      <point x="697" y="379" type="line"/>
      <point x="697" y="402" type="line"/>
      <point x="702" y="428" type="line"/>
      <point x="450" y="125" type="line"/>
      <point x="449" y="99" type="line"/>
      <point x="697" y="99" type="line"/>
    </contour>
    <contour>
      <point x="726" y="414" type="line"/>
      <point x="697" y="379" type="line"/>
      <point x="697" y="124" type="line"/>
      <point x="736" y="124" type="line"/>
      <point x="736" y="428" type="line"/>
      <point x="702" y="428" type="line"/>
    </contour>
    <contour>
      <point x="814" y="99" type="line"/>
      <point x="814" y="124" type="line"/>
      <point x="736" y="124" type="line"/>
      <point x="736" y="99" type="line"/>
    </contour>
    <contour>
      <point x="697" y="99" type="line"/>
      <point x="697" y="0" type="line"/>
      <point x="736" y="0" type="line"/>
      <point x="736" y="99" type="line"/>
    </contour>
  </outline>
</glyph>
<glyph name="onehalf" format="1">
  <advance width="882"/>
  <unicode hex="00BD"/>
  <outline>
    <contour>
      <point x="181" y="768" type="line"/>
      <point x="181" y="420" type="line"/>
      <point x="220" y="420" type="line"/>
      <point x="220" y="847" type="line"/>
      <point x="177" y="847" type="line"/>
      <point x="166" y="808"/>
      <point x="131" y="779"/>
      <point x="78" y="777" type="curve"/>
      <point x="78" y="768" type="line"/>
    </contour>
    <contour>
      <point x="698" y="745" type="line"/>
      <point x="665" y="745" type="line"/>
      <point x="83" y="-9" type="line"/>
      <point x="116" y="-9" type="line"/>
    </contour>
    <contour>
      <point x="821" y="43" type="line"/>
      <point x="572" y="43" type="line"/>
      <point x="615" y="81"/>
      <point x="811" y="190"/>
      <point x="809" y="336" type="curve" smooth="yes"/>
      <point x="808" y="398"/>
      <point x="774" y="452"/>
      <point x="675" y="452" type="curve" smooth="yes"/>
      <point x="595" y="452"/>
      <point x="539" y="418"/>
      <point x="547" y="349" type="curve"/>
      <point x="588" y="353" type="line"/>
      <point x="572" y="409"/>
      <point x="612" y="440"/>
      <point x="675" y="440" type="curve" smooth="yes"/>
      <point x="749" y="440"/>
      <point x="771" y="384"/>
      <point x="770" y="328" type="curve" smooth="yes"/>
      <point x="767" y="169"/>
      <point x="557" y="83"/>
      <point x="529" y="41" type="curve"/>
      <point x="529" y="15" type="line"/>
      <point x="821" y="15" type="line"/>
    </contour>
  </outline>
</glyph>
<glyph name="threequarters" format="1">
  <advance width="851"/>
  <unicode hex="00BE"/>
  <outline>
    <contour>
      <point x="151" y="432"/>
      <point x="116" y="465"/>
      <point x="107" y="513" type="curve"/>
      <point x="69" y="513" type="line"/>
      <point x="83" y="448"/>
      <point x="144" y="413"/>
      <point x="211" y="413" type="curve" smooth="yes"/>
      <point x="290" y="413"/>
      <point x="357" y="467"/>
      <point x="357" y="544" type="curve" smooth="yes"/>
      <point x="357" y="622"/>
      <point x="303" y="688"/>
      <point x="192" y="676" type="curve"/>
      <point x="347" y="824" type="line"/>
      <point x="347" y="848" type="line"/>
      <point x="74" y="848" type="line"/>
      <point x="74" y="824" type="line"/>
      <point x="313" y="824" type="line"/>
      <point x="156" y="671" type="line"/>
      <point x="173" y="653" type="line"/>
      <point x="184" y="655"/>
      <point x="195" y="657"/>
      <point x="208" y="657" type="curve" smooth="yes"/>
      <point x="285" y="657"/>
      <point x="324" y="613"/>
      <point x="324" y="544" type="curve" smooth="yes"/>
      <point x="324" y="465"/>
      <point x="268" y="432"/>
      <point x="211" y="432" type="curve" smooth="yes"/>
    </contour>
    <contour>
      <point x="699" y="754" type="line"/>
      <point x="667" y="754" type="line"/>
      <point x="85" y="0" type="line"/>
      <point x="118" y="0" type="line"/>
    </contour>
    <contour>
      <point x="814" y="99" type="line"/>
      <point x="814" y="124" type="line"/>
      <point x="736" y="124" type="line"/>
      <point x="736" y="428" type="line"/>
      <point x="702" y="428" type="line"/>
      <point x="450" y="125" type="line"/>
      <point x="449" y="99" type="line"/>
      <point x="697" y="99" type="line"/>
      <point x="697" y="0" type="line"/>
      <point x="736" y="0" type="line"/>
      <point x="736" y="99" type="line"/>
    </contour>
    <contour>
      <point x="697" y="124" type="line"/>
      <point x="488" y="124" type="line"/>
      <point x="697" y="379" type="line"/>
    </contour>
  </outline>
</glyph>
<glyph name="questiondown" format="1">
  <advance width="501"/>
  <unicode hex="00BF"/>
  <outline>
    <contour>
      <point x="260" y="505" type="line"/>
      <point x="192" y="505" type="line"/>
      <point x="192" y="437" type="line"/>
      <point x="260" y="437" type="line"/>
    </contour>
    <contour>
      <point x="142" y="-194"/>
      <point x="82" y="-144"/>
      <point x="82" y="-73" type="curve" smooth="yes"/>
      <point x="82" y="2"/>
      <point x="156" y="20"/>
      <point x="232" y="51" type="curve" smooth="yes"/>
      <point x="287" y="74"/>
      <point x="356" y="104"/>
      <point x="356" y="178" type="curve" smooth="yes"/>
      <point x="356" y="254"/>
      <point x="294" y="291"/>
      <point x="226" y="291" type="curve" smooth="yes"/>
      <point x="177" y="291"/>
      <point x="142" y="273"/>
      <point x="117" y="229" type="curve"/>
      <point x="136" y="223" type="line"/>
      <point x="154" y="255"/>
      <point x="189" y="272"/>
      <point x="221" y="272" type="curve" smooth="yes"/>
      <point x="277" y="272"/>
      <point x="315" y="231"/>
      <point x="315" y="178" type="curve" smooth="yes"/>
      <point x="315" y="116"/>
      <point x="266" y="84"/>
      <point x="229" y="67" type="curve" smooth="yes"/>
      <point x="161" y="35"/>
      <point x="44" y="14"/>
      <point x="44" y="-75" type="curve" smooth="yes"/>
      <point x="44" y="-147"/>
      <point x="103" y="-216"/>
      <point x="226" y="-216" type="curve" smooth="yes"/>
      <point x="308" y="-216"/>
      <point x="387" y="-176"/>
      <point x="419" y="-111" type="curve"/>
      <point x="393" y="-92" type="line"/>
      <point x="365" y="-149"/>
      <point x="309" y="-194"/>
      <point x="226" y="-194" type="curve" smooth="yes"/>
    </contour>
  </outline>
</glyph>
<glyph name="Agrave" format="1">
  <advance width="678"/>
  <unicode hex="00C0"/>
  <outline>
    <contour>
      <point x="379" y="815" type="line"/>
      <point x="396" y="820" type="line"/>
      <point x="276" y="933" type="line"/>
      <point x="253" y="894" type="line"/>
    </contour>
    <contour>
      <point x="523" y="219" type="line"/>
      <point x="611" y="0" type="line"/>
      <point x="658" y="0" type="line"/>
      <point x="374" y="700" type="line"/>
      <point x="304" y="700" type="line"/>
      <point x="20" y="0" type="line"/>
      <point x="67" y="0" type="line"/>
      <point x="155" y="219" type="line"/>
    </contour>
    <contour>
      <point x="512" y="246" type="line"/>
      <point x="166" y="246" type="line"/>
      <point x="339" y="675" type="line"/>
    </contour>
  </outline>
</glyph>
<glyph name="Aacute" format="1">
  <advance width="678"/>
  <unicode hex="00C1"/>
  <outline>
    <contour>
      <point x="295" y="815" type="line"/>
      <point x="421" y="894" type="line"/>
      <point x="398" y="933" type="line"/>
      <point x="278" y="820" type="line"/>
    </contour>
    <contour>
      <point x="523" y="219" type="line"/>
      <point x="611" y="0" type="line"/>
      <point x="658" y="0" type="line"/>
      <point x="374" y="700" type="line"/>
      <point x="304" y="700" type="line"/>
      <point x="20" y="0" type="line"/>
      <point x="67" y="0" type="line"/>
      <point x="155" y="219" type="line"/>
    </contour>
    <contour>
      <point x="512" y="246" type="line"/>
      <point x="166" y="246" type="line"/>
      <point x="339" y="675" type="line"/>
    </contour>
  </outline>
</glyph>
<glyph name="Acircumflex" format="1">
  <advance width="678"/>
  <unicode hex="00C2"/>
  <outline>
    <contour>
      <point x="227" y="815" type="line"/>
      <point x="340" y="921" type="line"/>
      <point x="453" y="815" type="line"/>
      <point x="495" y="829" type="line"/>
      <point x="341" y="966" type="line"/>
      <point x="340" y="965" type="line"/>
      <point x="339" y="966" type="line"/>
      <point x="185" y="829" type="line"/>
    </contour>
    <contour>
      <point x="523" y="219" type="line"/>
      <point x="611" y="0" type="line"/>
      <point x="658" y="0" type="line"/>
      <point x="374" y="700" type="line"/>
      <point x="304" y="700" type="line"/>
      <point x="20" y="0" type="line"/>
      <point x="67" y="0" type="line"/>
      <point x="155" y="219" type="line"/>
    </contour>
    <contour>
      <point x="512" y="246" type="line"/>
      <point x="166" y="246" type="line"/>
      <point x="339" y="675" type="line"/>
    </contour>
  </outline>
</glyph>
<glyph name="Atilde" format="1">
  <advance width="678"/>
  <unicode hex="00C3"/>
  <outline>
    <contour>
      <point x="238" y="822" type="line"/>
      <point x="198" y="867"/>
      <point x="180" y="931"/>
      <point x="213" y="931" type="curve" smooth="yes"/>
      <point x="236" y="931"/>
      <point x="263" y="906"/>
      <point x="322" y="865" type="curve" smooth="yes"/>
      <point x="359" y="840"/>
      <point x="388" y="822"/>
      <point x="424" y="822" type="curve" smooth="yes"/>
      <point x="484" y="822"/>
      <point x="509" y="899"/>
      <point x="447" y="949" type="curve"/>
      <point x="410" y="950" type="line"/>
      <point x="450" y="905"/>
      <point x="468" y="841"/>
      <point x="435" y="841" type="curve" smooth="yes"/>
      <point x="412" y="841"/>
      <point x="385" y="866"/>
      <point x="326" y="907" type="curve" smooth="yes"/>
      <point x="289" y="932"/>
      <point x="260" y="950"/>
      <point x="224" y="950" type="curve" smooth="yes"/>
      <point x="164" y="950"/>
      <point x="139" y="873"/>
      <point x="201" y="823" type="curve"/>
    </contour>
    <contour>
      <point x="523" y="219" type="line"/>
      <point x="611" y="0" type="line"/>
      <point x="658" y="0" type="line"/>
      <point x="374" y="700" type="line"/>
      <point x="304" y="700" type="line"/>
      <point x="20" y="0" type="line"/>
      <point x="67" y="0" type="line"/>
      <point x="155" y="219" type="line"/>
    </contour>
    <contour>
      <point x="512" y="246" type="line"/>
      <point x="166" y="246" type="line"/>
      <point x="339" y="675" type="line"/>
    </contour>
  </outline>
</glyph>
<glyph name="Adieresis" format="1">
  <advance width="678"/>
  <unicode hex="00C4"/>
  <outline>
    <contour>
      <point x="236" y="831" type="line"/>
      <point x="236" y="873" type="line"/>
      <point x="194" y="873" type="line"/>
      <point x="194" y="831" type="line"/>
    </contour>
    <contour>
      <point x="484" y="831" type="line"/>
      <point x="484" y="873" type="line"/>
      <point x="442" y="873" type="line"/>
      <point x="442" y="831" type="line"/>
    </contour>
    <contour>
      <point x="523" y="219" type="line"/>
      <point x="611" y="0" type="line"/>
      <point x="658" y="0" type="line"/>
      <point x="374" y="700" type="line"/>
      <point x="304" y="700" type="line"/>
      <point x="20" y="0" type="line"/>
      <point x="67" y="0" type="line"/>
      <point x="155" y="219" type="line"/>
    </contour>
    <contour>
      <point x="512" y="246" type="line"/>
      <point x="166" y="246" type="line"/>
      <point x="339" y="675" type="line"/>
    </contour>
  </outline>
</glyph>
<glyph name="Aring" format="1">
  <advance width="678"/>
  <unicode hex="00C5"/>
  <outline>
    <contour>
      <point x="403" y="785"/>
      <point x="457" y="839"/>
      <point x="457" y="903" type="curve" smooth="yes"/>
      <point x="457" y="967"/>
      <point x="403" y="1021"/>
      <point x="339" y="1021" type="curve" smooth="yes"/>
      <point x="275" y="1021"/>
      <point x="221" y="967"/>
      <point x="221" y="903" type="curve" smooth="yes"/>
      <point x="221" y="839"/>
      <point x="275" y="785"/>
      <point x="339" y="785" type="curve" smooth="yes"/>
    </contour>
    <contour>
      <point x="389" y="993"/>
      <point x="429" y="953"/>
      <point x="429" y="903" type="curve" smooth="yes"/>
      <point x="429" y="853"/>
      <point x="389" y="813"/>
      <point x="339" y="813" type="curve" smooth="yes"/>
      <point x="289" y="813"/>
      <point x="249" y="853"/>
      <point x="249" y="903" type="curve" smooth="yes"/>
      <point x="249" y="953"/>
      <point x="289" y="993"/>
      <point x="339" y="993" type="curve" smooth="yes"/>
    </contour>
    <contour>
      <point x="523" y="219" type="line"/>
      <point x="611" y="0" type="line"/>
      <point x="658" y="0" type="line"/>
      <point x="374" y="700" type="line"/>
      <point x="304" y="700" type="line"/>
      <point x="20" y="0" type="line"/>
      <point x="67" y="0" type="line"/>
      <point x="155" y="219" type="line"/>
    </contour>
    <contour>
      <point x="512" y="246" type="line"/>
      <point x="166" y="246" type="line"/>
      <point x="339" y="675" type="line"/>
    </contour>
  </outline>
</glyph>
<glyph name="AE" format="1">
  <advance width="1070"/>
  <unicode hex="00C6"/>
  <outline>
    <contour>
      <point x="1023" y="30" type="line"/>
      <point x="538" y="30" type="line"/>
      <point x="538" y="338" type="line"/>
      <point x="1001" y="338" type="line"/>
      <point x="1001" y="370" type="line"/>
      <point x="538" y="370" type="line"/>
      <point x="538" y="669" type="line"/>
      <point x="1012" y="669" type="line"/>
      <point x="1012" y="700" type="line"/>
      <point x="462" y="700" type="line"/>
      <point x="64" y="0" type="line"/>
      <point x="117" y="0" type="line"/>
      <point x="263" y="258" type="line"/>
      <point x="496" y="258" type="line"/>
      <point x="496" y="0" type="line"/>
      <point x="1023" y="0" type="line"/>
    </contour>
    <contour>
      <point x="496" y="285" type="line"/>
      <point x="278" y="285" type="line"/>
      <point x="496" y="672" type="line"/>
    </contour>
  </outline>
</glyph>
<glyph name="Ccedilla" format="1">
  <advance width="693"/>
  <unicode hex="00C7"/>
  <outline>
    <contour>
      <point x="210" y="26"/>
      <point x="88" y="164"/>
      <point x="88" y="348" type="curve" smooth="yes"/>
      <point x="88" y="533"/>
      <point x="211" y="674"/>
      <point x="383" y="674" type="curve" smooth="yes"/>
      <point x="470" y="674"/>
      <point x="556" y="634"/>
      <point x="610" y="567" type="curve"/>
      <point x="651" y="588" type="line"/>
      <point x="590" y="662"/>
      <point x="498" y="705"/>
      <point x="383" y="705" type="curve" smooth="yes"/>
      <point x="172" y="705"/>
      <point x="34" y="546"/>
      <point x="34" y="348" type="curve" smooth="yes"/>
      <point x="34" y="152"/>
      <point x="173" y="-5"/>
      <point x="383" y="-5" type="curve" smooth="yes"/>
      <point x="497" y="-5"/>
      <point x="587" y="36"/>
      <point x="648" y="107" type="curve"/>
      <point x="606" y="127" type="line"/>
      <point x="552" y="64"/>
      <point x="468" y="26"/>
      <point x="383" y="26" type="curve" smooth="yes"/>
    </contour>
    <contour>
      <point x="358" y="-66"/>
      <point x="344" y="-71"/>
      <point x="331" y="-78" type="curve"/>
      <point x="351" y="-33" type="line"/>
      <point x="323" y="-33" type="line"/>
      <point x="293" y="-100" type="line"/>
      <point x="321" y="-100" type="line"/>
      <point x="322" y="-99" type="line"/>
      <point x="333" y="-90"/>
      <point x="349" y="-83"/>
      <point x="368" y="-83" type="curve" smooth="yes"/>
      <point x="396" y="-83"/>
      <point x="415" y="-107"/>
      <point x="409" y="-136" type="curve" smooth="yes"/>
      <point x="401" y="-173"/>
      <point x="358" y="-194"/>
      <point x="323" y="-194" type="curve" smooth="yes"/>
      <point x="307" y="-194"/>
      <point x="283" y="-189"/>
      <point x="266" y="-183" type="curve"/>
      <point x="266" y="-211" type="line"/>
      <point x="278" y="-214"/>
      <point x="299" y="-218"/>
      <point x="317" y="-218" type="curve" smooth="yes"/>
      <point x="368" y="-218"/>
      <point x="426" y="-195"/>
      <point x="438" y="-139" type="curve" smooth="yes"/>
      <point x="446" y="-103"/>
      <point x="427" y="-66"/>
      <point x="371" y="-66" type="curve" smooth="yes"/>
    </contour>
  </outline>
</glyph>
<glyph name="Egrave" format="1">
  <advance width="633"/>
  <unicode hex="00C8"/>
  <outline>
    <contour>
      <point x="366" y="815" type="line"/>
      <point x="383" y="820" type="line"/>
      <point x="263" y="933" type="line"/>
      <point x="240" y="894" type="line"/>
    </contour>
    <contour>
      <point x="586" y="30" type="line"/>
      <point x="101" y="30" type="line"/>
      <point x="101" y="338" type="line"/>
      <point x="564" y="338" type="line"/>
      <point x="564" y="370" type="line"/>
      <point x="101" y="370" type="line"/>
      <point x="101" y="669" type="line"/>
      <point x="575" y="669" type="line"/>
      <point x="575" y="700" type="line"/>
      <point x="59" y="700" type="line"/>
      <point x="59" y="0" type="line"/>
      <point x="586" y="0" type="line"/>
    </contour>
  </outline>
</glyph>
<glyph name="Eacute" format="1">
  <advance width="633"/>
  <unicode hex="00C9"/>
  <outline>
    <contour>
      <point x="282" y="815" type="line"/>
      <point x="408" y="894" type="line"/>
      <point x="385" y="933" type="line"/>
      <point x="265" y="820" type="line"/>
    </contour>
    <contour>
      <point x="586" y="30" type="line"/>
      <point x="101" y="30" type="line"/>
      <point x="101" y="338" type="line"/>
      <point x="564" y="338" type="line"/>
      <point x="564" y="370" type="line"/>
      <point x="101" y="370" type="line"/>
      <point x="101" y="669" type="line"/>
      <point x="575" y="669" type="line"/>
      <point x="575" y="700" type="line"/>
      <point x="59" y="700" type="line"/>
      <point x="59" y="0" type="line"/>
      <point x="586" y="0" type="line"/>
    </contour>
  </outline>
</glyph>
<glyph name="Ecircumflex" format="1">
  <advance width="633"/>
  <unicode hex="00CA"/>
  <outline>
    <contour>
      <point x="214" y="815" type="line"/>
      <point x="327" y="921" type="line"/>
      <point x="440" y="815" type="line"/>
      <point x="482" y="829" type="line"/>
      <point x="328" y="966" type="line"/>
      <point x="327" y="965" type="line"/>
      <point x="326" y="966" type="line"/>
      <point x="172" y="829" type="line"/>
    </contour>
    <contour>
      <point x="586" y="30" type="line"/>
      <point x="101" y="30" type="line"/>
      <point x="101" y="338" type="line"/>
      <point x="564" y="338" type="line"/>
      <point x="564" y="370" type="line"/>
      <point x="101" y="370" type="line"/>
      <point x="101" y="669" type="line"/>
      <point x="575" y="669" type="line"/>
      <point x="575" y="700" type="line"/>
      <point x="59" y="700" type="line"/>
      <point x="59" y="0" type="line"/>
      <point x="586" y="0" type="line"/>
    </contour>
  </outline>
</glyph>
<glyph name="Edieresis" format="1">
  <advance width="633"/>
  <unicode hex="00CB"/>
  <outline>
    <contour>
      <point x="223" y="831" type="line"/>
      <point x="223" y="873" type="line"/>
      <point x="181" y="873" type="line"/>
      <point x="181" y="831" type="line"/>
    </contour>
    <contour>
      <point x="471" y="831" type="line"/>
      <point x="471" y="873" type="line"/>
      <point x="429" y="873" type="line"/>
      <point x="429" y="831" type="line"/>
    </contour>
    <contour>
      <point x="586" y="30" type="line"/>
      <point x="101" y="30" type="line"/>
      <point x="101" y="338" type="line"/>
      <point x="564" y="338" type="line"/>
      <point x="564" y="370" type="line"/>
      <point x="101" y="370" type="line"/>
      <point x="101" y="669" type="line"/>
      <point x="575" y="669" type="line"/>
      <point x="575" y="700" type="line"/>
      <point x="59" y="700" type="line"/>
      <point x="59" y="0" type="line"/>
      <point x="586" y="0" type="line"/>
    </contour>
  </outline>
</glyph>
<glyph name="Igrave" format="1">
  <advance width="208"/>
  <unicode hex="00CC"/>
  <outline>
    <contour>
      <point x="162" y="820" type="line"/>
      <point x="42" y="933" type="line"/>
      <point x="19" y="894" type="line"/>
      <point x="145" y="815" type="line"/>
    </contour>
    <contour>
      <point x="83" y="0" type="line"/>
      <point x="125" y="0" type="line"/>
      <point x="125" y="700" type="line"/>
      <point x="83" y="700" type="line"/>
    </contour>
  </outline>
</glyph>
<glyph name="Iacute" format="1">
  <advance width="208"/>
  <unicode hex="00CD"/>
  <outline>
    <contour>
      <point x="187" y="894" type="line"/>
      <point x="164" y="933" type="line"/>
      <point x="44" y="820" type="line"/>
      <point x="61" y="815" type="line"/>
    </contour>
    <contour>
      <point x="83" y="0" type="line"/>
      <point x="125" y="0" type="line"/>
      <point x="125" y="700" type="line"/>
      <point x="83" y="700" type="line"/>
    </contour>
  </outline>
</glyph>
<glyph name="Icircumflex" format="1">
  <advance width="208"/>
  <unicode hex="00CE"/>
  <outline>
    <contour>
      <point x="261" y="829" type="line"/>
      <point x="107" y="966" type="line"/>
      <point x="106" y="965" type="line"/>
      <point x="105" y="966" type="line"/>
      <point x="-49" y="829" type="line"/>
      <point x="-7" y="815" type="line"/>
      <point x="106" y="921" type="line"/>
      <point x="219" y="815" type="line"/>
    </contour>
    <contour>
      <point x="83" y="700" type="line"/>
      <point x="83" y="0" type="line"/>
      <point x="125" y="0" type="line"/>
      <point x="125" y="700" type="line"/>
    </contour>
  </outline>
</glyph>
<glyph name="Idieresis" format="1">
  <advance width="208"/>
  <unicode hex="00CF"/>
  <outline>
    <contour>
      <point x="-40" y="831" type="line"/>
      <point x="2" y="831" type="line"/>
      <point x="2" y="873" type="line"/>
      <point x="-40" y="873" type="line"/>
    </contour>
    <contour>
      <point x="208" y="831" type="line"/>
      <point x="250" y="831" type="line"/>
      <point x="250" y="873" type="line"/>
      <point x="208" y="873" type="line"/>
    </contour>
    <contour>
      <point x="83" y="0" type="line"/>
      <point x="125" y="0" type="line"/>
      <point x="125" y="700" type="line"/>
      <point x="83" y="700" type="line"/>
    </contour>
  </outline>
</glyph>
<glyph name="Eth" format="1">
  <advance width="777"/>
  <unicode hex="00D0"/>
  <outline>
    <contour>
      <point x="194" y="700" type="line"/>
      <point x="194" y="325" type="line"/>
      <point x="48" y="325" type="line"/>
      <point x="48" y="291" type="line"/>
      <point x="194" y="291" type="line"/>
      <point x="194" y="0" type="line"/>
      <point x="373" y="0" type="line" smooth="yes"/>
      <point x="582" y="0"/>
      <point x="739" y="104"/>
      <point x="739" y="351" type="curve" smooth="yes"/>
      <point x="739" y="602"/>
      <point x="561" y="700"/>
      <point x="355" y="700" type="curve" smooth="yes"/>
    </contour>
    <contour>
      <point x="236" y="41" type="line"/>
      <point x="236" y="291" type="line"/>
      <point x="437" y="291" type="line"/>
      <point x="437" y="325" type="line"/>
      <point x="236" y="325" type="line"/>
      <point x="236" y="658" type="line"/>
      <point x="355" y="659" type="line" smooth="yes"/>
      <point x="539" y="659"/>
      <point x="691" y="585"/>
      <point x="691" y="351" type="curve" smooth="yes"/>
      <point x="691" y="125"/>
      <point x="563" y="41"/>
      <point x="373" y="41" type="curve" smooth="yes"/>
    </contour>
  </outline>
</glyph>
<glyph name="Ntilde" format="1">
  <advance width="635"/>
  <unicode hex="00D1"/>
  <outline>
    <contour>
      <point x="227" y="822" type="line"/>
      <point x="187" y="867"/>
      <point x="169" y="931"/>
      <point x="202" y="931" type="curve" smooth="yes"/>
      <point x="225" y="931"/>
      <point x="252" y="906"/>
      <point x="311" y="865" type="curve" smooth="yes"/>
      <point x="348" y="840"/>
      <point x="377" y="822"/>
      <point x="413" y="822" type="curve" smooth="yes"/>
      <point x="473" y="822"/>
      <point x="498" y="899"/>
      <point x="436" y="949" type="curve"/>
      <point x="399" y="950" type="line"/>
      <point x="439" y="905"/>
      <point x="457" y="841"/>
      <point x="424" y="841" type="curve" smooth="yes"/>
      <point x="401" y="841"/>
      <point x="374" y="866"/>
      <point x="315" y="907" type="curve" smooth="yes"/>
      <point x="278" y="932"/>
      <point x="249" y="950"/>
      <point x="213" y="950" type="curve" smooth="yes"/>
      <point x="153" y="950"/>
      <point x="128" y="873"/>
      <point x="190" y="823" type="curve"/>
    </contour>
    <contour>
      <point x="561" y="700" type="line"/>
      <point x="518" y="700" type="line"/>
      <point x="518" y="70" type="line"/>
      <point x="118" y="700" type="line"/>
      <point x="117" y="700" type="line"/>
      <point x="117" y="700" type="line"/>
      <point x="74" y="700" type="line"/>
      <point x="74" y="0" type="line"/>
      <point x="117" y="0" type="line"/>
      <point x="117" y="624" type="line"/>
      <point x="516" y="0" type="line"/>
      <point x="561" y="0" type="line"/>
    </contour>
  </outline>
</glyph>
<glyph name="Oacute" format="1">
  <advance width="758"/>
  <unicode hex="00D3"/>
  <outline>
    <contour>
      <point x="461" y="894" type="line"/>
      <point x="438" y="933" type="line"/>
      <point x="318" y="820" type="line"/>
      <point x="335" y="815" type="line"/>
    </contour>
    <contour>
      <point x="590" y="-5"/>
      <point x="728" y="151"/>
      <point x="728" y="348" type="curve" smooth="yes"/>
      <point x="728" y="546"/>
      <point x="590" y="705"/>
      <point x="379" y="705" type="curve" smooth="yes"/>
      <point x="168" y="705"/>
      <point x="30" y="546"/>
      <point x="30" y="348" type="curve" smooth="yes"/>
      <point x="30" y="152"/>
      <point x="169" y="-5"/>
      <point x="379" y="-5" type="curve" smooth="yes"/>
    </contour>
    <contour>
      <point x="195" y="26"/>
      <point x="73" y="164"/>
      <point x="73" y="348" type="curve" smooth="yes"/>
      <point x="73" y="533"/>
      <point x="196" y="674"/>
      <point x="379" y="674" type="curve" smooth="yes"/>
      <point x="563" y="674"/>
      <point x="685" y="533"/>
      <point x="685" y="348" type="curve" smooth="yes"/>
      <point x="685" y="164"/>
      <point x="563" y="26"/>
      <point x="379" y="26" type="curve" smooth="yes"/>
    </contour>
  </outline>
</glyph>
<glyph name="Ocircumflex" format="1">
  <advance width="758"/>
  <unicode hex="00D4"/>
  <outline>
    <contour>
      <point x="267" y="815" type="line"/>
      <point x="380" y="921" type="line"/>
      <point x="493" y="815" type="line"/>
      <point x="535" y="829" type="line"/>
      <point x="381" y="966" type="line"/>
      <point x="380" y="965" type="line"/>
      <point x="379" y="966" type="line"/>
      <point x="225" y="829" type="line"/>
    </contour>
    <contour>
      <point x="168" y="705"/>
      <point x="30" y="546"/>
      <point x="30" y="348" type="curve" smooth="yes"/>
      <point x="30" y="152"/>
      <point x="169" y="-5"/>
      <point x="379" y="-5" type="curve" smooth="yes"/>
      <point x="590" y="-5"/>
      <point x="728" y="151"/>
      <point x="728" y="348" type="curve" smooth="yes"/>
      <point x="728" y="546"/>
      <point x="590" y="705"/>
      <point x="379" y="705" type="curve" smooth="yes"/>
    </contour>
    <contour>
      <point x="195" y="26"/>
      <point x="73" y="164"/>
      <point x="73" y="348" type="curve" smooth="yes"/>
      <point x="73" y="533"/>
      <point x="196" y="674"/>
      <point x="379" y="674" type="curve" smooth="yes"/>
      <point x="563" y="674"/>
      <point x="685" y="533"/>
      <point x="685" y="348" type="curve" smooth="yes"/>
      <point x="685" y="164"/>
      <point x="563" y="26"/>
      <point x="379" y="26" type="curve" smooth="yes"/>
    </contour>
  </outline>
</glyph>
<glyph name="Otilde" format="1">
  <advance width="758"/>
  <unicode hex="00D5"/>
  <outline>
    <contour>
      <point x="450" y="950" type="line"/>
      <point x="490" y="905"/>
      <point x="508" y="841"/>
      <point x="475" y="841" type="curve" smooth="yes"/>
      <point x="452" y="841"/>
      <point x="425" y="866"/>
      <point x="366" y="907" type="curve" smooth="yes"/>
      <point x="329" y="932"/>
      <point x="300" y="950"/>
      <point x="264" y="950" type="curve" smooth="yes"/>
      <point x="204" y="950"/>
      <point x="179" y="873"/>
      <point x="241" y="823" type="curve"/>
      <point x="278" y="822" type="line"/>
      <point x="238" y="867"/>
      <point x="220" y="931"/>
      <point x="253" y="931" type="curve" smooth="yes"/>
      <point x="276" y="931"/>
      <point x="303" y="906"/>
      <point x="362" y="865" type="curve" smooth="yes"/>
      <point x="399" y="840"/>
      <point x="428" y="822"/>
      <point x="464" y="822" type="curve" smooth="yes"/>
      <point x="524" y="822"/>
      <point x="549" y="899"/>
      <point x="487" y="949" type="curve"/>
    </contour>
    <contour>
      <point x="590" y="-5"/>
      <point x="728" y="151"/>
      <point x="728" y="348" type="curve" smooth="yes"/>
      <point x="728" y="546"/>
      <point x="590" y="705"/>
      <point x="379" y="705" type="curve" smooth="yes"/>
      <point x="168" y="705"/>
      <point x="30" y="546"/>
      <point x="30" y="348" type="curve" smooth="yes"/>
      <point x="30" y="152"/>
      <point x="169" y="-5"/>
      <point x="379" y="-5" type="curve" smooth="yes"/>
    </contour>
    <contour>
      <point x="195" y="26"/>
      <point x="73" y="164"/>
      <point x="73" y="348" type="curve" smooth="yes"/>
      <point x="73" y="533"/>
      <point x="196" y="674"/>
      <point x="379" y="674" type="curve" smooth="yes"/>
      <point x="563" y="674"/>
      <point x="685" y="533"/>
      <point x="685" y="348" type="curve" smooth="yes"/>
      <point x="685" y="164"/>
      <point x="563" y="26"/>
      <point x="379" y="26" type="curve" smooth="yes"/>
    </contour>
  </outline>
</glyph>
<glyph name="multiply" format="1">
  <advance width="600"/>
  <unicode hex="00D7"/>
  <outline>
    <contour>
      <point x="333" y="284" type="line"/>
      <point x="565" y="516" type="line"/>
      <point x="542" y="540" type="line"/>
      <point x="309" y="307" type="line"/>
      <point x="77" y="539" type="line"/>
      <point x="54" y="515" type="line"/>
      <point x="286" y="283" type="line"/>
      <point x="55" y="52" type="line"/>
      <point x="79" y="29" type="line"/>
      <point x="310" y="260" type="line"/>
      <point x="541" y="29" type="line"/>
      <point x="565" y="52" type="line"/>
    </contour>
  </outline>
</glyph>
<glyph name="Oslash" format="1">
  <advance width="758"/>
  <unicode hex="00D8"/>
  <outline>
    <contour>
      <point x="536" y="785" type="line"/>
      <point x="501" y="785" type="line"/>
      <point x="474" y="693" type="line"/>
      <point x="444" y="701"/>
      <point x="413" y="705"/>
      <point x="379" y="705" type="curve" smooth="yes"/>
      <point x="168" y="705"/>
      <point x="30" y="546"/>
      <point x="30" y="348" type="curve" smooth="yes"/>
      <point x="30" y="188"/>
      <point x="123" y="53"/>
      <point x="272" y="10" type="curve"/>
      <point x="247" y="-74" type="line"/>
      <point x="282" y="-74" type="line"/>
      <point x="304" y="2" type="line"/>
      <point x="328" y="-3"/>
      <point x="353" y="-5"/>
      <point x="379" y="-5" type="curve" smooth="yes"/>
      <point x="590" y="-5"/>
      <point x="728" y="151"/>
      <point x="728" y="348" type="curve" smooth="yes"/>
      <point x="728" y="503"/>
      <point x="644" y="634"/>
      <point x="506" y="684" type="curve"/>
    </contour>
    <contour>
      <point x="73" y="533"/>
      <point x="196" y="674"/>
      <point x="379" y="674" type="curve" smooth="yes"/>
      <point x="409" y="674"/>
      <point x="438" y="670"/>
      <point x="465" y="663" type="curve"/>
      <point x="281" y="40" type="line"/>
      <point x="153" y="80"/>
      <point x="73" y="199"/>
      <point x="73" y="348" type="curve" smooth="yes"/>
    </contour>
    <contour>
      <point x="356" y="26"/>
      <point x="334" y="28"/>
      <point x="313" y="32" type="curve"/>
      <point x="497" y="652" type="line"/>
      <point x="613" y="606"/>
      <point x="685" y="490"/>
      <point x="685" y="348" type="curve" smooth="yes"/>
      <point x="685" y="164"/>
      <point x="563" y="26"/>
      <point x="379" y="26" type="curve" smooth="yes"/>
    </contour>
  </outline>
</glyph>
<glyph name="Ugrave" format="1">
  <advance width="622"/>
  <unicode hex="00D9"/>
  <outline>
    <contour>
      <point x="368" y="820" type="line"/>
      <point x="248" y="933" type="line"/>
      <point x="225" y="894" type="line"/>
      <point x="351" y="815" type="line"/>
    </contour>
    <contour>
      <point x="561" y="700" type="line"/>
      <point x="519" y="700" type="line"/>
      <point x="519" y="212" type="line" smooth="yes"/>
      <point x="519" y="75"/>
      <point x="428" y="15"/>
      <point x="311" y="15" type="curve" smooth="yes"/>
      <point x="194" y="15"/>
      <point x="103" y="75"/>
      <point x="103" y="212" type="curve" smooth="yes"/>
      <point x="103" y="700" type="line"/>
      <point x="61" y="700" type="line"/>
      <point x="60" y="212" type="line" smooth="yes"/>
      <point x="60" y="58"/>
      <point x="162" y="-12"/>
      <point x="311" y="-12" type="curve" smooth="yes"/>
      <point x="460" y="-12"/>
      <point x="562" y="58"/>
      <point x="562" y="212" type="curve"/>
    </contour>
  </outline>
</glyph>
<glyph name="Uacute" format="1">
  <advance width="622"/>
  <unicode hex="00DA"/>
  <outline>
    <contour>
      <point x="393" y="894" type="line"/>
      <point x="370" y="933" type="line"/>
      <point x="250" y="820" type="line"/>
      <point x="267" y="815" type="line"/>
    </contour>
    <contour>
      <point x="561" y="700" type="line"/>
      <point x="519" y="700" type="line"/>
      <point x="519" y="212" type="line" smooth="yes"/>
      <point x="519" y="75"/>
      <point x="428" y="15"/>
      <point x="311" y="15" type="curve" smooth="yes"/>
      <point x="194" y="15"/>
      <point x="103" y="75"/>
      <point x="103" y="212" type="curve" smooth="yes"/>
      <point x="103" y="700" type="line"/>
      <point x="61" y="700" type="line"/>
      <point x="60" y="212" type="line" smooth="yes"/>
      <point x="60" y="58"/>
      <point x="162" y="-12"/>
      <point x="311" y="-12" type="curve" smooth="yes"/>
      <point x="460" y="-12"/>
      <point x="562" y="58"/>
      <point x="562" y="212" type="curve"/>
    </contour>
  </outline>
</glyph>
<glyph name="Ucircumflex" format="1">
  <advance width="622"/>
  <unicode hex="00DB"/>
  <outline>
    <contour>
      <point x="199" y="815" type="line"/>
      <point x="312" y="921" type="line"/>
      <point x="425" y="815" type="line"/>
      <point x="467" y="829" type="line"/>
      <point x="313" y="966" type="line"/>
      <point x="312" y="965" type="line"/>
      <point x="311" y="966" type="line"/>
      <point x="157" y="829" type="line"/>
    </contour>
    <contour>
      <point x="561" y="700" type="line"/>
      <point x="519" y="700" type="line"/>
      <point x="519" y="212" type="line" smooth="yes"/>
      <point x="519" y="75"/>
      <point x="428" y="15"/>
      <point x="311" y="15" type="curve" smooth="yes"/>
      <point x="194" y="15"/>
      <point x="103" y="75"/>
      <point x="103" y="212" type="curve" smooth="yes"/>
      <point x="103" y="700" type="line"/>
      <point x="61" y="700" type="line"/>
      <point x="60" y="212" type="line" smooth="yes"/>
      <point x="60" y="58"/>
      <point x="162" y="-12"/>
      <point x="311" y="-12" type="curve" smooth="yes"/>
      <point x="460" y="-12"/>
      <point x="562" y="58"/>
      <point x="562" y="212" type="curve"/>
    </contour>
  </outline>
</glyph>
<glyph name="Yacute" format="1">
  <advance width="585"/>
  <unicode hex="00DD"/>
  <outline>
    <contour>
      <point x="249" y="815" type="line"/>
      <point x="375" y="894" type="line"/>
      <point x="352" y="933" type="line"/>
      <point x="232" y="820" type="line"/>
    </contour>
    <contour>
      <point x="313" y="313" type="line"/>
      <point x="519" y="700" type="line"/>
      <point x="473" y="700" type="line"/>
      <point x="292" y="337" type="line"/>
      <point x="112" y="700" type="line"/>
      <point x="66" y="700" type="line"/>
      <point x="271" y="313" type="line"/>
      <point x="271" y="0" type="line"/>
      <point x="313" y="0" type="line"/>
    </contour>
  </outline>
</glyph>
<glyph name="germandbls" format="1">
  <advance width="596"/>
  <unicode hex="00DF"/>
  <outline>
    <contour>
      <point x="43" y="-16" type="line"/>
      <point x="87" y="-16" type="line"/>
      <point x="87" y="551" type="line" smooth="yes"/>
      <point x="87" y="631"/>
      <point x="145" y="683"/>
      <point x="241" y="683" type="curve" smooth="yes"/>
      <point x="342" y="683"/>
      <point x="401" y="631"/>
      <point x="401" y="551" type="curve" smooth="yes"/>
      <point x="401" y="473"/>
      <point x="345" y="415"/>
      <point x="238" y="415" type="curve"/>
      <point x="263" y="415" type="line"/>
      <point x="263" y="405" type="line"/>
      <point x="303" y="405" type="line" smooth="yes"/>
      <point x="435" y="405"/>
      <point x="533" y="332"/>
      <point x="533" y="201" type="curve" smooth="yes"/>
      <point x="533" y="72"/>
      <point x="436" y="17"/>
      <point x="297" y="17" type="curve" smooth="yes"/>
      <point x="271" y="17"/>
      <point x="241" y="23"/>
      <point x="215" y="31" type="curve"/>
      <point x="215" y="4" type="line"/>
      <point x="239" y="-6"/>
      <point x="276" y="-16"/>
      <point x="308" y="-16" type="curve" smooth="yes"/>
      <point x="469" y="-16"/>
      <point x="578" y="53"/>
      <point x="578" y="201" type="curve" smooth="yes"/>
      <point x="578" y="304"/>
      <point x="501" y="421"/>
      <point x="370" y="421" type="curve"/>
      <point x="434" y="462"/>
      <point x="445" y="501"/>
      <point x="445" y="563" type="curve" smooth="yes"/>
      <point x="445" y="680"/>
      <point x="356" y="716"/>
      <point x="241" y="716" type="curve" smooth="yes"/>
      <point x="123" y="716"/>
      <point x="43" y="681"/>
      <point x="43" y="560" type="curve" smooth="yes"/>
    </contour>
  </outline>
</glyph>
<glyph name="atilde" format="1">
  <advance width="521"/>
  <unicode hex="00E3"/>
  <outline>
    <contour>
      <point x="178" y="603" type="line"/>
      <point x="138" y="648"/>
      <point x="120" y="712"/>
      <point x="153" y="712" type="curve" smooth="yes"/>
      <point x="176" y="712"/>
      <point x="203" y="687"/>
      <point x="262" y="646" type="curve" smooth="yes"/>
      <point x="299" y="621"/>
      <point x="328" y="603"/>
      <point x="364" y="603" type="curve" smooth="yes"/>
      <point x="424" y="603"/>
      <point x="449" y="680"/>
      <point x="387" y="730" type="curve"/>
      <point x="350" y="731" type="line"/>
      <point x="390" y="686"/>
      <point x="408" y="622"/>
      <point x="375" y="622" type="curve" smooth="yes"/>
      <point x="352" y="622"/>
      <point x="325" y="647"/>
      <point x="266" y="688" type="curve" smooth="yes"/>
      <point x="229" y="713"/>
      <point x="200" y="731"/>
      <point x="164" y="731" type="curve" smooth="yes"/>
      <point x="104" y="731"/>
      <point x="79" y="654"/>
      <point x="141" y="604" type="curve"/>
    </contour>
    <contour>
      <point x="172" y="512"/>
      <point x="88" y="456"/>
      <point x="77" y="393" type="curve"/>
      <point x="141" y="392" type="line"/>
      <point x="153" y="437"/>
      <point x="190" y="488"/>
      <point x="275" y="488" type="curve" smooth="yes"/>
      <point x="370" y="488"/>
      <point x="409" y="440"/>
      <point x="424" y="384" type="curve"/>
      <point x="441" y="307"/>
      <point x="353" y="277"/>
      <point x="255" y="265" type="curve" smooth="yes"/>
      <point x="96" y="246"/>
      <point x="40" y="198"/>
      <point x="40" y="123" type="curve" smooth="yes"/>
      <point x="40" y="42"/>
      <point x="115" y="-14"/>
      <point x="234" y="-14" type="curve" smooth="yes"/>
      <point x="333" y="-14"/>
      <point x="406" y="49"/>
      <point x="433" y="128" type="curve"/>
      <point x="433" y="-0" type="line"/>
      <point x="477" y="-0" type="line"/>
      <point x="477" y="310" type="line" smooth="yes"/>
      <point x="477" y="399"/>
      <point x="459" y="512"/>
      <point x="275" y="512" type="curve" smooth="yes"/>
    </contour>
    <contour>
      <point x="119" y="2"/>
      <point x="90" y="78"/>
      <point x="90" y="129" type="curve" smooth="yes"/>
      <point x="90" y="194"/>
      <point x="137" y="233"/>
      <point x="252" y="248" type="curve" smooth="yes"/>
      <point x="335" y="259"/>
      <point x="401" y="281"/>
      <point x="433" y="320" type="curve"/>
      <point x="433" y="316"/>
      <point x="433" y="313"/>
      <point x="433" y="310" type="curve" smooth="yes"/>
      <point x="433" y="199" type="line" smooth="yes"/>
      <point x="433" y="107"/>
      <point x="361" y="2"/>
      <point x="234" y="2" type="curve" smooth="yes"/>
    </contour>
  </outline>
</glyph>
<glyph name="ae" format="1">
  <advance width="918"/>
  <unicode hex="00E6"/>
  <outline>
    <contour>
      <point x="592" y="4"/>
      <point x="489" y="89"/>
      <point x="487" y="251" type="curve"/>
      <point x="928" y="251" type="line"/>
      <point x="948" y="408"/>
      <point x="857" y="513"/>
      <point x="697" y="513" type="curve" smooth="yes"/>
      <point x="600" y="513"/>
      <point x="514" y="470"/>
      <point x="468" y="392" type="curve"/>
      <point x="452" y="456"/>
      <point x="404" y="512"/>
      <point x="275" y="512" type="curve" smooth="yes"/>
      <point x="172" y="512"/>
      <point x="88" y="456"/>
      <point x="77" y="393" type="curve"/>
      <point x="141" y="392" type="line"/>
      <point x="153" y="437"/>
      <point x="190" y="488"/>
      <point x="275" y="488" type="curve" smooth="yes"/>
      <point x="370" y="488"/>
      <point x="409" y="440"/>
      <point x="424" y="384" type="curve"/>
      <point x="441" y="307"/>
      <point x="353" y="277"/>
      <point x="255" y="265" type="curve" smooth="yes"/>
      <point x="96" y="246"/>
      <point x="40" y="198"/>
      <point x="40" y="123" type="curve" smooth="yes"/>
      <point x="40" y="42"/>
      <point x="115" y="-14"/>
      <point x="234" y="-14" type="curve" smooth="yes"/>
      <point x="333" y="-14"/>
      <point x="406" y="49"/>
      <point x="433" y="128" type="curve"/>
      <point x="433" y="-0" type="line"/>
      <point x="477" y="-0" type="line"/>
      <point x="477" y="96" type="line"/>
      <point x="526" y="22"/>
      <point x="611" y="-14"/>
      <point x="704" y="-14" type="curve" smooth="yes"/>
      <point x="807" y="-14"/>
      <point x="881" y="19"/>
      <point x="929" y="78" type="curve"/>
      <point x="888" y="97" type="line"/>
      <point x="854" y="48"/>
      <point x="806" y="4"/>
      <point x="704" y="4" type="curve" smooth="yes"/>
    </contour>
    <contour>
      <point x="851" y="498"/>
      <point x="906" y="370"/>
      <point x="874" y="273" type="curve"/>
      <point x="487" y="273" type="line"/>
      <point x="494" y="400"/>
      <point x="572" y="498"/>
      <point x="697" y="498" type="curve" smooth="yes"/>
    </contour>
    <contour>
      <point x="119" y="2"/>
      <point x="90" y="78"/>
      <point x="90" y="129" type="curve" smooth="yes"/>
      <point x="90" y="194"/>
      <point x="137" y="233"/>
      <point x="252" y="248" type="curve" smooth="yes"/>
      <point x="335" y="259"/>
      <point x="401" y="281"/>
      <point x="433" y="320" type="curve"/>
      <point x="433" y="316"/>
      <point x="433" y="313"/>
      <point x="433" y="310" type="curve" smooth="yes"/>
      <point x="433" y="199" type="line" smooth="yes"/>
      <point x="433" y="107"/>
      <point x="361" y="2"/>
      <point x="234" y="2" type="curve" smooth="yes"/>
    </contour>
  </outline>
</glyph>
<glyph name="ccedilla" format="1">
  <advance width="549"/>
  <unicode hex="00E7"/>
  <outline>
    <contour>
      <point x="403" y="-14"/>
      <point x="480" y="31"/>
      <point x="519" y="112" type="curve"/>
      <point x="479" y="128" type="line"/>
      <point x="449" y="68"/>
      <point x="395" y="0"/>
      <point x="290" y="0" type="curve" smooth="yes"/>
      <point x="177" y="0"/>
      <point x="73" y="91"/>
      <point x="73" y="244" type="curve" smooth="yes"/>
      <point x="73" y="392"/>
      <point x="157" y="500"/>
      <point x="298" y="500" type="curve" smooth="yes"/>
      <point x="380" y="500"/>
      <point x="438" y="450"/>
      <point x="476" y="387" type="curve"/>
      <point x="514" y="408" type="line"/>
      <point x="477" y="471"/>
      <point x="404" y="513"/>
      <point x="298" y="513" type="curve" smooth="yes"/>
      <point x="136" y="513"/>
      <point x="20" y="420"/>
      <point x="20" y="244" type="curve" smooth="yes"/>
      <point x="20" y="87"/>
      <point x="125" y="1"/>
      <point x="253" y="-12" type="curve"/>
      <point x="224" y="-78" type="line"/>
      <point x="252" y="-78" type="line"/>
      <point x="253" y="-77" type="line"/>
      <point x="264" y="-68"/>
      <point x="280" y="-61"/>
      <point x="299" y="-61" type="curve" smooth="yes"/>
      <point x="327" y="-61"/>
      <point x="346" y="-85"/>
      <point x="340" y="-114" type="curve" smooth="yes"/>
      <point x="332" y="-151"/>
      <point x="289" y="-172"/>
      <point x="254" y="-172" type="curve" smooth="yes"/>
      <point x="238" y="-172"/>
      <point x="214" y="-167"/>
      <point x="197" y="-161" type="curve"/>
      <point x="197" y="-189" type="line"/>
      <point x="209" y="-192"/>
      <point x="230" y="-196"/>
      <point x="248" y="-196" type="curve" smooth="yes"/>
      <point x="299" y="-196"/>
      <point x="357" y="-173"/>
      <point x="369" y="-117" type="curve" smooth="yes"/>
      <point x="377" y="-81"/>
      <point x="358" y="-44"/>
      <point x="302" y="-44" type="curve" smooth="yes"/>
      <point x="289" y="-44"/>
      <point x="275" y="-49"/>
      <point x="262" y="-56" type="curve"/>
      <point x="281" y="-14" type="line"/>
      <point x="284" y="-14"/>
      <point x="287" y="-14"/>
      <point x="290" y="-14" type="curve" smooth="yes"/>
    </contour>
  </outline>
</glyph>
<glyph name="igrave" format="1">
  <advance width="248"/>
  <unicode hex="00EC"/>
  <outline>
    <contour>
      <point x="181" y="661" type="line"/>
      <point x="61" y="774" type="line"/>
      <point x="38" y="735" type="line"/>
      <point x="164" y="656" type="line"/>
    </contour>
    <contour>
      <point x="102" y="0" type="line"/>
      <point x="146" y="0" type="line"/>
      <point x="146" y="500" type="line"/>
      <point x="102" y="500" type="line"/>
    </contour>
  </outline>
</glyph>
<glyph name="iacute" format="1">
  <advance width="248"/>
  <unicode hex="00ED"/>
  <outline>
    <contour>
      <point x="206" y="735" type="line"/>
      <point x="183" y="774" type="line"/>
      <point x="63" y="661" type="line"/>
      <point x="80" y="656" type="line"/>
    </contour>
    <contour>
      <point x="102" y="0" type="line"/>
      <point x="146" y="0" type="line"/>
      <point x="146" y="500" type="line"/>
      <point x="102" y="500" type="line"/>
    </contour>
  </outline>
</glyph>
<glyph name="icircumflex" format="1">
  <advance width="248"/>
  <unicode hex="00EE"/>
  <outline>
    <contour>
      <point x="280" y="670" type="line"/>
      <point x="126" y="807" type="line"/>
      <point x="125" y="806" type="line"/>
      <point x="124" y="807" type="line"/>
      <point x="-30" y="670" type="line"/>
      <point x="12" y="656" type="line"/>
      <point x="125" y="762" type="line"/>
      <point x="238" y="656" type="line"/>
    </contour>
    <contour>
      <point x="102" y="500" type="line"/>
      <point x="102" y="0" type="line"/>
      <point x="146" y="0" type="line"/>
      <point x="146" y="500" type="line"/>
    </contour>
  </outline>
</glyph>
<glyph name="idieresis" format="1">
  <advance width="248"/>
  <unicode hex="00EF"/>
  <outline>
    <contour>
      <point x="-21" y="672" type="line"/>
      <point x="21" y="672" type="line"/>
      <point x="21" y="714" type="line"/>
      <point x="-21" y="714" type="line"/>
    </contour>
    <contour>
      <point x="227" y="672" type="line"/>
      <point x="269" y="672" type="line"/>
      <point x="269" y="714" type="line"/>
      <point x="227" y="714" type="line"/>
    </contour>
    <contour>
      <point x="102" y="0" type="line"/>
      <point x="146" y="0" type="line"/>
      <point x="146" y="500" type="line"/>
      <point x="102" y="500" type="line"/>
    </contour>
  </outline>
</glyph>
<glyph name="eth" format="1">
  <advance width="573"/>
  <unicode hex="00F0"/>
  <outline>
    <contour>
      <point x="553" y="510"/>
      <point x="446" y="664"/>
      <point x="268" y="745" type="curve"/>
      <point x="327" y="796" type="line"/>
      <point x="308" y="815" type="line"/>
      <point x="241" y="757" type="line"/>
      <point x="191" y="777"/>
      <point x="137" y="791"/>
      <point x="78" y="800" type="curve"/>
      <point x="78" y="764" type="line"/>
      <point x="125" y="755"/>
      <point x="169" y="743"/>
      <point x="208" y="728" type="curve"/>
      <point x="150" y="678" type="line"/>
      <point x="169" y="659" type="line"/>
      <point x="236" y="717" type="line"/>
      <point x="407" y="642"/>
      <point x="494" y="508"/>
      <point x="512" y="347" type="curve"/>
      <point x="470" y="422"/>
      <point x="391" y="491"/>
      <point x="287" y="491" type="curve" smooth="yes"/>
      <point x="277" y="491"/>
      <point x="269" y="491"/>
      <point x="261" y="490" type="curve" smooth="yes"/>
      <point x="122" y="475"/>
      <point x="38" y="371"/>
      <point x="38" y="236" type="curve" smooth="yes"/>
      <point x="38" y="227"/>
      <point x="39" y="216"/>
      <point x="40" y="203" type="curve"/>
      <point x="56" y="61"/>
      <point x="149" y="-34"/>
      <point x="284" y="-34" type="curve" smooth="yes"/>
      <point x="294" y="-34"/>
      <point x="304" y="-33"/>
      <point x="315" y="-32" type="curve" smooth="yes"/>
      <point x="448" y="-18"/>
      <point x="525" y="94"/>
      <point x="541" y="196" type="curve"/>
      <point x="550" y="237"/>
      <point x="553" y="274"/>
      <point x="553" y="312" type="curve" smooth="yes"/>
    </contour>
    <contour>
      <point x="304" y="-4"/>
      <point x="296" y="-4"/>
      <point x="289" y="-4" type="curve" smooth="yes"/>
      <point x="170" y="-4"/>
      <point x="85" y="104"/>
      <point x="85" y="241" type="curve" smooth="yes"/>
      <point x="85" y="352"/>
      <point x="151" y="449"/>
      <point x="263" y="460" type="curve"/>
      <point x="273" y="462"/>
      <point x="284" y="462"/>
      <point x="290" y="462" type="curve" smooth="yes"/>
      <point x="408" y="462"/>
      <point x="510" y="372"/>
      <point x="510" y="221" type="curve" smooth="yes"/>
      <point x="510" y="214"/>
      <point x="510" y="207"/>
      <point x="509" y="200" type="curve"/>
      <point x="508" y="189"/>
      <point x="506" y="177"/>
      <point x="504" y="164" type="curve"/>
      <point x="482" y="70"/>
      <point x="407" y="7"/>
      <point x="313" y="-3" type="curve" smooth="yes"/>
    </contour>
  </outline>
</glyph>
<glyph name="ntilde" format="1">
  <advance width="560"/>
  <unicode hex="00F1"/>
  <outline>
    <contour>
      <point x="179" y="662" type="line"/>
      <point x="139" y="707"/>
      <point x="121" y="771"/>
      <point x="154" y="771" type="curve" smooth="yes"/>
      <point x="177" y="771"/>
      <point x="204" y="746"/>
      <point x="263" y="705" type="curve" smooth="yes"/>
      <point x="300" y="680"/>
      <point x="329" y="662"/>
      <point x="365" y="662" type="curve" smooth="yes"/>
      <point x="425" y="662"/>
      <point x="450" y="739"/>
      <point x="388" y="789" type="curve"/>
      <point x="351" y="790" type="line"/>
      <point x="391" y="745"/>
      <point x="409" y="681"/>
      <point x="376" y="681" type="curve" smooth="yes"/>
      <point x="353" y="681"/>
      <point x="326" y="706"/>
      <point x="267" y="747" type="curve" smooth="yes"/>
      <point x="230" y="772"/>
      <point x="201" y="790"/>
      <point x="165" y="790" type="curve" smooth="yes"/>
      <point x="105" y="790"/>
      <point x="80" y="713"/>
      <point x="142" y="663" type="curve"/>
    </contour>
    <contour>
      <point x="217" y="508"/>
      <point x="117" y="436"/>
      <point x="87" y="343" type="curve"/>
      <point x="87" y="500" type="line"/>
      <point x="43" y="500" type="line"/>
      <point x="43" y="1" type="line"/>
      <point x="87" y="1" type="line"/>
      <point x="87" y="277" type="line"/>
      <point x="104" y="420"/>
      <point x="211" y="483"/>
      <point x="300" y="483" type="curve" smooth="yes"/>
      <point x="425" y="483"/>
      <point x="470" y="398"/>
      <point x="470" y="304" type="curve" smooth="yes"/>
      <point x="470" y="1" type="line"/>
      <point x="514" y="1" type="line"/>
      <point x="514" y="304" type="line" smooth="yes"/>
      <point x="514" y="409"/>
      <point x="475" y="508"/>
      <point x="313" y="508" type="curve" smooth="yes"/>
    </contour>
  </outline>
</glyph>
<glyph name="ocircumflex" format="1">
  <advance width="534"/>
  <unicode hex="00F4"/>
  <outline>
    <contour>
      <point x="155" y="656" type="line"/>
      <point x="268" y="762" type="line"/>
      <point x="381" y="656" type="line"/>
      <point x="423" y="670" type="line"/>
      <point x="269" y="807" type="line"/>
      <point x="268" y="806" type="line"/>
      <point x="267" y="807" type="line"/>
      <point x="113" y="670" type="line"/>
    </contour>
    <contour>
      <point x="121" y="512"/>
      <point x="21" y="397"/>
      <point x="21" y="247" type="curve" smooth="yes"/>
      <point x="21" y="98"/>
      <point x="120" y="-14"/>
      <point x="267" y="-14" type="curve" smooth="yes"/>
      <point x="414" y="-14"/>
      <point x="513" y="98"/>
      <point x="513" y="247" type="curve" smooth="yes"/>
      <point x="513" y="397"/>
      <point x="413" y="512"/>
      <point x="267" y="512" type="curve" smooth="yes"/>
    </contour>
    <contour>
      <point x="145" y="8"/>
      <point x="62" y="113"/>
      <point x="62" y="247" type="curve" smooth="yes"/>
      <point x="62" y="382"/>
      <point x="145" y="486"/>
      <point x="267" y="486" type="curve" smooth="yes"/>
      <point x="389" y="486"/>
      <point x="472" y="382"/>
      <point x="472" y="247" type="curve" smooth="yes"/>
      <point x="472" y="113"/>
      <point x="389" y="8"/>
      <point x="267" y="8" type="curve" smooth="yes"/>
    </contour>
  </outline>
</glyph>
<glyph name="otilde" format="1">
  <advance width="534"/>
  <unicode hex="00F5"/>
  <outline>
    <contour>
      <point x="338" y="791" type="line"/>
      <point x="378" y="746"/>
      <point x="396" y="682"/>
      <point x="363" y="682" type="curve" smooth="yes"/>
      <point x="340" y="682"/>
      <point x="313" y="707"/>
      <point x="254" y="748" type="curve" smooth="yes"/>
      <point x="217" y="773"/>
      <point x="188" y="791"/>
      <point x="152" y="791" type="curve" smooth="yes"/>
      <point x="92" y="791"/>
      <point x="67" y="714"/>
      <point x="129" y="664" type="curve"/>
      <point x="166" y="663" type="line"/>
      <point x="126" y="708"/>
      <point x="108" y="772"/>
      <point x="141" y="772" type="curve" smooth="yes"/>
      <point x="164" y="772"/>
      <point x="191" y="747"/>
      <point x="250" y="706" type="curve" smooth="yes"/>
      <point x="287" y="681"/>
      <point x="316" y="663"/>
      <point x="352" y="663" type="curve" smooth="yes"/>
      <point x="412" y="663"/>
      <point x="437" y="740"/>
      <point x="375" y="790" type="curve"/>
    </contour>
    <contour>
      <point x="414" y="-14"/>
      <point x="513" y="98"/>
      <point x="513" y="247" type="curve" smooth="yes"/>
      <point x="513" y="397"/>
      <point x="413" y="512"/>
      <point x="267" y="512" type="curve" smooth="yes"/>
      <point x="121" y="512"/>
      <point x="21" y="397"/>
      <point x="21" y="247" type="curve" smooth="yes"/>
      <point x="21" y="98"/>
      <point x="120" y="-14"/>
      <point x="267" y="-14" type="curve" smooth="yes"/>
    </contour>
    <contour>
      <point x="145" y="8"/>
      <point x="62" y="113"/>
      <point x="62" y="247" type="curve" smooth="yes"/>
      <point x="62" y="382"/>
      <point x="145" y="486"/>
      <point x="267" y="486" type="curve" smooth="yes"/>
      <point x="389" y="486"/>
      <point x="472" y="382"/>
      <point x="472" y="247" type="curve" smooth="yes"/>
      <point x="472" y="113"/>
      <point x="389" y="8"/>
      <point x="267" y="8" type="curve" smooth="yes"/>
    </contour>
  </outline>
</glyph>
<glyph name="divide" format="1">
  <advance width="600"/>
  <unicode hex="00F7"/>
  <outline>
    <contour>
      <point x="264" y="398" type="line"/>
      <point x="332" y="398" type="line"/>
      <point x="332" y="466" type="line"/>
      <point x="264" y="466" type="line"/>
    </contour>
    <contour>
      <point x="64" y="213" type="line"/>
      <point x="531" y="213" type="line"/>
      <point x="531" y="246" type="line"/>
      <point x="64" y="246" type="line"/>
    </contour>
    <contour>
      <point x="264" y="-1" type="line"/>
      <point x="332" y="-1" type="line"/>
      <point x="332" y="68" type="line"/>
      <point x="264" y="68" type="line"/>
    </contour>
  </outline>
</glyph>
<glyph name="oslash" format="1">
  <advance width="534"/>
  <unicode hex="00F8"/>
  <outline>
    <contour>
      <point x="419" y="695" type="line"/>
      <point x="384" y="695" type="line"/>
      <point x="328" y="505" type="line"/>
      <point x="309" y="510"/>
      <point x="288" y="512"/>
      <point x="267" y="512" type="curve" smooth="yes"/>
      <point x="121" y="512"/>
      <point x="21" y="397"/>
      <point x="21" y="247" type="curve" smooth="yes"/>
      <point x="21" y="130"/>
      <point x="82" y="36"/>
      <point x="179" y="1" type="curve"/>
      <point x="130" y="-164" type="line"/>
      <point x="165" y="-164" type="line"/>
      <point x="211" y="-8" type="line"/>
      <point x="229" y="-12"/>
      <point x="247" y="-14"/>
      <point x="267" y="-14" type="curve" smooth="yes"/>
      <point x="414" y="-14"/>
      <point x="513" y="98"/>
      <point x="513" y="247" type="curve" smooth="yes"/>
      <point x="513" y="362"/>
      <point x="454" y="457"/>
      <point x="360" y="495" type="curve"/>
    </contour>
    <contour>
      <point x="62" y="382"/>
      <point x="145" y="486"/>
      <point x="267" y="486" type="curve" smooth="yes"/>
      <point x="286" y="486"/>
      <point x="303" y="484"/>
      <point x="320" y="479" type="curve"/>
      <point x="186" y="25" type="line"/>
      <point x="110" y="60"/>
      <point x="62" y="145"/>
      <point x="62" y="247" type="curve"/>
    </contour>
    <contour>
      <point x="250" y="8"/>
      <point x="233" y="10"/>
      <point x="218" y="14" type="curve"/>
      <point x="352" y="467" type="line"/>
      <point x="426" y="431"/>
      <point x="472" y="348"/>
      <point x="472" y="247" type="curve" smooth="yes"/>
      <point x="472" y="113"/>
      <point x="389" y="8"/>
      <point x="267" y="8" type="curve" smooth="yes"/>
    </contour>
  </outline>
</glyph>
<glyph name="ugrave" format="1">
  <advance width="556"/>
  <unicode hex="00F9"/>
  <outline>
    <contour>
      <point x="318" y="656" type="line"/>
      <point x="335" y="661" type="line"/>
      <point x="215" y="774" type="line"/>
      <point x="192" y="735" type="line"/>
    </contour>
    <contour>
      <point x="512" y="500" type="line"/>
      <point x="468" y="500" type="line"/>
      <point x="468" y="224" type="line"/>
      <point x="453" y="55"/>
      <point x="342" y="18"/>
      <point x="256" y="18" type="curve" smooth="yes"/>
      <point x="131" y="18"/>
      <point x="86" y="103"/>
      <point x="86" y="197" type="curve" smooth="yes"/>
      <point x="86" y="500" type="line"/>
      <point x="42" y="500" type="line"/>
      <point x="42" y="197" type="line" smooth="yes"/>
      <point x="42" y="92"/>
      <point x="81" y="-7"/>
      <point x="243" y="-7" type="curve" smooth="yes"/>
      <point x="344" y="-7"/>
      <point x="442" y="45"/>
      <point x="468" y="146" type="curve"/>
      <point x="468" y="1" type="line"/>
      <point x="512" y="1" type="line"/>
    </contour>
  </outline>
</glyph>
<glyph name="ucircumflex" format="1">
  <advance width="556"/>
  <unicode hex="00FB"/>
  <outline>
    <contour>
      <point x="166" y="656" type="line"/>
      <point x="279" y="762" type="line"/>
      <point x="392" y="656" type="line"/>
      <point x="434" y="670" type="line"/>
      <point x="280" y="807" type="line"/>
      <point x="279" y="806" type="line"/>
      <point x="278" y="807" type="line"/>
      <point x="124" y="670" type="line"/>
    </contour>
    <contour>
      <point x="512" y="500" type="line"/>
      <point x="468" y="500" type="line"/>
      <point x="468" y="224" type="line"/>
      <point x="453" y="55"/>
      <point x="342" y="18"/>
      <point x="256" y="18" type="curve" smooth="yes"/>
      <point x="131" y="18"/>
      <point x="86" y="103"/>
      <point x="86" y="197" type="curve" smooth="yes"/>
      <point x="86" y="500" type="line"/>
      <point x="42" y="500" type="line"/>
      <point x="42" y="197" type="line" smooth="yes"/>
      <point x="42" y="92"/>
      <point x="81" y="-7"/>
      <point x="243" y="-7" type="curve" smooth="yes"/>
      <point x="344" y="-7"/>
      <point x="442" y="45"/>
      <point x="468" y="146" type="curve"/>
      <point x="468" y="1" type="line"/>
      <point x="512" y="1" type="line"/>
    </contour>
  </outline>
</glyph>
<glyph name="yacute" format="1">
  <advance width="532"/>
  <unicode hex="00FD"/>
  <outline>
    <contour>
      <point x="221" y="672" type="line"/>
      <point x="347" y="751" type="line"/>
      <point x="324" y="790" type="line"/>
      <point x="204" y="677" type="line"/>
    </contour>
    <contour>
      <point x="495" y="500" type="line"/>
      <point x="452" y="500" type="line"/>
      <point x="292" y="108" type="line"/>
      <point x="100" y="500" type="line"/>
      <point x="47" y="500" type="line"/>
      <point x="271" y="56" type="line"/>
      <point x="166" y="-200" type="line"/>
      <point x="210" y="-200" type="line"/>
    </contour>
  </outline>
</glyph>
<glyph name="thorn" format="1">
  <advance width="563"/>
  <unicode hex="00FE"/>
  <outline>
    <contour>
      <point x="166" y="506"/>
      <point x="95" y="407"/>
      <point x="74" y="307" type="curve"/>
      <point x="81" y="376" type="line"/>
      <point x="81" y="808" type="line"/>
      <point x="37" y="808" type="line"/>
      <point x="36" y="-238" type="line"/>
      <point x="81" y="-238" type="line"/>
      <point x="81" y="96" type="line"/>
      <point x="74" y="177" type="line"/>
      <point x="96" y="78"/>
      <point x="167" y="-19"/>
      <point x="294" y="-19" type="curve" smooth="yes"/>
      <point x="446" y="-19"/>
      <point x="543" y="91"/>
      <point x="543" y="242" type="curve" smooth="yes"/>
      <point x="543" y="394"/>
      <point x="446" y="506"/>
      <point x="294" y="506" type="curve" smooth="yes"/>
    </contour>
    <contour>
      <point x="173" y="10"/>
      <point x="72" y="100"/>
      <point x="72" y="242" type="curve" smooth="yes"/>
      <point x="72" y="387"/>
      <point x="173" y="476"/>
      <point x="294" y="476" type="curve" smooth="yes"/>
      <point x="416" y="476"/>
      <point x="498" y="371"/>
      <point x="498" y="242" type="curve" smooth="yes"/>
      <point x="498" y="115"/>
      <point x="417" y="10"/>
      <point x="294" y="10" type="curve" smooth="yes"/>
    </contour>
  </outline>
</glyph>
<glyph name="ydieresis" format="1">
  <advance width="532"/>
  <unicode hex="00FF"/>
  <outline>
    <contour>
      <point x="162" y="688" type="line"/>
      <point x="162" y="730" type="line"/>
      <point x="120" y="730" type="line"/>
      <point x="120" y="688" type="line"/>
    </contour>
    <contour>
      <point x="410" y="688" type="line"/>
      <point x="410" y="730" type="line"/>
      <point x="368" y="730" type="line"/>
      <point x="368" y="688" type="line"/>
    </contour>
    <contour>
      <point x="495" y="500" type="line"/>
      <point x="452" y="500" type="line"/>
      <point x="292" y="108" type="line"/>
      <point x="100" y="500" type="line"/>
      <point x="47" y="500" type="line"/>
      <point x="271" y="56" type="line"/>
      <point x="166" y="-200" type="line"/>
      <point x="210" y="-200" type="line"/>
    </contour>
  </outline>
</glyph>
<glyph name="dotlessi" format="1">
  <advance width="248"/>
  <unicode hex="0131"/>
  <outline>
    <contour>
      <point x="102" y="0" type="line"/>
      <point x="146" y="0" type="line"/>
      <point x="146" y="500" type="line"/>
      <point x="102" y="500" type="line"/>
    </contour>
  </outline>
</glyph>
<glyph name="Lslash" format="1">
  <advance width="697"/>
  <unicode hex="0141"/>
  <outline>
    <contour>
      <point x="655" y="30" type="line"/>
      <point x="218" y="30" type="line"/>
      <point x="218" y="393" type="line"/>
      <point x="344" y="429" type="line"/>
      <point x="344" y="465" type="line"/>
      <point x="218" y="429" type="line"/>
      <point x="218" y="700" type="line"/>
      <point x="176" y="700" type="line"/>
      <point x="176" y="417" type="line"/>
      <point x="54" y="382" type="line"/>
      <point x="54" y="346" type="line"/>
      <point x="176" y="381" type="line"/>
      <point x="176" y="0" type="line"/>
      <point x="655" y="0" type="line"/>
    </contour>
  </outline>
</glyph>
<glyph name="lslash" format="1">
  <advance width="472"/>
  <unicode hex="0142"/>
  <outline>
    <contour>
      <point x="388" y="433" type="line"/>
      <point x="388" y="470" type="line"/>
      <point x="259" y="433" type="line"/>
      <point x="259" y="700" type="line"/>
      <point x="215" y="700" type="line"/>
      <point x="215" y="420" type="line"/>
      <point x="84" y="383" type="line"/>
      <point x="84" y="346" type="line"/>
      <point x="215" y="383" type="line"/>
      <point x="215" y="0" type="line"/>
      <point x="259" y="0" type="line"/>
      <point x="259" y="396" type="line"/>
    </contour>
  </outline>
</glyph>
<glyph name="OE" format="1">
  <advance width="1157"/>
  <unicode hex="0152"/>
  <outline>
    <contour>
      <point x="1110" y="30" type="line"/>
      <point x="625" y="30" type="line"/>
      <point x="625" y="338" type="line"/>
      <point x="1088" y="338" type="line"/>
      <point x="1088" y="370" type="line"/>
      <point x="625" y="370" type="line"/>
      <point x="625" y="669" type="line"/>
      <point x="1099" y="669" type="line"/>
      <point x="1099" y="700" type="line"/>
      <point x="583" y="700" type="line"/>
      <point x="583" y="626" type="line"/>
      <point x="525" y="675"/>
      <point x="448" y="705"/>
      <point x="356" y="705" type="curve" smooth="yes"/>
      <point x="145" y="705"/>
      <point x="8" y="546"/>
      <point x="8" y="348" type="curve" smooth="yes"/>
      <point x="8" y="152"/>
      <point x="146" y="-5"/>
      <point x="356" y="-5" type="curve" smooth="yes"/>
      <point x="448" y="-5"/>
      <point x="525" y="24"/>
      <point x="583" y="73" type="curve"/>
      <point x="583" y="-0" type="line"/>
      <point x="1110" y="-0" type="line"/>
    </contour>
    <contour>
      <point x="172" y="26"/>
      <point x="50" y="164"/>
      <point x="50" y="348" type="curve" smooth="yes"/>
      <point x="50" y="533"/>
      <point x="173" y="674"/>
      <point x="356" y="674" type="curve" smooth="yes"/>
      <point x="469" y="674"/>
      <point x="543" y="643"/>
      <point x="583" y="562" type="curve"/>
      <point x="583" y="140" type="line"/>
      <point x="543" y="60"/>
      <point x="469" y="26"/>
      <point x="356" y="26" type="curve" smooth="yes"/>
    </contour>
    <contour>
      <point x="602" y="511" type="line"/>
      <point x="614" y="468"/>
      <point x="620" y="414"/>
      <point x="620" y="348" type="curve" smooth="yes"/>
      <point x="620" y="285"/>
      <point x="614" y="233"/>
      <point x="602" y="190" type="curve"/>
    </contour>
  </outline>
</glyph>
<glyph name="oe" format="1">
  <advance width="1011"/>
  <unicode hex="0153"/>
  <outline>
    <contour>
      <point x="632" y="4"/>
      <point x="529" y="89"/>
      <point x="527" y="251" type="curve"/>
      <point x="968" y="251" type="line"/>
      <point x="988" y="408"/>
      <point x="897" y="513"/>
      <point x="737" y="513" type="curve" smooth="yes"/>
      <point x="627" y="513"/>
      <point x="531" y="458"/>
      <point x="492" y="359" type="curve"/>
      <point x="456" y="451"/>
      <point x="374" y="512"/>
      <point x="267" y="512" type="curve" smooth="yes"/>
      <point x="121" y="512"/>
      <point x="21" y="397"/>
      <point x="21" y="247" type="curve" smooth="yes"/>
      <point x="21" y="98"/>
      <point x="120" y="-14"/>
      <point x="267" y="-14" type="curve" smooth="yes"/>
      <point x="376" y="-14"/>
      <point x="459" y="48"/>
      <point x="494" y="141" type="curve"/>
      <point x="535" y="36"/>
      <point x="634" y="-14"/>
      <point x="744" y="-14" type="curve" smooth="yes"/>
      <point x="847" y="-14"/>
      <point x="921" y="19"/>
      <point x="969" y="78" type="curve"/>
      <point x="928" y="97" type="line"/>
      <point x="894" y="48"/>
      <point x="846" y="4"/>
      <point x="744" y="4" type="curve" smooth="yes"/>
    </contour>
    <contour>
      <point x="891" y="498"/>
      <point x="946" y="370"/>
      <point x="914" y="273" type="curve"/>
      <point x="527" y="273" type="line"/>
      <point x="534" y="400"/>
      <point x="612" y="498"/>
      <point x="737" y="498" type="curve" smooth="yes"/>
    </contour>
    <contour>
      <point x="145" y="8"/>
      <point x="62" y="113"/>
      <point x="62" y="247" type="curve" smooth="yes"/>
      <point x="62" y="382"/>
      <point x="145" y="486"/>
      <point x="267" y="486" type="curve" smooth="yes"/>
      <point x="389" y="486"/>
      <point x="472" y="382"/>
      <point x="472" y="247" type="curve" smooth="yes"/>
      <point x="472" y="113"/>
      <point x="389" y="8"/>
      <point x="267" y="8" type="curve" smooth="yes"/>
    </contour>
  </outline>
</glyph>
<glyph name="Scaron" format="1">
  <advance width="572"/>
  <unicode hex="0160"/>
  <outline>
    <contour>
      <point x="286" y="797" type="line"/>
      <point x="287" y="798" type="line"/>
      <point x="288" y="797" type="line"/>
      <point x="442" y="934" type="line"/>
      <point x="400" y="948" type="line"/>
      <point x="287" y="842" type="line"/>
      <point x="174" y="948" type="line"/>
      <point x="132" y="934" type="line"/>
    </contour>
    <contour>
      <point x="157" y="430"/>
      <point x="129" y="472"/>
      <point x="129" y="544" type="curve" smooth="yes"/>
      <point x="129" y="623"/>
      <point x="180" y="683"/>
      <point x="297" y="683" type="curve" smooth="yes"/>
      <point x="376" y="683"/>
      <point x="435" y="651"/>
      <point x="455" y="593" type="curve"/>
      <point x="497" y="604" type="line"/>
      <point x="469" y="673"/>
      <point x="391" y="708"/>
      <point x="297" y="708" type="curve" smooth="yes"/>
      <point x="153" y="708"/>
      <point x="85" y="636"/>
      <point x="85" y="544" type="curve" smooth="yes"/>
      <point x="85" y="451"/>
      <point x="152" y="403"/>
      <point x="291" y="358" type="curve" smooth="yes"/>
      <point x="392" y="325"/>
      <point x="501" y="299"/>
      <point x="501" y="190" type="curve" smooth="yes"/>
      <point x="501" y="95"/>
      <point x="439" y="20"/>
      <point x="302" y="20" type="curve" smooth="yes"/>
      <point x="167" y="20"/>
      <point x="98" y="83"/>
      <point x="67" y="172" type="curve"/>
      <point x="28" y="152" type="line"/>
      <point x="71" y="57"/>
      <point x="153" y="-7"/>
      <point x="302" y="-7" type="curve" smooth="yes"/>
      <point x="474" y="-7"/>
      <point x="547" y="83"/>
      <point x="547" y="190" type="curve" smooth="yes"/>
      <point x="547" y="321"/>
      <point x="397" y="350"/>
      <point x="301" y="382" type="curve" smooth="yes"/>
    </contour>
  </outline>
</glyph>
<glyph name="Ydieresis" format="1">
  <advance width="585"/>
  <unicode hex="0178"/>
  <outline>
    <contour>
      <point x="190" y="831" type="line"/>
      <point x="190" y="873" type="line"/>
      <point x="148" y="873" type="line"/>
      <point x="148" y="831" type="line"/>
    </contour>
    <contour>
      <point x="438" y="831" type="line"/>
      <point x="438" y="873" type="line"/>
      <point x="396" y="873" type="line"/>
      <point x="396" y="831" type="line"/>
    </contour>
    <contour>
      <point x="313" y="313" type="line"/>
      <point x="519" y="700" type="line"/>
      <point x="473" y="700" type="line"/>
      <point x="292" y="337" type="line"/>
      <point x="112" y="700" type="line"/>
      <point x="66" y="700" type="line"/>
      <point x="271" y="313" type="line"/>
      <point x="271" y="0" type="line"/>
      <point x="313" y="0" type="line"/>
    </contour>
  </outline>
</glyph>
<glyph name="Zcaron" format="1">
  <advance width="555"/>
  <unicode hex="017D"/>
  <outline>
    <contour>
      <point x="278" y="797" type="line"/>
      <point x="279" y="798" type="line"/>
      <point x="280" y="797" type="line"/>
      <point x="434" y="934" type="line"/>
      <point x="392" y="948" type="line"/>
      <point x="279" y="842" type="line"/>
      <point x="166" y="948" type="line"/>
      <point x="124" y="934" type="line"/>
    </contour>
    <contour>
      <point x="556" y="670" type="line"/>
      <point x="556" y="700" type="line"/>
      <point x="45" y="700" type="line"/>
      <point x="45" y="670" type="line"/>
      <point x="511" y="670" type="line"/>
      <point x="9" y="30" type="line"/>
      <point x="9" y="0" type="line"/>
      <point x="531" y="0" type="line"/>
      <point x="531" y="30" type="line"/>
      <point x="54" y="30" type="line"/>
      <point x="555" y="669" type="line"/>
      <point x="553" y="670" type="line"/>
    </contour>
  </outline>
</glyph>
<glyph name="zcaron" format="1">
  <advance width="489"/>
  <unicode hex="017E"/>
  <outline>
    <contour>
      <point x="246" y="638" type="line"/>
      <point x="247" y="639" type="line"/>
      <point x="248" y="638" type="line"/>
      <point x="402" y="775" type="line"/>
      <point x="360" y="789" type="line"/>
      <point x="247" y="683" type="line"/>
      <point x="134" y="789" type="line"/>
      <point x="92" y="775" type="line"/>
    </contour>
    <contour>
      <point x="483" y="465" type="line"/>
      <point x="483" y="500" type="line"/>
      <point x="43" y="500" type="line"/>
      <point x="43" y="465" type="line"/>
      <point x="422" y="465" type="line"/>
      <point x="3" y="35" type="line"/>
      <point x="3" y="0" type="line"/>
      <point x="466" y="0" type="line"/>
      <point x="466" y="35" type="line"/>
      <point x="49" y="35" type="line"/>
    </contour>
  </outline>
</glyph>
<glyph name="florin" format="1">
  <advance width="583"/>
  <unicode hex="0192"/>
  <outline>
    <contour>
      <point x="240" y="733"/>
      <point x="214" y="608"/>
      <point x="196" y="543" type="curve" smooth="yes"/>
      <point x="157" y="395" type="line"/>
      <point x="35" y="395" type="line"/>
      <point x="35" y="362" type="line"/>
      <point x="149" y="362" type="line"/>
      <point x="9" y="-170" type="line"/>
      <point x="49" y="-170" type="line"/>
      <point x="188" y="362" type="line"/>
      <point x="368" y="362" type="line"/>
      <point x="368" y="395" type="line"/>
      <point x="197" y="395" type="line"/>
      <point x="241" y="563" type="line" smooth="yes"/>
      <point x="256" y="620"/>
      <point x="292" y="713"/>
      <point x="395" y="713" type="curve" smooth="yes"/>
      <point x="444" y="713"/>
      <point x="484" y="687"/>
      <point x="508" y="659" type="curve"/>
      <point x="538" y="680" type="line"/>
      <point x="510" y="708"/>
      <point x="468" y="733"/>
      <point x="395" y="733" type="curve" smooth="yes"/>
    </contour>
  </outline>
</glyph>
<glyph name="circumflex" format="1">
  <advance width="600"/>
  <unicode hex="02C6"/>
  <outline>
    <contour>
      <point x="402" y="595" type="line"/>
      <point x="444" y="609" type="line"/>
      <point x="290" y="746" type="line"/>
      <point x="289" y="745" type="line"/>
      <point x="288" y="746" type="line"/>
      <point x="134" y="609" type="line"/>
      <point x="176" y="595" type="line"/>
      <point x="289" y="701" type="line"/>
    </contour>
  </outline>
</glyph>
<glyph name="caron" format="1">
  <advance width="600"/>
  <unicode hex="02C7"/>
  <outline>
    <contour>
      <point x="290" y="582" type="line"/>
      <point x="444" y="719" type="line"/>
      <point x="402" y="733" type="line"/>
      <point x="289" y="627" type="line"/>
      <point x="176" y="733" type="line"/>
      <point x="134" y="719" type="line"/>
      <point x="288" y="582" type="line"/>
      <point x="289" y="583" type="line"/>
    </contour>
  </outline>
</glyph>
<glyph name="breve" format="1">
  <advance width="600"/>
  <unicode hex="02D8"/>
  <outline>
    <contour>
      <point x="409" y="689" type="line"/>
      <point x="380" y="596"/>
      <point x="337" y="583"/>
      <point x="288" y="581" type="curve"/>
      <point x="239" y="583"/>
      <point x="196" y="596"/>
      <point x="167" y="689" type="curve"/>
      <point x="125" y="689" type="line"/>
      <point x="162" y="584"/>
      <point x="234" y="550"/>
      <point x="288" y="549" type="curve"/>
      <point x="342" y="550"/>
      <point x="414" y="584"/>
      <point x="451" y="689" type="curve"/>
    </contour>
  </outline>
</glyph>
<glyph name="dotaccent" format="1">
  <advance width="248"/>
  <unicode hex="02D9"/>
  <outline>
    <contour>
      <point x="103" y="625" type="line"/>
      <point x="145" y="625" type="line"/>
      <point x="145" y="667" type="line"/>
      <point x="103" y="667" type="line"/>
    </contour>
  </outline>
</glyph>
<glyph name="ring" format="1">
  <advance width="554"/>
  <unicode hex="02DA"/>
  <outline>
    <contour>
      <point x="341" y="564"/>
      <point x="395" y="618"/>
      <point x="395" y="682" type="curve" smooth="yes"/>
      <point x="395" y="746"/>
      <point x="341" y="800"/>
      <point x="277" y="800" type="curve" smooth="yes"/>
      <point x="213" y="800"/>
      <point x="159" y="746"/>
      <point x="159" y="682" type="curve" smooth="yes"/>
      <point x="159" y="618"/>
      <point x="213" y="564"/>
      <point x="277" y="564" type="curve" smooth="yes"/>
    </contour>
    <contour>
      <point x="227" y="592"/>
      <point x="187" y="632"/>
      <point x="187" y="682" type="curve" smooth="yes"/>
      <point x="187" y="732"/>
      <point x="227" y="772"/>
      <point x="277" y="772" type="curve" smooth="yes"/>
      <point x="327" y="772"/>
      <point x="367" y="732"/>
      <point x="367" y="682" type="curve" smooth="yes"/>
      <point x="367" y="632"/>
      <point x="327" y="592"/>
      <point x="277" y="592" type="curve" smooth="yes"/>
    </contour>
  </outline>
</glyph>
<glyph name="tilde" format="1">
  <advance width="600"/>
  <unicode hex="02DC"/>
  <outline>
    <contour>
      <point x="378" y="730" type="line"/>
      <point x="418" y="685"/>
      <point x="436" y="621"/>
      <point x="403" y="621" type="curve" smooth="yes"/>
      <point x="380" y="621"/>
      <point x="353" y="646"/>
      <point x="294" y="687" type="curve" smooth="yes"/>
      <point x="257" y="712"/>
      <point x="228" y="730"/>
      <point x="192" y="730" type="curve" smooth="yes"/>
      <point x="132" y="730"/>
      <point x="107" y="653"/>
      <point x="169" y="603" type="curve"/>
      <point x="206" y="602" type="line"/>
      <point x="166" y="647"/>
      <point x="148" y="711"/>
      <point x="181" y="711" type="curve" smooth="yes"/>
      <point x="204" y="711"/>
      <point x="231" y="686"/>
      <point x="290" y="645" type="curve" smooth="yes"/>
      <point x="327" y="620"/>
      <point x="356" y="602"/>
      <point x="392" y="602" type="curve" smooth="yes"/>
      <point x="452" y="602"/>
      <point x="477" y="679"/>
      <point x="415" y="729" type="curve"/>
    </contour>
  </outline>
</glyph>
<glyph name="hungarumlaut" format="1">
  <advance width="788"/>
  <unicode hex="02DD"/>
  <outline>
    <contour>
      <point x="353" y="676" type="line"/>
      <point x="330" y="715" type="line"/>
      <point x="210" y="602" type="line"/>
      <point x="227" y="597" type="line"/>
    </contour>
    <contour>
      <point x="598" y="676" type="line"/>
      <point x="575" y="715" type="line"/>
      <point x="455" y="602" type="line"/>
      <point x="472" y="597" type="line"/>
    </contour>
  </outline>
</glyph>
<glyph name="Delta" format="1">
  <advance width="652"/>
  <unicode hex="0394"/>
  <outline>
    <contour>
      <point x="611" y="38" type="line"/>
      <point x="354" y="700" type="line"/>
      <point x="298" y="700" type="line"/>
      <point x="41" y="38" type="line"/>
      <point x="41" y="0" type="line"/>
      <point x="611" y="0" type="line"/>
    </contour>
    <contour>
      <point x="568" y="38" type="line"/>
      <point x="84" y="38" type="line"/>
      <point x="326" y="661" type="line"/>
    </contour>
  </outline>
</glyph>
<glyph name="mu" format="1">
  <advance width="556"/>
  <unicode hex="03BC"/>
  <outline>
    <contour>
      <point x="501" y="500" type="line"/>
      <point x="459" y="500" type="line"/>
      <point x="459" y="213" type="line" smooth="yes"/>
      <point x="459" y="52"/>
      <point x="339" y="17"/>
      <point x="257" y="17" type="curve" smooth="yes"/>
      <point x="137" y="17"/>
      <point x="95" y="98"/>
      <point x="95" y="188" type="curve" smooth="yes"/>
      <point x="95" y="500" type="line"/>
      <point x="53" y="500" type="line"/>
      <point x="53" y="-200" type="line"/>
      <point x="95" y="-200" type="line"/>
      <point x="95" y="48" type="line"/>
      <point x="124" y="14"/>
      <point x="171" y="-7"/>
      <point x="245" y="-7" type="curve" smooth="yes"/>
      <point x="333" y="-7"/>
      <point x="421" y="35"/>
      <point x="459" y="117" type="curve"/>
      <point x="459" y="0" type="line"/>
      <point x="501" y="0" type="line"/>
    </contour>
  </outline>
</glyph>
<glyph name="emdash" format="1">
  <advance width="600"/>
  <unicode hex="2014"/>
  <outline>
    <contour>
      <point x="21" y="293" type="line"/>
      <point x="578" y="293" type="line"/>
      <point x="578" y="327" type="line"/>
      <point x="21" y="327" type="line"/>
    </contour>
  </outline>
</glyph>
<glyph name="quoteleft" format="1">
  <advance width="310"/>
  <unicode hex="2018"/>
  <outline>
    <contour>
      <point x="129" y="734" type="line"/>
      <point x="168" y="700"/>
      <point x="169" y="667"/>
      <point x="169" y="643" type="curve" smooth="yes"/>
      <point x="169" y="634" type="line"/>
      <point x="121" y="634" type="line"/>
      <point x="121" y="566" type="line"/>
      <point x="189" y="566" type="line"/>
      <point x="189" y="643" type="line" smooth="yes"/>
      <point x="189" y="680"/>
      <point x="175" y="728"/>
      <point x="129" y="765" type="curve"/>
    </contour>
  </outline>
</glyph>
<glyph name="quoteright" format="1">
  <advance width="310"/>
  <unicode hex="2019"/>
  <outline>
    <contour>
      <point x="189" y="729" type="line"/>
      <point x="121" y="729" type="line"/>
      <point x="121" y="661" type="line"/>
      <point x="169" y="661" type="line"/>
      <point x="169" y="652" type="line" smooth="yes"/>
      <point x="169" y="628"/>
      <point x="168" y="595"/>
      <point x="129" y="561" type="curve"/>
      <point x="129" y="530" type="line"/>
      <point x="175" y="567"/>
      <point x="189" y="615"/>
      <point x="189" y="652" type="curve" smooth="yes"/>
    </contour>
  </outline>
</glyph>
<glyph name="quotedblleft" format="1">
  <advance width="548"/>
  <unicode hex="201C"/>
  <outline>
    <contour>
      <point x="141" y="632" type="line"/>
      <point x="141" y="641" type="line" smooth="yes"/>
      <point x="141" y="665"/>
      <point x="142" y="698"/>
      <point x="181" y="732" type="curve"/>
      <point x="181" y="763" type="line"/>
      <point x="135" y="726"/>
      <point x="121" y="678"/>
      <point x="121" y="641" type="curve" smooth="yes"/>
      <point x="121" y="564" type="line"/>
      <point x="189" y="564" type="line"/>
      <point x="189" y="632" type="line"/>
    </contour>
    <contour>
      <point x="427" y="632" type="line"/>
      <point x="379" y="632" type="line"/>
      <point x="379" y="641" type="line" smooth="yes"/>
      <point x="379" y="665"/>
      <point x="380" y="698"/>
      <point x="419" y="732" type="curve"/>
      <point x="419" y="763" type="line"/>
      <point x="373" y="726"/>
      <point x="359" y="678"/>
      <point x="359" y="641" type="curve" smooth="yes"/>
      <point x="359" y="564" type="line"/>
      <point x="427" y="564" type="line"/>
    </contour>
  </outline>
</glyph>
<glyph name="quotedblright" format="1">
  <advance width="548"/>
  <unicode hex="201D"/>
  <outline>
    <contour>
      <point x="121" y="717" type="line"/>
      <point x="121" y="649" type="line"/>
      <point x="169" y="649" type="line"/>
      <point x="169" y="640" type="line" smooth="yes"/>
      <point x="169" y="616"/>
      <point x="168" y="583"/>
      <point x="129" y="549" type="curve"/>
      <point x="129" y="518" type="line"/>
      <point x="175" y="555"/>
      <point x="189" y="603"/>
      <point x="189" y="640" type="curve" smooth="yes"/>
      <point x="189" y="717" type="line"/>
    </contour>
    <contour>
      <point x="427" y="717" type="line"/>
      <point x="359" y="717" type="line"/>
      <point x="359" y="649" type="line"/>
      <point x="407" y="649" type="line"/>
      <point x="407" y="640" type="line" smooth="yes"/>
      <point x="407" y="616"/>
      <point x="406" y="583"/>
      <point x="367" y="549" type="curve"/>
      <point x="367" y="518" type="line"/>
      <point x="413" y="555"/>
      <point x="427" y="603"/>
      <point x="427" y="640" type="curve" smooth="yes"/>
    </contour>
  </outline>
</glyph>
<glyph name="quotedblbase" format="1">
  <advance width="600"/>
  <unicode hex="201E"/>
  <outline>
    <contour>
      <point x="121" y="68" type="line"/>
      <point x="121" y="0" type="line"/>
      <point x="169" y="0" type="line"/>
      <point x="169" y="-9" type="line" smooth="yes"/>
      <point x="169" y="-33"/>
      <point x="168" y="-66"/>
      <point x="129" y="-100" type="curve"/>
      <point x="129" y="-131" type="line"/>
      <point x="175" y="-94"/>
      <point x="189" y="-46"/>
      <point x="189" y="-9" type="curve" smooth="yes"/>
      <point x="189" y="68" type="line"/>
    </contour>
    <contour>
      <point x="452" y="68" type="line"/>
      <point x="384" y="68" type="line"/>
      <point x="384" y="0" type="line"/>
      <point x="432" y="0" type="line"/>
      <point x="432" y="-9" type="line" smooth="yes"/>
      <point x="432" y="-33"/>
      <point x="431" y="-66"/>
      <point x="392" y="-100" type="curve"/>
      <point x="392" y="-131" type="line"/>
      <point x="438" y="-94"/>
      <point x="452" y="-46"/>
      <point x="452" y="-9" type="curve" smooth="yes"/>
    </contour>
  </outline>
</glyph>
<glyph name="bullet" format="1">
  <advance width="600"/>
  <unicode hex="2022"/>
  <outline>
    <contour>
      <point x="399" y="116"/>
      <point x="479" y="196"/>
      <point x="479" y="295" type="curve" smooth="yes"/>
      <point x="479" y="394"/>
      <point x="399" y="474"/>
      <point x="300" y="474" type="curve" smooth="yes"/>
      <point x="201" y="474"/>
      <point x="121" y="394"/>
      <point x="121" y="295" type="curve" smooth="yes"/>
      <point x="121" y="196"/>
      <point x="201" y="116"/>
      <point x="300" y="116" type="curve" smooth="yes"/>
    </contour>
  </outline>
</glyph>
<glyph name="guilsinglleft" format="1">
  <advance width="347"/>
  <unicode hex="2039"/>
  <outline>
    <contour>
      <point x="113" y="267" type="line"/>
      <point x="214" y="446" type="line"/>
      <point x="204" y="452" type="line"/>
      <point x="42" y="268" type="line"/>
      <point x="40" y="268" type="line"/>
      <point x="41" y="267" type="line"/>
      <point x="40" y="266" type="line"/>
      <point x="42" y="266" type="line"/>
      <point x="204" y="81" type="line"/>
      <point x="214" y="88" type="line"/>
    </contour>
  </outline>
</glyph>
<glyph name="guilsinglright" format="1">
  <advance width="352"/>
  <unicode hex="203A"/>
  <outline>
    <contour>
      <point x="307" y="266" type="line"/>
      <point x="306" y="267" type="line"/>
      <point x="307" y="268" type="line"/>
      <point x="305" y="268" type="line"/>
      <point x="143" y="452" type="line"/>
      <point x="133" y="446" type="line"/>
      <point x="234" y="267" type="line"/>
      <point x="133" y="88" type="line"/>
      <point x="143" y="81" type="line"/>
      <point x="305" y="266" type="line"/>
    </contour>
  </outline>
</glyph>
<glyph name="fraction" format="1">
  <advance width="784"/>
  <unicode hex="2044"/>
  <outline>
    <contour>
      <point x="703" y="751" type="line"/>
      <point x="670" y="751" type="line"/>
      <point x="89" y="-2" type="line"/>
      <point x="122" y="-2" type="line"/>
    </contour>
  </outline>
</glyph>
<glyph name="Euro" format="1">
  <advance width="781"/>
  <unicode hex="20AC"/>
  <outline>
    <contour>
      <point x="322" y="26"/>
      <point x="214" y="121"/>
      <point x="181" y="259" type="curve"/>
      <point x="542" y="259" type="line"/>
      <point x="542" y="292" type="line"/>
      <point x="175" y="292" type="line"/>
      <point x="172" y="310"/>
      <point x="171" y="329"/>
      <point x="171" y="348" type="curve" smooth="yes"/>
      <point x="171" y="368"/>
      <point x="172" y="387"/>
      <point x="175" y="405" type="curve"/>
      <point x="542" y="405" type="line"/>
      <point x="542" y="438" type="line"/>
      <point x="181" y="438" type="line"/>
      <point x="214" y="577"/>
      <point x="323" y="674"/>
      <point x="466" y="674" type="curve" smooth="yes"/>
      <point x="553" y="674"/>
      <point x="639" y="634"/>
      <point x="693" y="567" type="curve"/>
      <point x="734" y="588" type="line"/>
      <point x="673" y="662"/>
      <point x="581" y="705"/>
      <point x="466" y="705" type="curve" smooth="yes"/>
      <point x="288" y="705"/>
      <point x="162" y="592"/>
      <point x="127" y="438" type="curve"/>
      <point x="43" y="438" type="line"/>
      <point x="43" y="405" type="line"/>
      <point x="121" y="405" type="line"/>
      <point x="118" y="386"/>
      <point x="117" y="367"/>
      <point x="117" y="348" type="curve" smooth="yes"/>
      <point x="117" y="329"/>
      <point x="118" y="310"/>
      <point x="121" y="292" type="curve"/>
      <point x="43" y="292" type="line"/>
      <point x="43" y="259" type="line"/>
      <point x="127" y="259" type="line"/>
      <point x="162" y="107"/>
      <point x="289" y="-5"/>
      <point x="466" y="-5" type="curve" smooth="yes"/>
      <point x="580" y="-5"/>
      <point x="670" y="36"/>
      <point x="731" y="107" type="curve"/>
      <point x="689" y="127" type="line"/>
      <point x="635" y="64"/>
      <point x="551" y="26"/>
      <point x="466" y="26" type="curve" smooth="yes"/>
    </contour>
  </outline>
</glyph>
<glyph name="partialdiff" format="1">
  <advance width="573"/>
  <unicode hex="2202"/>
  <outline>
    <contour>
      <point x="520" y="581"/>
      <point x="360" y="795"/>
      <point x="117" y="770" type="curve" smooth="yes"/>
      <point x="107" y="769"/>
      <point x="93" y="767"/>
      <point x="89" y="765" type="curve"/>
      <point x="101" y="727" type="line"/>
      <point x="348" y="752"/>
      <point x="466" y="611"/>
      <point x="496" y="331" type="curve"/>
      <point x="458" y="469"/>
      <point x="343" y="501"/>
      <point x="242" y="490" type="curve" smooth="yes"/>
      <point x="95" y="475"/>
      <point x="16" y="327"/>
      <point x="29" y="197" type="curve" smooth="yes"/>
      <point x="43" y="58"/>
      <point x="167" y="-20"/>
      <point x="284" y="-8" type="curve" smooth="yes"/>
      <point x="402" y="4"/>
      <point x="565" y="136"/>
      <point x="541" y="371" type="curve" smooth="yes"/>
    </contour>
    <contour>
      <point x="183" y="8"/>
      <point x="82" y="73"/>
      <point x="70" y="191" type="curve" smooth="yes"/>
      <point x="58" y="303"/>
      <point x="131" y="448"/>
      <point x="260" y="461" type="curve" smooth="yes"/>
      <point x="356" y="471"/>
      <point x="469" y="396"/>
      <point x="481" y="277" type="curve" smooth="yes"/>
      <point x="494" y="150"/>
      <point x="409" y="31"/>
      <point x="288" y="19" type="curve" smooth="yes"/>
    </contour>
  </outline>
</glyph>
<glyph name="summation" format="1">
  <advance width="732"/>
  <unicode hex="2211"/>
  <outline>
    <contour>
      <point x="147" y="-10" type="line"/>
      <point x="551" y="331" type="line"/>
      <point x="148" y="663" type="line"/>
      <point x="642" y="663" type="line"/>
      <point x="642" y="702" type="line"/>
      <point x="96" y="702" type="line"/>
      <point x="96" y="651" type="line"/>
      <point x="476" y="331" type="line"/>
      <point x="96" y="2" type="line"/>
      <point x="96" y="-49" type="line"/>
      <point x="642" y="-49" type="line"/>
      <point x="642" y="-10" type="line"/>
    </contour>
  </outline>
</glyph>
<glyph name="radical" format="1">
  <advance width="497"/>
  <unicode hex="221A"/>
  <outline>
    <contour>
      <point x="272" y="-10" type="line"/>
      <point x="452" y="513" type="line"/>
      <point x="410" y="513" type="line"/>
      <point x="248" y="41" type="line"/>
      <point x="171" y="263" type="line"/>
      <point x="120" y="263" type="line"/>
      <point x="49" y="209" type="line"/>
      <point x="71" y="183" type="line"/>
      <point x="138" y="237" type="line"/>
      <point x="223" y="-10" type="line"/>
    </contour>
  </outline>
</glyph>
<glyph name="infinity" format="1">
  <advance width="858"/>
  <unicode hex="221E"/>
  <outline>
    <contour>
      <point x="582" y="533"/>
      <point x="513" y="461"/>
      <point x="435" y="377" type="curve"/>
      <point x="355" y="461"/>
      <point x="278" y="533"/>
      <point x="185" y="533" type="curve" smooth="yes"/>
      <point x="81" y="533"/>
      <point x="25" y="436"/>
      <point x="25" y="345" type="curve" smooth="yes"/>
      <point x="25" y="254"/>
      <point x="80" y="158"/>
      <point x="184" y="158" type="curve" smooth="yes"/>
      <point x="269" y="158"/>
      <point x="362" y="240"/>
      <point x="432" y="312" type="curve"/>
      <point x="496" y="242"/>
      <point x="587" y="158"/>
      <point x="672" y="158" type="curve" smooth="yes"/>
      <point x="776" y="158"/>
      <point x="833" y="255"/>
      <point x="833" y="346" type="curve" smooth="yes"/>
      <point x="833" y="437"/>
      <point x="777" y="533"/>
      <point x="673" y="533" type="curve" smooth="yes"/>
    </contour>
    <contour>
      <point x="347" y="283"/>
      <point x="275" y="201"/>
      <point x="185" y="201" type="curve" smooth="yes"/>
      <point x="101" y="201"/>
      <point x="45" y="267"/>
      <point x="45" y="346" type="curve" smooth="yes"/>
      <point x="45" y="425"/>
      <point x="102" y="490"/>
      <point x="184" y="490" type="curve" smooth="yes"/>
      <point x="272" y="490"/>
      <point x="335" y="428"/>
      <point x="382" y="370" type="curve" smooth="yes"/>
      <point x="389" y="362"/>
      <point x="396" y="353"/>
      <point x="405" y="343" type="curve"/>
      <point x="397" y="335"/>
      <point x="389" y="326"/>
      <point x="381" y="318" type="curve" smooth="yes"/>
    </contour>
    <contour>
      <point x="594" y="201"/>
      <point x="530" y="276"/>
      <point x="489" y="319" type="curve" smooth="yes"/>
      <point x="481" y="328"/>
      <point x="472" y="337"/>
      <point x="464" y="346" type="curve"/>
      <point x="472" y="355"/>
      <point x="480" y="364"/>
      <point x="488" y="372" type="curve" smooth="yes"/>
      <point x="543" y="432"/>
      <point x="595" y="490"/>
      <point x="672" y="490" type="curve" smooth="yes"/>
      <point x="772" y="490"/>
      <point x="813" y="408"/>
      <point x="813" y="345" type="curve" smooth="yes"/>
      <point x="813" y="282"/>
      <point x="774" y="201"/>
      <point x="673" y="201" type="curve" smooth="yes"/>
    </contour>
  </outline>
</glyph>
<glyph name="integral" format="1">
  <advance width="600"/>
  <unicode hex="222B"/>
  <outline>
    <contour>
      <point x="125" y="-71" type="line"/>
      <point x="118" y="-163"/>
      <point x="158" y="-223"/>
      <point x="226" y="-215" type="curve" smooth="yes"/>
      <point x="371" y="-197"/>
      <point x="394" y="-10"/>
      <point x="319" y="274" type="curve" smooth="yes"/>
      <point x="261" y="495"/>
      <point x="178" y="758"/>
      <point x="314" y="772" type="curve" smooth="yes"/>
      <point x="360" y="777"/>
      <point x="386" y="732"/>
      <point x="395" y="646" type="curve"/>
      <point x="434" y="646" type="line"/>
      <point x="423" y="747"/>
      <point x="383" y="802"/>
      <point x="313" y="794" type="curve" smooth="yes"/>
      <point x="122" y="774"/>
      <point x="194" y="500"/>
      <point x="250" y="279" type="curve" smooth="yes"/>
      <point x="326" y="-19"/>
      <point x="307" y="-181"/>
      <point x="232" y="-192" type="curve" smooth="yes"/>
      <point x="186" y="-198"/>
      <point x="160" y="-148"/>
      <point x="165" y="-71" type="curve"/>
    </contour>
  </outline>
</glyph>
